<svg xmlns="http://www.w3.org/2000/svg" width="2000" height="2000" version="1.0" viewBox="0 0 1500 1500"><path d="M232 501.7c0 284.3.4 451.2 1 460.8 9.3 139.7 74.1 269.7 179.7 360.2 86.3 74.1 190.8 116.7 304.8 124.4 31.9 2.1 75.9.3 109-4.6 108.6-16 210.2-67.4 288.9-146 41.8-41.7 73.9-86.6 100.1-140 29.5-60.1 46.9-125.7 51.5-194.3.7-10.2 1-165.9 1-460.8V56H232zm1008 9.5c0 276.6-.4 433.3-1 444.3-2.4 39.5-8.2 73.9-18.6 110.1-37.8 131.9-130.9 242.9-254.8 304-99.3 49-213.9 62.6-322.5 38.4-161.7-36.2-295-153-352.6-309.1-10.8-29.3-20.6-67.8-25-97.5-5.2-35.9-4.8-4.6-5.2-478.7L260 84h980z"/><path d="M1114.4 132c-14.4 3.7-25.5 11.4-30.9 21.1-2.8 5.1-3 6.1-3 16.4 0 9.6.3 11.6 2.4 15.9 4.9 9.8 15.9 17.6 29.6 21.1 3.3.8 11.9 2.4 19.2 3.5 25.5 3.8 33.7 9 33.6 21.2-.2 13-13.6 20.6-34.3 19.5-10.6-.5-18.2-2.9-24.9-7.7-3.7-2.7-9.4-9.4-10.4-12.3-.5-1.6-21.7 8.8-21.7 10.6 0 2.7 7.2 13.4 12.3 18.1 6.3 5.9 16.6 11 26.5 13.1 9.7 2 30 2 40-.1 16.2-3.3 29-12.1 34.7-23.9 2.5-5 3-7.4 3.3-15.6.8-18.7-5.5-30.1-20.6-37.8-5.9-3-20.6-6.7-34.2-8.6-14.7-2-23-4.7-26.9-8.7-7.8-8-3.1-18.9 10.1-23.4 7.5-2.5 21.4-2.4 29 .4 6.7 2.4 14.2 7.3 16.4 10.7l1.6 2.4 6.1-3.1c3.4-1.7 8.1-4.2 10.4-5.5l4.3-2.5-1.7-3.1c-.8-1.7-4.1-5.7-7.2-8.7-10.3-10.3-24.6-15-45.3-14.9-7.7 0-13.6.6-18.4 1.9M309 202v69.1l42.8-.3 42.7-.3 6.7-3.2c25.7-12.1 32.6-42.9 14.7-64.5l-3.9-4.7 3-4.7c4.9-7.7 6.3-13.4 5.8-23.4-.3-7.3-.9-9.8-3.6-15.3-5.1-10.3-14.9-18-26.4-20.7-2.4-.5-21.1-1-43-1H309zm79-42.8c5.6 3.9 7.5 7.3 7.4 13.4 0 6.1-1.9 9.4-7.4 13.1-3.2 2.2-4 2.3-28.6 2.3H334v-31h25.4c24.6 0 25.4.1 28.6 2.2m.3 53.2c13.6 4.9 15.8 23.2 3.6 31.3l-4.2 2.8h-53.2l-.3-16.5c-.1-9 0-17 .2-17.7.8-1.9 48.5-1.8 53.9.1M460.2 180.2c.4 46.5.4 47.4 2.7 53.5 12.6 34.2 51.4 49.7 84.1 33.7 10.1-5 21.3-16.1 26.4-26.1 6.4-12.7 6.6-14.7 6.6-64.1V133h-24.9l-.3 43.7-.3 43.8-3.1 6.5c-11.9 25-44.3 28.2-59.6 5.9-6.5-9.4-6.8-12.2-6.8-58.6V133h-25.1zM622 202v69h26v-91.30000000000001l36.3 45.6 36.2 45.6 10.8.1H742V133h-26l-.2 46.1-.3 46.1-36.3-46.1-36.3-46.1H622zM785 202v69h30c35.2 0 40.6-.7 54.9-7.6 16.2-7.9 28.8-22.7 34.8-40.9 2.1-6.6 2.6-10 2.7-19.5.1-13.8-1.1-19.4-7.1-31.9-3.8-7.9-5.9-10.8-12.7-17.6-6.6-6.7-9.9-9.1-17.6-12.9-14.2-7-18.4-7.6-54.2-7.6H785zm73.1-40.4c8.5 4.1 13.8 8.9 17.7 16.2 12.3 23.1 5.3 52.8-15 63.3-7.1 3.6-15.4 4.9-33 4.9H811v-88.1l20.3.3 20.2.3zM943 202v69h103v-26h-77v-31h61v-24h-61v-32h75v-25H943zM753 312.6c-26 5.5-45.3 22.9-54 48.4-3.2 9.4-3.9 28.1-1.5 38.2 6.1 25.2 23.1 43.8 48 52.5 7.3 2.5 9.2 2.7 22 2.7 12.6 0 14.8-.3 22-2.8 11.2-3.8 20.8-9.8 29.2-18.2l7.3-7.3V372h-53.7l-5.1 11.2-5.1 11.3 20.2.5 20.2.5.3 9.8.3 9.7-4.3 4c-7.6 7-20.6 12-31.3 12-15.7 0-31.8-9-40.5-22.7-9.3-14.6-9.3-36-.1-50.5 10.9-17.2 32.8-26.3 51.1-21.3 3 .8 6.4 1.7 7.5 2 1.7.5 2.6-.9 6.7-10.2l4.7-10.8-3.7-1.7c-10-4.5-27.8-5.9-40.2-3.2M507 383v69h97v-24h-71V314h-26zM634 383v69h26V314h-26zM902.7 314.7c-.3.5-14.1 31.2-30.7 68.3s-30.4 67.8-30.7 68.2c-.2.5 6 .8 13.9.8h14.3l23.5-53.6c12.9-29.4 23.7-53.7 24-53.9.6-.3 23.7 51.8 24.8 55.7.4 1.7-.9 1.8-17.4 1.8l-17.9.1-5.1 11.9-5.1 12 28.5.2 28.6.3 5.5 12.7 5.6 12.8h14.3c7.9 0 14.2-.4 14-.8-.1-.5-14-31.6-30.8-69L931.5 314h-14.2c-7.8 0-14.4.3-14.6.7M719 522.1c-44.1 3.5-89.3 14.5-129.3 31.5-11.8 5-34.5 16.2-30.5 15 4.8-1.4 28.8-5.6 39.8-7 32.4-4.1 82.2-4.6 108.8-1.2 63.1 8.2 126.2 30.7 184.7 65.9 55.3 33.3 103.6 78.1 130 120.7 6.1 9.9 14.3 26.6 16.5 33.5.7 2.2 1.6 4.4 2.1 4.9 1.9 2.1 15.4-23.1 19.8-36.9 3.9-12.2 5.4-22 5.4-34.5-.1-17.8-3.9-32.6-12.8-49.8-10.4-20-22.1-33.4-46.1-52.6-61.3-49.1-132.1-78.5-211.9-88.2-15.6-1.8-60.2-2.6-76.5-1.3M555 634.7c-11.1 1.1-26.9 3.7-36.5 6-59.4 14-105.9 51.1-136.1 108.8l-5.7 11 9.9-9.6c17.6-17 31.9-26.2 50.2-32.2 15.8-5.3 27-7 45.2-7 23 0 45.2 4.3 68.6 13.3 6 2.3 11.5 4.2 12.2 4.3.6 0 1.2.5 1.2 1 0 .6.3.7.7.4.3-.4 1.2-.2 2 .4 1.4 1.2 7.3 2 7.1 1-.3-2.5.4-4.1 1.4-3.5.6.4.8.3.4-.4-.3-.6-.2-1.3.2-1.6.5-.3.7-1.8.4-3.2-.3-1.9-.1-2.5.7-2 .6.4.8 1.3.5 1.9-.4.7-.4.9.1.5.4-.4 1.3-.3 2 .2.8.7 1.2.5 1.2-.5 0-.7-.3-1.3-.6-1.2s-.6-.2-.6-.8.3-.9.7-.8c.4.2.4-.5.1-1.5-.6-1.4-.4-1.5.9-.4 1.1.9 1.8 1 2.3.2.4-.6.3-.9-.2-.8-.4.2-.8-.1-.8-.7s.3-.9.6-.8.6-.3.6-1 .4-2.7.7-4.5c.4-1.9.3-3.1-.2-2.8s-.9 1.7-.9 3.2c0 1.4-.5 3-1.1 3.6-.8.8-.9.4-.5-1.2s.3-2.1-.6-1.6c-.6.4-.9 1.1-.6 1.6.3.4-.2 1.3-1 2-.7.6-1.1 1.9-.8 2.8.3 1.2.2 1.3-.4.4-.9-1.2-1.9.1-3.7 4.8-.3.8-.4.3-.2-1.3.2-1.5-.1-3-.5-3.3-.5-.3-.9-.2-1 .3-.4 5.2-.9 7.4-2.3 9.9-1.5 2.7-1.6 2.7-1.1.4.6-2.5.6-2.5-1.1-.5-1.3 1.6-1.5 1.7-1.1.3.3-1 .2-2-.4-2.4-.7-.4-.5-1.2.5-2.3 1.1-1.2 1.3-2 .5-2.8s-.8-1.3 0-1.8c.6-.3 1-.2.9.3-.2.6.2 1 .7 1 .6 0 .9-.4.7-1-.1-.5.2-.7.8-.3.9.6 1.5-.8 1-3-.1-.5.8-.1 1.9.9 1.2 1.1 2.1 1.4 2.1.8s-.4-1.4-1-1.7c-1-.6-.9-4 .3-5.1.3-.4.4.6.1 2.1-.4 2.4-.3 2.6 1 1.6.8-.7 1.3-2.1 1.1-3.1-.2-1.1.1-1.9.8-1.7 1.4.3 1.6-2.3.3-4.3-.8-1.3-.8-1.3.4-.2.8.7 1.6 1.7 1.6 2.2.3 2.3.5 2.4 1.4 1 .6-1 .4-2.1-.8-3.5-1.7-2-1.7-2 .6-.1 2.3 2 3.1 1 1-1.4-1-1.1-.9-1.1.6 0 1.8 1.4 1.9 1.3 1.3-.5-.7-1.9-.6-1.9.7-.2.8 1.1 1.7 1.4 2 .8.4-.5.2-1.2-.4-1.6-.5-.3-1-1.1-1-1.8 0-.6.7-.2 1.6.9 1.4 1.7 1.5 1.7 1 .1-.4-1.2-.2-1.6.5-1.1.8.4.9-.1.5-1.7l-.7-2.4 1.4 2.4c.9 1.4 1.7 1.9 2.1 1.3.3-.6.2-1.4-.4-1.7-.8-.5-.7-1.1.1-2.1.9-1.1 1.5-1.1 2.5-.3 1.6 1.3 1.9-.2.4-1.7-.7-.7-.6-1.1.5-1.1.8 0 1.3.2 1 .5-.2.3 0 1.2.5 2.2.7 1.3.3 2.3-1.4 3.9-1.2 1.2-2.6 1.8-3 1.4s-.4.1 0 1.2c.7 2 .6 2-1 0-1.4-1.6-1.6-1.6-1.2-.3.5 1.7-1.6 4.3-2.7 3.2-.3-.3-.4.5-.1 1.8l.5 2.3-1.1-2.4c-.6-1.3-1.3-2.1-1.6-1.8s0 1.5.6 2.7c.7 1.2.8 2 .3 1.7-.4-.3-.8 1.2-.8 3.4-.1 4 .8 4.5 1.1.6.2-2.4 3.3-8.8 3.5-7.2.1.5 0 1.4-.1 2-.1.5.2.7.6.3s1.4-.2 2.3.4c1.2.9 1.1.7-.2-.8-1.6-2-1.7-2.2 0-3.5 1.5-1.2 1.6-1.2 1 .3-.3 1-.2 2 .3 2.3s.7-.9.5-2.6l-.4-3.2 2.6 2.4c1.4 1.3 2.2 1.7 1.7.9-1.2-2.2-1.4-3.9-.3-4.6.5-.3 1 0 1 .5.3 2.6.4 3 1.1 3.7.7.6.5-1.7-.4-4.1-.1-.6.2-1.1.7-1.3.6-.1 1 .2 1 .7s.4 1.3.9 1.8c.5.4.6.3.2-.4-.3-.6-.2-1.4.3-1.8.6-.3.7-1.3.4-2.3-.6-1.5-.5-1.5 1-.3 1.4 1.1 1.5 1.7.5 3-1.1 1.4-1.1 1.4.4.3.9-.7 1.5-2.2 1.3-3.2-.2-1.1 0-2.2.6-2.5.8-.6 1.4 1.6 1 3.8-.1.5.3.6.8.3s.7-1.5.4-2.5 0-2.2.6-2.5c.6-.4 1.1-1.6 1.1-2.7s-.4-1.8-1-1.4c-.5.3-.7 1.3-.4 2.3.5 1.5.4 1.5-.6.2s-1.1-1.3-.7.2c.4 1.2.1 1.6-1.3 1.3-1-.2-2.4.3-3 1.1-.7.7-1.6 1.1-2.1.8s-.6.3-.3 1.3c.5 1.5.4 1.6-.5.3s-1.1-1.3-1.1 0c-.1 1.2-.3 1.1-1.1-.3-.6-1-.8-2.3-.5-3 .2-.7.5-.4.5.6.1 1 .5 1.6 1.1 1.2.5-.3.7-1.2.4-1.9-.3-.8 0-1.7.5-2.1.6-.3.8-1.1.5-1.7-.5-.7-.2-.8.5-.3.9.5 1 1 .2 1.8-.6.6-1.1 1.6-1.1 2.1.1.6.9.1 1.9-1.1 1.7-2 2-2.1 2.5-.6.4.9.9 1.3 1.2 1s.1-1.4-.5-2.6c-.8-1.3-.8-2.2-.1-2.6.6-.4.7-1.1.4-1.7-.5-.7-.2-.8.5-.3.9.5.9 1.1.3 1.7-1.2 1.2-.4 4 .9 3.2.5-.3.6-1 .3-1.6-.5-.7-.2-.8.6-.3 1 .6 1.2.4.7-.8-.3-.9-.2-1.9.4-2.2.5-.4.9-.3.8.2-.3 2 .2 3.4 1.1 2.8.5-.3.6-1.3.3-2.3-.5-1.4-.2-1.3 1.1.3 1.4 1.6 1.7 1.7 1.2.3-.3-1-.1-2 .5-2.3.5-.4.9-.3.8.2-.1.4-.1 1.5 0 2.3.1 1.3.3 1.3 1 .1.5-.8.7-2.1.4-3-.4-1.1 0-1 1.1.4 1.5 1.7 1.7 1.8 1.2.2-.3-1-.2-1.6.3-1.3 1.2.8 4.3-2.9 3.4-3.9-.5-.4-.2-.5.5-.1 1.1.6.9 1.3-.7 3-2.9 3.1-2.6 4.4.4 1.6 2.1-2 2.5-2.1 3.1-.7.3.9.1 2.4-.5 3.4-.8 1.4-1 1.5-1.1.3 0-1.3-.1-1.3-1 0s-1 1.3-1 0-.1-1.3-1 0-1 1.3-1 0c-.1-1.2-.2-1.2-1 .2-.6.9-1.9 1.5-2.9 1.3-2.5-.5-1.7 2.7 1.2 5.2 2.2 1.8 2.2 1.8.5-.3-2.9-3.3-2.1-4.7 1-1.6 1.5 1.5 1.9 1.8 1 .7-2.7-3.3-2.1-4.1.9-1.4 1.5 1.3 2.2 1.7 1.5.8-1-1.3-.9-1.9.5-3 1.5-1.2 1.6-1.2 1 .3-.3 1 .1 2.2 1.1 2.9 1.4 1.1 1.5 1.1.5 0-.9-1.1-.8-2.2.7-5.1 1.7-3.3 1.7-3.9.4-5.2s-1.3-1.5 0-1.5c.8 0 1.3.4 1 .8-.2.4 0 1 .6 1.4.9.5 1.5-1.5 1.1-3.8-.1-.5.3-.6.8-.2.6.3.8 1.2.5 2-.3.7-.1 2.2.5 3.3.7 1.4.7 1.9-.4 1.9-.8 0-1.1-.7-.8-1.6.5-1.2.3-1.3-.6-.5-.7.6-1.3 1.8-1.4 2.5-.2.8-.6 1.9-1 2.6-.4.6-.3 1.5.3 1.8.6.4.9.2.8-.3-.2-.6.2-1 .7-1 .6 0 .9.5.7 1.1s.5.4 1.6-.6c1-.9 2.2-1.4 2.6-1 .4.5.6.3.4-.4-.2-.6.2-1.1.7-1.2.6-.1 1.1.3 1.1.9.1.5.3 1.3.4 1.7.1.5.2 1.2.1 1.6-.1.5.3.6.9.2.8-.5.8-1.1.1-1.9-1.8-2.1.9-3.9 3-2 1.2 1.1 1.9 1.2 2.4.4s1.4-.6 2.8.7c2.2 1.8 2.2 1.8.4-.3-2.1-2.5-1.1-4 1.2-1.6.9 1 1.3 1.3.9.8-1.6-2.1-.7-2.8 1.2-1.1 1.6 1.5 1.8 2.1.7 3.4-1.1 1.4-1 1.4.5.3 1-.8 1.6-1.7 1.5-2-.1-.4.2-.7.8-.7.5 0 .9.4.7.8-.1.5.2.6.7.3 1.2-.8 3.3 1.8 2.3 2.9-.4.5-.1.5.6.1.7-.5 1.1-1.1.8-1.4-.7-.7 1.3-3.2 2.6-3.2.5 0 .6.6.1 1.2-1 1.7-1.4 4.2-.5 3.3.4-.4.7-1.1.7-1.6s.5-.9 1-.9c.6 0 1 .4 1 .9s.4 1.3.9 1.8q.75.6.3-.3c-.4-.7.1-1.8 1-2.5 1.5-1.2 1.6-1.2 1 .3-.4 1.1-.2 1.7.5 1.5.7-.1 1.2.3 1.3 1 0 .6.3 1.4.6 1.7s.5-.9.4-2.7c0-2-.5-3.1-1.3-2.9-.7.1-1.5-.5-1.9-1.4-.5-1.3-.7-1.3-1.4-.2-.7 1-.9 1-.9-.2 0-1.3-.1-1.3-1 0-.8 1.2-1 1.2-1 .1s-.3-1.1-1.5-.1c-1.1.9-1.5.9-1.5.1 0-.7-.8-1.1-1.7-.9-1.3.2-1.7-.3-1.5-1.6.2-1.1-.1-1.5-.8-1.1-.6.4-.9 1.3-.7 1.9.3.7-.1 1.3-.8 1.3s-1.1-.7-.8-1.6c.4-1.4.4-1.4-.6-.1-1.6 2.3-1.2-.1.5-3l1.5-2.5-.6 2.5c-.6 2.3-.5 2.4.9.7 1.4-1.8 1.4-1.8 2.1.2.3 1.2 1.1 2.1 1.6 2.1.6 0 .6-.7 0-1.8-.7-1.4-.6-1.9.4-1.9.7 0 1.1.7.8 1.6-.3 1.2-.1 1.1 1.1-.3.8-1 1.3-2.3.9-2.9-.3-.6-.1-.7.5-.3q1.2.75.3 2.4c-1 2-.3 4.5.9 3.7.5-.3.6-1.3.3-2.3-.4-1 .2-.7 1.5.8 1.2 1.4 2.1 2 2.2 1.4 0-.5-.5-1.5-1-2-.7-.7-.6-1.1.4-1.1s1.3.9 1 3.1c-.3 2.9-.2 3 1.1 1.2.8-1 1.2-2.4.8-3-.3-.6-.3-.8.2-.4.4.4 1.5.2 2.4-.4 1.2-1 1.2-.8-.1.8-2.5 2.8-2.2 4.1.3 1.8 1.1-1 2-1.4 1.9-.9-.5 2.1.1 3.6 1 3 .6-.4.7-1.2.4-1.8-.4-.7-.4-.9.1-.5.4.4 1.5.2 2.4-.5 1.4-1.1 1.5-1 .1.7-.8 1-1.4 2.8-1.4 4q.15 2.25-.3.3c-.3-.9-.8-1.5-1.3-1.2s-.7 1.3-.4 2.3c.5 1.4.4 1.5-.5.2s-1.1-1.3-1.2 0c0 1-.3.8-.9-.5-.6-1.5-.8-1.1-.7 1.7.1 2 .4 3.4.7 3.1.3-.2.5-.9.5-1.4s.5-.8 1-.7c.6.2.9.6.8.9s.4.6 1.2.6 1.4-.3 1.3-.6c-.2-2.2.4-2.2 1.6-.1.9 1.8 1 2.9.2 3.9-.8 1.1-.8 1.3.2.7.7-.4 2.3-2.5 3.6-4.5 2.6-4.1 5.5-5.1 5.1-1.7-.7 6.5-.6 6.3-1.6 3.6-.8-2.3-.8-2.2-.4.5.8 4.9 1.1 5.5 2.5 6.8 1 1 1.1.9.4-.3-.5-.8-1-2.3-1.1-3.4-.3-1.6-.1-1.7 1.2-.6.8.7 1.2 1.7.8 2.3q-.45.9.6.3c.8-.5 1 0 .7 1.8-.3 1.4-.1 2.8.3 3.1.5.2.8-.3.8-1.3 0-3.3.3-4.3 1.2-3.8.5.3.7 1.9.6 3.6-.2 2.7.8 3.5 1.1.9.1-.5.2-1 .4-1.2.8-1 .6-3.6-.2-3.1-.7.5-.8.2-.3-.6.6-.9.4-1.1-.5-.5s-1.1.4-.5-.5c.5-.8.4-1.1-.3-.6-.6.3-1.3.2-1.7-.4s-1.2-.7-1.8-.3c-.8.4-.7.1.1-.9s.9-1.9.3-2.2c-.5-.4-1.1-.1-1.4.6-.2.7-.2.4 0-.7.3-1.1.5-2.5.5-3.2.1-.7.5-1 .9-.7.5.2.5 1.2.2 2.2-.6 1.4-.4 1.5.9.4 1.2-1 1.8-1 2.7.2.8 1 .9 1.6.1 2.1-.6.3-.7 1.1-.4 1.7.4.6 1.2.1 2-1.3.7-1.3 1.3-2 1.3-1.4.1.5-.3 1.7-.8 2.5-.6.8-.7 1.8-.4 2.4.4.5 1 .1 1.4-1 .7-1.7.8-1.7.8-.1.1 1 .6 1.5 1.1 1.2.6-.4.7-1.1.4-1.7-.4-.7-.2-.8.5-.4.9.6.9 1.1 0 2.2-.6.8-.9 2.3-.6 3.4s.1 1.8-.4 1.4c-.5-.3-.9-1.4-.9-2.5s-.4-1.8-.8-1.5c-.5.3-.8 1.5-.7 2.8s-.3 3-.9 3.8c-.5.8-.6 1.2-.2.8 1.3-1.1 3.7 1.2 2.9 2.6q-.45.9.3.3c.5-.5 1-1.3 1-1.8.3-2.2.5-2.3 1.4-.9.6 1 .4 2.1-.8 3.5-1.7 2-1.7 2 .5.2 1.4-1.2 2.3-1.5 2.8-.8.3.6.3 1.1-.1 1.1s.2 1 1.4 2.3c1.6 1.7 1.9 2.6 1.1 3.4s-.8 1.3 0 1.8c.7.4 1 .1.9-.7-.2-.7.2-1.2.7-1.1.6.1 1.1-1.3 1.2-3 .1-3 .1-3-.7-.7-.8 2.6-.9 2.6-1.5-.3-.2-.9.1-1.7.5-1.7.5 0-.3-1.2-1.8-2.7s-3.1-2.7-3.5-2.5c-.5.1-.5-.3-.1-.9.4-.7.3-.9-.2-.6-1.2.7-1.2-3.8-.1-4.9.4-.5.5 0 .2 1.1-.7 2-.6 2 1 0 1.1-1.2 1.5-1.4 1.3-.5-.3.8.3 2.7 1.4 4.2 1.1 1.6 1.6 3.2 1.3 3.8-.3.5-.2 1 .3 1 1.4 0 2.3-2.8 1.2-3.5-.6-.3-1.5-1.6-2.1-2.8-1-2.2-1-2.2.8.1 1.5 1.9 2.1 2 3.3 1 1.2-1.1 1.2-1.1.2.3-1.5 2.1-.3 3.3 1.6 1.6 1.3-1 1.4-.9.7.3-1.2 2-1.7 5.1-.7 4.7.8-.2 1.1 1.2.6 2.8-.1.5-.5 1.9-.8 3s-.4.5-.2-1.3c.1-1.8-.1-3.5-.6-3.8s-.8 1.5-.7 3.9c.2 2.6.7 4.5 1.3 4.4s1.1.7 1.1 1.8c.1 2.7 1.4 4.7 2.6 3.9.6-.3.8.5.5 2-.3 1.4 0 2.8.5 3.2.5.3.6 1.1.2 1.7-.4.7 0 .6 1-.2 1.5-1.2 1.8-1 2.6 1 .5 1.4.5 3.1-.1 4.2-.6 1.2-.5 1.7.4 1.5.6-.2 1.2.7 1.3 1.9 0 1.2.3 2.5.7 2.9s.2 1.4-.4 2.3c-.9 1.1-.6 1 .9-.2 1.2-1 2.4-1.4 2.7-.9.3.6-.1 1.3-1 1.6-1.5.6-1.5.8 0 2.4 1.3 1.5 1.3 2.1.3 3.2-.9 1.1-.7 1.1.7 0 1.8-1.4 1.9-1.3 1.3.3-.4 1-.7 2.1-.7 2.3 0 .3-.5.2-1.1-.2-.6-.3-.4.5.6 1.9 1 1.7 1.3 2.7.6 3.2-1.1.6-1.2.5-1.5-1.4 0-.5-.4-1.2-.8-1.6-.8-.8-.5 1.5.3 3 .4.5.5 1.8.4 2.8-.2.9.1 1.5.6 1.1.5-.3.7-.9.4-1.4-.3-.4.3-1.4 1.2-2.1 1.4-1.2 1.5-1.1.8 1.1-.9 2.6-.9 4.3-.2 7.5.2 1.1-.1 2.7-.9 3.5-.7.8-1.4 1.9-1.6 2.5-.2.5-.7.9-1.2.7s-.4.3.3 1.2c.9 1 .9 1.6.1 2.1s-.7 1.2.2 2.3c1.6 1.9 1.7 3.1.5 4.9-.4.6-.3 1.4.3 1.8.5.3 1 1.3 1 2.2 0 1.1-.5.9-1.9-.8-1.5-1.9-1.7-2.7-.8-3.9 1-1.3 1-1.3-.5-.1-1.7 1.2-1.7 1.5.2 3.8 2.6 3.4 2.5 5.5-.1 2.3-1.8-2.3-1.9-2.3-.9-.3 1 2.1.7 2.7-1.1 2.5-.3-.1-.5 1.7-.4 3.9.1 2.1-.4 4.4-1.1 5s-1.1 2.4-.9 4.2c.4 2.8.3 3-.9 1.4s-1.5-1.5-2.7 1.5c-.8 1.8-1.2 3.9-1.1 4.7.2.7-.1 1-.6.7s-1.5.1-2.2.9c-1.1 1.4-1.5 1.4-3.4-.2-2-1.7-2-1.7.1.7 1.2 1.4 2.3 3.4 2.6 4.5.2 1.1.3.8.2-.8-.1-1.5.4-3.2 1.1-3.8.9-.8 1.1-.1.7 3.2-.4 2.7-.2 4 .4 3.6s.9-1.9.7-3.4c-.4-2.7-.3-2.7.4-.3.4 1.4 1.1 2 1.4 1.4.4-.5.3-1.6-.3-2.4-1.2-2.1-1.1-3.8.2-2 .8 1.2.9.9.4-1q-.6-2.4.3-1.2c.6.9 1.4.1 2.8-3 1-2.3 1.9-4.9 1.9-5.8.1-.8.6-1.4 1.3-1.2.7.1 1.2-.2 1.2-.8 0-.5-.4-1-1-1-.5 0-.1-.9 1-2s1.7-2.7 1.4-3.7c-.5-1.5-.4-1.6.6-.3s1.1 1.3.6-.2c-.3-1 .1-3.2.8-5s1.2-4 1.1-4.8.2-2 .7-2.6c.4-.6.7-2.8.7-5-.1-2.1.1-6.8.5-10.3.3-3.7.1-7.2-.5-8.4-.7-1.2-.7-1.7-.1-1.3 1.1.6 0-5.2-1.3-7.4-.5-.7-.4-1.1.1-.8.5.4.9-.7 1-2.3.1-1.5-.3-2.6-.7-2.3-.5.3-.9 1.4-.9 2.5 0 1.6-.2 1.8-1.4.7s-1.2-1.4 0-2.1c.8-.5 1.2-1.2.9-1.7s-.1-1.1.4-1.5c.6-.3.7-1.3.4-2.3-.6-1.4-.8-1.3-1.5.8-.6 2-.7 1.9-.3-.8.3-2 .1-3.1-.5-2.7-.6.3-1 .1-1-.4 0-.6.5-1.1 1-1.1.6 0 1-.4 1-.9 0-.6-.8-.8-1.9-.6-1.5.3-1.8-.1-1.5-1.8.4-2.1.4-2.1-.6-.2s-1 1.9-.6-.3c.2-1.2 0-2-.4-1.7-.5.3-.7-.4-.5-1.5.3-1.3 0-1.8-.7-1.4-.7.5-.8.2-.3-.6q.75-1.35-.3-.6c-.8.5-1 .1-.6-1.1.5-1.5.4-1.6-.6-.3s-1.1 1.2-.6-.3c.4-1.2.2-1.6-.6-1.1-.6.4-.9.3-.6-.2s.2-1.8-.3-2.9c-.8-1.9-.9-1.9-.6.1.2 1.9-.2 2.4-1.8 2.4-.2 0 0-1.2.5-2.6.7-1.8.7-2.3-.2-1.8q-1.05.75-.3-.6c.5-.8.4-1.1-.3-.7-1.4.9-.3-3.2 1.5-5.8l1.4-2-.3 2c-.2 1.3.2 1.9 1.1 1.7 1-.2 1.2.1.4 1-1.1 1.5-.8 6.7.6 8.1.6.6.8-.6.5-3.4-.2-2.9-.1-3.9.5-2.9.6.8.7 1.8.5 2.2-.8 1.3.7 4.9 1.7 4.2.6-.3.5-1.2-.3-2.2-1.1-1.5-1.1-1.5.3-.5.9.7 2 .9 2.5.5s-.1.5-1.3 1.9c-2.8 3.1-3 4.9-.4 2.5 1.6-1.4 1.9-1.5 1.7-.3-.1.8-.7 2.1-1.4 2.9-2 2.4-.1 2.9 2 .5 1.1-1.2 1.7-1.7 1.4-1-.4.6-.2 1.4.3 1.8.6.3.7 1.3.4 2.2-.5 1.2-.3 1.4.8.8 1.1-.7 1.2-.6.4.6-1.7 2.4-.3 9.5 1.7 8.3.6-.4.6-1-.1-1.7-.6-.6-1.1-1.6-1.1-2.2 0-.5.5-.2 1.1.8s1.6 1.4 2.2 1c.7-.3.3.4-.8 1.6-1.1 1.3-1.8 2.6-1.7 3 .2.3.9 1.5 1.5 2.6s1.2 2.8 1.3 3.7c.1 1 .2 2.3.3 2.9 0 .5.6.7 1.1.4.6-.4.7-1.1.4-1.7-.4-.7-.2-.8.5-.4.8.6.9 1.2.2 2-.7.9-.7 1.6 0 2.3s.5 1.4-.5 2.2c-1.7 1.4-1 4.4.8 3.4.6-.3.1.5-1.1 1.9-3.3 3.5-2.8 5.4.5 2 1.5-1.5 2.1-2.1 1.4-1.2-.6.9-.9 2-.5 2.5.5.4.2.5-.6 0q-1.35-.75-.9.6c.3.8 1.1 1.3 1.8 1.1 1-.2 1.1 0 .2 1.1-.7.8-.8 1.8-.4 2.2.4.5.1.4-.7 0-1.1-.6-1.3-.4-.8.9.4.9.3 1.5-.1 1.2-1-.6-1 7.5 0 9 .4.6.1 1.1-.7 1.1-.9 0-1.2-1.1-1-3.4.4-4.1-1.1-3.5-1.7.7-.3 2.2 0 3.4 1.2 4 1 .5 2.1.6 2.5.2.5-.4.4 0-.1.8-.8 1.4-1 2-1.7 5.5-.2.8-.6 1.7-1 2.1-.3.4-.4-.3-.2-1.5.3-1.1.7-3 1-4.2.2-1.3 0-1.9-.8-1.6-.7.2-1.1 1.3-.9 2.3.2 1.6.1 1.7-.8.4-.7-1.1-.9-.6-.6 2 .3 1.9.5 3.9.5 4.3.1.5.5.6 1 .3 1.1-.7.8 2.1-.4 3.1-.4.4-.6.3-.2-.2.3-.6-.4-2.2-1.5-3.5-1.6-2-1.8-2.1-1.2-.5.4 1.1.8 3.1.8 4.5.1 1.4.6 3.2 1.1 4q.9 1.65-1.2-.3c-1.9-1.6-3.3-1.4-3.3.5 0 .5.4.7.9.3.5-.3 1.3 0 1.7.6q.6 1.05-.3.6c-1.2-.8-4.8 5.9-4.7 8.5.1.9-.1 1.6-.5 1.5-.3-.1-.6.1-.6.5s-1.7 2.4-3.8 4.5c-2.7 2.8-3.4 4.2-2.6 5s.8 1.3 0 1.8c-.6.3-1 .3-.9-.2.2-.4-.1-.9-.7-1.1-.5-.1-1 .7-1 1.7 0 1.1-.4 2.3-.9 2.8q-.75.6-.3-.3c.4-.7 0-1.7-.8-2.4-1.3-1.1-1.5-1-1.2.6.1 1.1.6 2.6 1.1 3.4.7 1.2.6 1.3-.4.3-1.1-1-1.7-1-3.1.3-1.6 1.5-1.7 1.4-1.2-1.8.6-4 1.3-5 1.3-1.9 0 1.2.4 1.9 1 1.6.6-.4.5-1.7-.5-3.5-1.3-2.5-1.3-2.9.1-4.1 1.3-1.1 1.4-.9.8 1.7-.4 1.6-.4 2.6 0 2.3 1.5-1.4 1.4-6.8-.2-8-1.4-1.1-1.5-1.1-.5.1 1 1.1.9 1.7-.4 3.2-1.6 1.7-1.7 1.7-3.7.1-2.1-1.8-2.1-1.8-.3.3 1.4 1.7 1.5 2.3.4 3.2-2.9 2.4-1 5.9 9.4 17.8 15.7 17.8 46.3 58.4 48.6 64.2.5 1.1 2.8 1.2 10.7.7 55.1-3.5 107-15.8 154.7-36.7l13.8-6-1.5-4.2c-.9-2.2-4.9-10.9-8.9-19.1-15-30.9-39.5-62.7-69.4-90.3-70.4-64.9-163.3-108.5-250.5-117.7-13-1.3-44.8-1.8-54.6-.8m89.5 45.1c-.2 1 .1 2.5.6 3.3.7 1.2.9 1.2 1-.1.1-.8 0-2-.1-2.5-.1-.6.2-.7.6-.2.4.4 1.7-.1 2.8-1 2.1-1.8 2.1-1.8.3.3-.9 1.1-1.4 2.4-1.1 2.7.4.4 1.3-.1 2.1-1.1 1.2-1.5 1.2-1.3.2 1-1 2.2-.9 3.1.2 4.5 1.3 1.6 1.2 1.7-.3.4-1-.7-1.8-1.9-1.8-2.7 0-.7-.5-1.6-1.1-2-.8-.4-.9.1-.5 1.7.3 1.3.3 1.8 0 1.1-.4-.9-1.2-.4-2.6 1.3-1.9 2.4-2.2 2.5-3.8 1-1.3-1.2-2-1.3-2.5-.5s-1 .9-1.8.1-1.7-.5-3.2.9c-1.9 1.8-2.4 1.9-3.4.6-1-1.2-.9-1.4.6-1.1 2.8.4 3.3-.3 2.3-3.1-.7-1.7-.7-2.3 0-1.9.6.3 1 1.3 1 2.1s.5 1.2 1.1.9c.7-.5.5-1.4-.5-2.9-1.2-1.9-1.2-2.3-.1-2.3.8 0 1.4.3 1.3.6-.2 2 .3 3.1 1.2 2.6.5-.3.6-1.3.3-2.3-.5-1.4-.2-1.3 1.1.3 1.3 1.4 1.6 1.5 1.3.4-.3-.9.1-1.6.8-1.6.8 0 1.1.7.7 1.6-.5 1.4-.3 1.4 1.1.3.9-.8 1.6-1.7 1.5-2-.1-1.2.2-2.2.6-2.2.3 0 .3.8.1 1.8m35.3 6.9c-.3 1.6 1.4 4.3 2.4 3.7.5-.3.4-1.3-.4-2.2-1.1-1.5-1.1-1.5.3-.5 1.2 1 1.8 1 2.9 0 .8-.6.6-.1-.5 1.1-1.1 1.3-2.5 3.6-3.1 5l-1.2 2.7-1.1-2.8c-.9-2.2-.9-4.9-.2-7.5.2-.6 1.1-.1.9.5m-21.3 1.5c.4.3.2.9-.3 1.2s-1.5-.1-2.1-.8c-1-1.1-.9-1.4.3-1.2.9.1 1.8.5 2.1.8m7.5.4c0 .8-1.9 1.3-2.4.6-.3-.5.1-.9.9-.9s1.5.2 1.5.3m-43 1c0 .8-1.9 1.3-2.4.6-.3-.5.1-.9.9-.9s1.5.2 1.5.3m-17.3 6.9c0 .8-.4 1.2-.9.9s-.6-1-.3-1.5c.9-1.3 1.2-1.1 1.2.6m-8 4.3c-1 1-1.4 2.2-1 2.7.5.4.2.5-.5.1-1.1-.6-1-1.2.4-2.7.9-1 1.9-1.9 2.2-1.9s-.2.8-1.1 1.8m101.9 6.9c-1 1.1-1.9.7-2.2-1-.2-1.5 0-1.6 1.2-.6.8.6 1.2 1.4 1 1.6m6 6c.1.7-.2 1.1-.7.7-.5-.3-.7-.9-.4-1.4.3-.4-.2-1.3-1-2s-1.5-1.7-1.5-2.3c0-1.4 3.4 3.3 3.6 5m-130.9 13.2c-.8.9-1.7 2.5-2.1 3.5-.3 1-.9 1.7-1.1 1.4-.9-.9 1.8-6.5 3.2-6.5 1.1 0 1.1.3 0 1.6m-9.6.8c1.3 1.6 1.2 1.7-.3.4-1-.7-1.8-1.5-1.8-1.7 0-.8.8-.3 2.1 1.3m153.3 3.2c1.7 1.9 1.7 1.9 0 1.7-.9-.2-1.8-1-2-1.9-.3-2.1-.1-2.1 2 .2m5.4 11.3c.1 2.4-.1 3.7-.7 3.4-.5-.4-.8-1.5-.6-2.6s0-2.2-.6-2.5c-1.3-.9-1.1-2.2.4-2.2.7 0 1.3 1.6 1.5 3.9m9.3 6.5c1.3 1.6 1.2 1.7-.3.4-1-.7-1.8-1.5-1.8-1.7 0-.8.8-.3 2.1 1.3m-5.1 9c0 2.1-.3 2.4-.9 1.4-.5-.8-.7-2-.4-2.8.8-2.1 1.3-1.5 1.3 1.4m9 1.7c0 .2-.8 1-1.7 1.7-1.6 1.3-1.7 1.2-.4-.4s2.1-2.1 2.1-1.3m-8.2 7.3c0 2.6-.3 3.2-.9 2.2-.7-1.3-.2-5.9.6-5.9.2 0 .3 1.7.3 3.7m-.8 8.7c-.5 1.4-.6 4-.3 5.9.3 2.2.1 3.7-.7 4.2s-1.1.4-.7-.2 0-1.6-.8-2.3c-1.2-1-1.3-1.6-.4-2.6.6-.8.8-1.4.4-1.4s-.2-.7.5-1.5.9-1.5.5-1.5-.2-.7.5-1.5c1.8-2.1 2.1-1.9 1 .9m-1.3 13.1c0 .8-.4 1.2-.9.9s-.6-1-.3-1.5c.9-1.3 1.2-1.1 1.2.6m-3.2 9.2c-.2 1.6-.4 3.1-.4 3.5-.1.5-.5.8-.9.8-1.1 0-.9-4 .1-5.8q1.8-2.85 1.2 1.5m3.5 10.7c0 .2-.8 1-1.7 1.7-1.6 1.3-1.7 1.2-.4-.4s2.1-2.1 2.1-1.3m-9.5 4.8c-.3.8-1.2 1.5-1.9 1.5-1.1 0-1.2-.5-.3-2.4 1.1-2.5 3.2-1.7 2.2.9m3.5 7.1c0 .2-1.5 1.6-3.2 3.3l-3.3 2.9 2.9-3.3c2.8-3 3.6-3.7 3.6-2.9m-16.6 8.4c-.4 1.5-.7 3.3-.7 4s-.3 1-.7.8c-.8-.5-.6-4.8.4-6.3 1.2-2 1.7-1.3 1 1.5"/><path d="M642.1 684c-.6 1.6-1 1.9-1 .8-.1-1.7-1.6-1.9-3.9-.5-.7.5-1 1.3-.6 1.8q.6.9 1.8 0c.7-.6 1.6-.8 2-.4 1.1 1.1 3.5 1.2 4.2.2.3-.5.1-1.7-.5-2.6-.9-1.6-1.1-1.6-2 .7M679 690c0 .8.5 2.2 1 3 .9 1.3 1 1.3 1 0 0-.8-.5-2.2-1-3-.9-1.3-1-1.3-1 0M624.1 685.3c-.8 1-.7 1.4.4 1.4.8 0 1.5-.6 1.5-1.4 0-.7-.2-1.3-.4-1.3s-.9.6-1.5 1.3M659.5 685c-.3.5-.1 1 .4 1 .6 0 1.1-.5 1.1-1 0-.6-.2-1-.4-1-.3 0-.8.4-1.1 1M671.5 687c-.4.6-1.2.7-1.8.4-.7-.4-.9-.3-.4.1.4.5 1.6 1 2.7 1.2 1.4.2 1.8-.2 1.4-1.2-.7-1.8-1.1-1.9-1.9-.5M612.6 689.7c-.3.3-.6 1.6-.6 2.8 0 1.1-.6 2.7-1.2 3.5-1.1 1.2-1 1.2.5.1q2.4-1.8 1.8 1.2c-.1.5.4.5 1 .2.8-.5.8-1 0-1.8-.6-.6-1-2.2-1-3.7.2-2.2.2-2.2.6-.3.2 1.2 1.2 2.7 2.1 3.4 1.4 1.1 1.5 1.1.5-.1-.7-.8-1.3-2.2-1.3-3.1 0-2-1.4-3.2-2.4-2.2M683.8 693.7c-.6 1.5-1.9 3.7-2.7 4.8-1.5 1.8-1.5 1.9 0 .8 1.2-1 1.8-1 2.9 0 1.2 1 1.2.9.3-.3-1.3-1.8.2-6.5 1.7-5.5.5.3 1 .2 1-.4 0-2.4-2.1-2-3.2.6M602.9 694.7c-1.3 1.6-1.2 1.7.4.4s2.1-2.1 1.3-2.1c-.2 0-1 .8-1.7 1.7M691.9 694.2c-.6 2.7-.5 3.9.4 4.5.7.3.9.3.5-.2-.4-.4-.3-1.4.3-2.1.7-.8.7-1.4-.1-1.9-.5-.3-1-.5-1.1-.3M1087.5 703.2c7.7 28.5 7.4 56-1.1 80-4.1 11.6-12.9 28.5-20.2 38.8-9 12.9-32.6 36.3-47.7 47.5-49 36.4-117.2 63.4-192 75.9-19 3.2-36.8 5.4-50.7 6.2-5.9.4-11.5 1.2-12.3 1.8-2.1 1.6-13.3 24.9-20.2 42.1-12.2 30.1-21.7 63.4-26.7 93.2-2.6 15.8-5.3 39-4.5 39.7 3.4 3.5 57.9 4.3 78.4 1.3 73.8-11 147.9-44.1 211.5-94.6 9.5-7.5 12.2-9.8 23.5-20.1 55-50.1 90.5-111.1 99-170.1 2-13.9 2-40.9 0-54.8-4.2-28.2-14.9-57.1-30.8-82.6-8.7-14-8.9-14.2-6.2-4.3M675.6 697.2c.3.5 1 .6 1.5.3 1.3-.9 1.1-1.2-.6-1.2-.8 0-1.2.4-.9.9M592.6 697.9c-.4.5-.2 1.2.4 1.6s.7 1.2.3 1.8c-.3.7.3.3 1.5-.7 1.2-1.1 2.2-2.1 2.2-2.4s-.3-.2-.7.1c-.3.4-1.2.2-1.9-.4q-1.2-.9-1.8 0M702 704.3c0 .5.9 2 2 3.4s2 2.2 2 1.7c-.1-1.2-3.9-6.1-4-5.1M708.6 710.5c-.3.8-.1 1.7.3 2 .5.3 1.1-.2 1.5-1 .3-.8.1-1.7-.3-2-.5-.3-1.1.2-1.5 1M579 712.5c-.7.8-.9 1.5-.5 1.5.5 0 0 1-1.1 2.2l-1.9 2.3 2.3-1.9c1.2-1.1 2-2.1 1.7-2.4s0-1.1.6-1.9c.6-.7.9-1.3.6-1.3-.2 0-1 .7-1.7 1.5M702.5 716c1 1.1 2 2 2.3 2s-.3-.9-1.3-2-2-2-2.3-2 .3.9 1.3 2M714 717.8c0 1.1.5 2.4 1 2.7.6.4.9-.2.7-1.4-.4-2.9-1.7-3.9-1.7-1.3M569.1 724.4c-1.4 1.5-1.9 2.6-1.2 3.1.6.3 1.1 0 1.1-.7 0-1 .2-1 .9 0 .6 1 1 .7 1.5-1.3.9-3.7.4-3.9-2.3-1.1M708 722.3c0 .2.6 1 1.4 1.6 1.1.9 1.6.9 2.2-.1.4-.7.4-1-.1-.6-.4.4-1.4.3-2.2-.3-.7-.6-1.3-.9-1.3-.6M577.6 726.7c-.6 1.4-.5 1.5.5.6.7-.7 1-1.5.7-1.8s-.9.2-1.2 1.2M711.5 728c1 1.1 2 2 2.3 2s-.3-.9-1.3-2-2-2-2.3-2 .3.9 1.3 2M723.7 732.3c-.2.6-.1 2.1.4 3.2.8 2.2.9 2.1 1.3-1.3.3-2.5-.9-3.9-1.7-1.9M717.9 735.2c-.5 1.8-.6 3.8-.1 3.4.7-.8 1.2-3.6.6-3.6-.2 0-.4.1-.5.2M729.6 754c.4 3 .7 7.1.8 9.2.1 2.7.4 3.4 1.3 2.6.9-.7 1-1.6.3-2.8-.7-1.3-.5-2.1.5-3 1.5-1.2 1.1-3.5-.4-2.6-.4.3-.8 0-.9-.7s-.3-2.4-.5-3.9c-.1-1.5-.6-3-1-3.5-.5-.4-.5 1.7-.1 4.7M721 750.4c0 .2.8 1 1.8 1.7 1.5 1.3 1.6 1.2.3-.4s-2.1-2.1-2.1-1.3M444.9 752.1c-23.8 3.5-43.2 12.6-59.2 27.8-18.7 17.8-31 40.2-36.7 67.1-10.6 49.8-11.6 103.4-2.9 155 18.5 109.3 84 210.1 176.4 271.7 12.7 8.4 12.7 8.4 5.5.7-29.7-31.7-64.5-87.4-81.3-129.9-17-43.2-27.1-88.7-30.8-139.4-1.5-20.5-.6-68.3 1.5-87.1 5.9-50.6 17.5-92.4 35.1-127 6.3-12.2 15.4-26.4 21.5-33.2 2.3-2.6 3.9-5.2 3.5-5.8-.7-1.2-24.3-1.2-32.6.1M724.9 769.7c0 .5-.2 1.6-.4 2.6-.2 1.1-.1 1.6.3 1.3.8-.8 1.4-4.6.7-4.6-.3 0-.5.3-.6.7M730.3 772.4c0 1.1-.4 3.4-.8 5.1-.8 2.7-.7 2.9.8 1.6.9-.7 1.4-1.7 1.1-2.3-.3-.5.2-2 1-3.3.9-1.4 1.5-2.5 1.4-2.6-2.7-.7-3.4-.4-3.5 1.5M728.3 787.5c0 .8.4 1.2.9.9s.6-1 .3-1.5c-.9-1.3-1.2-1.1-1.2.6M724.4 801.7c-1.3 2-1.3 2.5-.2 1.6.8-.7 1.7-1.1 1.9-.8.3.2.5-.5.6-1.5.2-2.6-.1-2.5-2.3.7M717.1 803.3c-1.3 2.1-1.2 2.1.5.5 1-1 1.6-2 1.3-2.2-.3-.3-1.1.5-1.8 1.7M713.5 806.9c-.3.5-.2 1.2.3 1.5s.9-.1.9-.9c0-1.7-.3-1.9-1.2-.6M721.6 807.1c.2.5-.9 3.5-2.6 6.8-3.4 6.8-3.7 7.9-1.5 6.1.9-.7 1.3-1.5 1-1.8s.2-1.4 1.2-2.4c.9-1 1.3-1.8 1-1.8-.4 0 .2-1.6 1.3-3.5 2.4-4.2 2.4-4.2.5-4.2-.8 0-1.2.4-.9.8M712.3 809.7c.4.3.1 1.3-.6 2.2-1.1 1.4-1 1.4.5.2 1.6-1.2 1.6-3.1.1-3.1-.4 0-.3.3 0 .7M709.3 815.7c0 .9.4 1 1.4.2.7-.6 1.3-1.2 1.3-1.4 0-.1-.6-.2-1.3-.2-.8 0-1.4.6-1.4 1.4"/><path d="M583.6 823.2c.3.4 0 .8-.5.8-1.7 0-7.2 8.2-6.6 9.7.2.8.1 1.2-.4.9-.5-.4-3.2 3.9-6 9.3-19.7 38.3-31.9 81.8-38.3 136.6-2.1 17.4-1.7 81.2.5 99.5 14.5 119.2 64.9 205.5 141.2 242.1 28.2 13.5 58 19.9 92.5 19.9 7.6 0 15.2-.3 17-.6 2.8-.6 1.8-1.1-8.2-4-25.1-7.2-41.2-16.4-57.8-33.3-42.9-43.1-58.4-114.5-45-205.9 7.1-48.2 24.5-104.4 46.6-151 3.5-7.4 6.4-14 6.4-14.6 0-3.2-22.4-34.1-37.7-52.1-17.5-20.5-20-23-21.7-21.6-1.2 1-1.4.9-1-.6.4-1.3-.3-2.3-2-3.2-1.4-.8-2.3-1.8-2-2.2.2-.4-.5-.6-1.7-.4-1.5.3-1.9 0-1.5-1 .3-.8.1-1.7-.5-2-.5-.4-.9-.3-.8.2.3 2-.2 3.4-1 2.8-.6-.3-.8-1.4-.6-2.5s0-2.2-.4-2.5c-.5-.2-.8.5-.7 1.8.1 1.7-.4 2.1-1.9 1.9s-1.6 0-.7.6c1.1.7 1.1 1-.2 1.5-1.6.6-1.9 0-1.9-3.6 0-1-.2-1.5-.6-1.2-.3.4-.6 1.1-.6 1.6s-.4.9-1 .8c-.5-.1-.9-.6-.7-1.2s-.4-.5-1.2.3c-.9.7-1.6 1.9-1.6 2.7s-.5 1.1-1 .8c-.6-.4-.8-1-.5-1.5s.1-1.1-.4-1.5c-.6-.3-.8.3-.6 1.5.2 1.1 0 2-.6 2-.5 0-1-.9-1-2-.2-3.2-.4-3.8-1-4.5-.4-.3-.5 1-.2 3.1.3 2.5.2 3.4-.6 3-.6-.4-.8-1.3-.4-1.9.4-.7 0-.6-1 .2-1.4 1.1-1.8 1.1-2.3-.2-.3-.9-.3-2 0-2.5.3-.6-.2-1.6-1.2-2.3-1.3-1-1.4-1-.6 0 1.3 1.4.7 5.4-.7 4.5-.5-.3-.6-1-.3-1.6.4-.7.2-.8-.5-.4-.6.4-.9 1.1-.6 1.6s.1 1.1-.5 1.5c-1.3.8-1.3-2.8 0-4.1.7-.7.6-1.1-.5-1.1-.8 0-1.3.2-1.1.4.2.3.1 1.7-.4 3.2-.7 2.7-.6 2.8 2.1 2.6 1.6-.1 2.7.1 2.4.5-.2.4 1.3.6 3.5.5l3.9-.2-2 2.9c-2.2 3-3 3.5-2.7 1.5.2-.6-.2-1.1-.9-1-.8.2-1-.4-.6-1.5.6-1.5.5-1.5-1-.3-.9.7-1.4 1.8-1 2.4q.45.9-.6.3c-.6-.4-.9-1.1-.6-1.6.3-.4-.3-1.4-1.2-2.1-1.5-1.2-1.6-1.2-1 .3.4 1.1.2 1.7-.6 1.5-.7-.1-1 .5-.9 1.3.2.8 0 1.1-.5.7-.4-.5-.8-1.3-.8-1.8s-.4-.8-1-.7c-.5.2-.9.7-.7 1.1.1.5-.3.5-.9.2-.8-.5-.8-1 0-1.8 2-2 1.2-3.1-.9-1.2-1.1 1-1.7 2.2-1.3 2.8s.1.7-.6.3c-.9-.6-.9-1.2.2-2.4.8-1 1.2-2.4 1-3.2-.4-1.3-.3-1.3.6 0 1 1.3 1.1 1.3 1.1 0s.1-1.3 1 0 1 1.3 1 0c0-1.2.2-1.2.9-.1.6.9.9.5.9-1.3 0-2.4-.2-2.5-1.4-.9-1.3 1.6-1.4 1.5-1-1.1.3-1.6.2-2.5-.2-2.1-.4.3-.8 1.1-.8 1.6-.4 3-.6 3.2-1.3 1.4-.5-1.2-.4-2.6.2-3.5.6-.8.7-1.2.3-.8-.5.4-1.6.2-2.5-.5-1.4-1-1.4-1-.5.3 1.8 2.3.9 8-1.7 10.4-1.2 1.1-1.8 1.4-1.1.5s.9-1.9.5-2.3c-.4-.3-.8-1.7-1-2.9-.2-1.7-.1-1.9.7-.7.9 1.3 1 1.3 1 0s.1-1.3 1 0c.5.8 1 1 1 .5 0-.6-.6-1.9-1.4-3-.7-1.1-1.2-2.8-1-3.8.1-1.1-.1-1.6-.4-1.2-.4.4-.7 1.1-.7 1.7s-.8 1.2-1.7 1.4c-1 .1-1.8-.3-1.8-.9s-.7-.2-1.5.9c-1.5 1.8-1.5 1.8-.9-.7.3-1.5.1-3-.5-3.4-.6-.3-.8-1.1-.5-1.7.4-.7.2-.8-.5-.4-.8.5-.9 1.2-.2 1.9.5.7.8 2.8.7 4.7-.2 1.9.2 4.2.8 5 .7 1 .4.9-1-.2-1.6-1.4-2.3-1.5-3.4-.5-1 1-1.1.9-.4-.3.4-.8.8-2.6.7-4-.1-1.9 0-2 .4-.5.3 1.1.9 2.4 1.3 2.8 1.3 1.4.5-4.7-.9-6.8-.9-1.5-1.1-1.6-.7-.3.3 1 .1 2-.4 2.3-.8.5-1.4-2-1.2-4.6.1-.3-.6-.6-1.3-.6-1 0-1.2.4-.5 1.2 1.9 2.3 2 9.3.2 10.7-1.5 1.1-1.5 1.1-.5-.3.7-.9 1-1.9.6-2.2-.3-.4-1.3-.1-2.2.6-1.4 1-1.4 1-.5-.3.6-.8 1-2.9.8-4.5-.3-2.5-.2-2.6.6-1 .7 1.6.9 1.7.9.3.1-.9-.4-2-1-2.4-.6-.3-.9-1.4-.6-2.5.3-1-.4-2.5-1.7-3.6-2.1-1.8-2.1-1.8-.5.2 1.1 1.4 1.4 2.6.9 4-.5 1.1-.9 1.4-1.1.7-.3-2.3-.5-2.7-1.6-4.7-.7-1.1-1.3-1.5-1.3-.8 0 .6.5 1.5 1 1.8.6.4.7 1.1.4 1.7-.4.6-1.2.1-2-1.3-.7-1.3-1-2.8-.7-3.3.4-.5.1-.6-.5-.2-1.5.9-1.6-.6-.1-2.1.8-.8.8-1.3 0-1.8-.6-.3-1.1-.3-1 .2.4 1.5-1.3 4.3-2.2 3.7-.5-.3-.6-1.1-.2-1.7 1-1.6 1.3-4.1.5-3.2-.4.4-.7 1.1-.7 1.6s-.3.9-.7.9h-1.3c-.3 0-.1-1 .5-2.3 1-2 1-2-.3-.5-.8 1-1.7 1.5-2 1.1-.4-.3-.2-1.2.5-2 .6-.7.8-1.6.4-2-.3-.3-.6-.1-.6.6s-.5.9-1 .6c-.8-.5-.8-1.1-.1-1.9.8-.9.7-1.3-.4-1.3-.8 0-1.2.4-.9.9m.9 2.8c.3.5.1 1-.4 1-.6 0-1.1.5-1.1 1.1 0 .5.4.8.8.5.5-.3 2.2.8 3.7 2.4s3.2 2.7 3.6 2.4c.5-.2 1.7 1.2 2.8 3.3s2 3.1 2.1 2.3c0-1.2.3-1.1 1.1.3.6.9 1.4 1.5 1.9 1.2s.5.7 0 2.4c-.4 1.6-.5 3.3-.2 3.7.4.4.2.4-.4.1-.6-.4-.9-1.9-.6-3.3.3-1.9.1-2.5-.7-2-.6.4-.9 1.1-.6 1.6s.1 1.2-.5 1.5c-.6.4-1 .3-.9-.2.1-.4 0-1.1-.1-1.6-.4-1.1-.7-2.6-.9-4-.2-.6-.6-.3-1 .8-.5 1.1-.6 2.4-.3 3 1 1.7 1.1 3.5.1 2.9-.5-.3-.7-.9-.4-1.4s.1-1.1-.5-1.5-.8-1.1-.5-1.6c.9-1.4-.5-5-1.6-4.3-.6.4-.6 1.1.1 1.9.8.9.8 1.5 0 2-.6.4-.9.1-.8-.7.2-.7-.3-1.2-1-1-.8.1-1.1-.2-.8-.7s-.1-1.4-1-2.1c-.8-.7-1.3-1.9-1-2.6s.1-1.6-.4-1.9c-.6-.4-1.1-.1-1.1.4-.3 2.6-.4 3-1.1 3.6-.4.4-.5-.5-.2-2 .3-1.7.1-2.4-.6-2-.6.4-.9.1-.8-.7.2-.7-.3-1.2-1-1-.8.1-1.1-.2-.6-1 2.1-3.8 3.7-4.7 4.9-2.8m1.1 12.6c.1.9 0 1.3-.4 1-.3-.4-.7-1.4-.8-2.2-.1-.9 0-1.3.4-1 .3.4.7 1.4.8 2.2m11.5 9.1c1.3 1.6 1.2 1.7-.3.4-1-.7-1.8-1.5-1.8-1.7 0-.8.8-.3 2.1 1.3m17.1-.2c.5.6.8.5.8-.3 0-.7.5-1 1-.7 1.4.9 1.2 2.5-.2 2.2-.7-.1-1.4.8-1.6 2-.4 2.9-2.7 4.8-3.8 3.2-.4-.8-.3-.9.5-.5 1.7 1.1 2.5-2.2 1.2-4.7-1-2-1.1-2-.6.8.4 2.5.3 2.7-.6 1.2-2-3.3 1.1-6.3 3.3-3.2m-6.1 5.2c1.3 1.6 1.2 1.7-.3.4-1-.7-1.8-1.5-1.8-1.7 0-.8.8-.3 2.1 1.3m38.9-.3c0-.5.5-.1 1.1.9 1 1.7 1.3 1.7 3.4.3 1.4-.9 2.6-1.2 3-.7.3.6 1.5.8 2.6.6s2.2.2 2.6 1c.3.8.9 1.2 1.4.9s.8 0 .7.8c-.2.7.3 1.2 1 1 .8-.1 1.1.2.6.9-.5.9-1.4.4-3-1.4-1.2-1.4-2.5-2.3-2.8-2-.3.4.4 1.8 1.6 3.2 1.3 1.4 1.6 2 .8 1.4-1.1-1.1-1.9-.9-3.9 1l-2.6 2.2 2.3-2.6c1.2-1.4 1.9-2.8 1.6-3.2-.4-.3-1.5.4-2.5 1.6-1.1 1.2-1.8 1.7-1.7 1.2.2-.6 0-1-.3-1s-1.4-.7-2.4-1.5c-1.7-1.4-1.8-1.3-1.2.2.3 1 .2 2-.4 2.3-.5.4-.6 1.1-.3 1.7.5.7.2.8-.5.3-.9-.5-.9-1.1-.3-1.7 1.2-1.2.4-4-.9-3.2-.5.3-.7.9-.4 1.4.3.4-.3 1.4-1.2 2.1-1.5 1.2-1.6 1.2-.8-.1.5-.8 1.1-2.3 1.2-3.4.3-1.6.1-1.7-1.2-.6-.8.7-1.3 1.6-1 2 .3.5.1 1.1-.5 1.5s-.7 1.1-.4 1.7c.5.7.2.8-.5.3-.9-.5-1-1-.2-1.8.7-.7.7-1.5-.1-2.4-.9-1.2-1.6-.9-3.5 1.4l-2.4 2.8 1.8-3c2-3.5 3.4-4.6 4.6-3.8.4.3 1.1-.5 1.4-1.6.4-1.7.8-1.9 1.9-1 .8.6 1.4.8 1.4.3"/><path d="M581.5 827c-.7 1.2 1.4 4.4 2.3 3.5s3.1 1.6 2.6 2.9c-.7 1.8 2.2 4.1 3.1 2.6.8-1.3-4.2-7-5.9-6.7-.6.1-1-.6-1-1.6.2-1.9-.2-2.2-1.1-.7m7.3 8.5c-.3.3-.9-.2-1.2-1.2-.6-1.4-.5-1.5.5-.6.7.7 1 1.5.7 1.8M591 834.5c0 .5.5 1.7 1 2.5s1 1 1 .5c0-.6-.5-1.7-1-2.5s-1-1.1-1-.5M644 854.5c-.7.8-1.7 1.2-2.3.8s-.7-.1-.3.6c.6.9 1.2.9 2.4-.3 1.2-1 2.2-1.2 3.5-.5.9.6 1.7.8 1.7.5s-.9-1-1.9-1.5c-1.4-.8-2.2-.7-3.1.4M651.7 854.5c-1.2.8-1.4 1.5-.8 2 .6.3 1.1.1 1.1-.6 0-.8.5-.6 1.3.4 1.1 1.6 1.3 1.6 2.6-.5.7-1.3 1-2 .6-1.6-.5.4-1.3.4-1.9-.1-.7-.6-1.8-.4-2.9.4M709 826.6c0 .7.6 1.6 1.3 2 .6.4.9.4.5-.1-.4-.4-.3-1.3.2-2 .7-.8.5-1.2-.5-1.2-.8 0-1.5.6-1.5 1.3M601.5 844.9c-.3.5-.1 1.2.5 1.6.5.3 1-.1 1-.9 0-1.8-.6-2.1-1.5-.7M616.5 851.9c-.3.5-.1 1.2.5 1.6.5.3 1-.1 1-.9 0-1.8-.6-2.1-1.5-.7M624 853.9c0 .5.5 1.3 1 1.6.6.3 1 .2 1-.4 0-.5-.4-1.3-1-1.6-.5-.3-1-.2-1 .4M634 856.1c0 1.5 1.8 1.9 2.3.6.3-.8-.1-1.4-.9-1.4s-1.4.4-1.4.8M1156.1 957.3c-8.6 26.4-25 60.9-43.9 92.5-11.4 18.8-19.3 30.1-32.1 45.7-74 89.9-198.8 158.3-299.6 164.4-16.7 1-26.5.7-40.5-1.4-5.2-.7-9.6-1.2-9.8-1.1-.1.2 1.5 3.8 3.8 8 22.9 43.6 60.7 65.7 107.9 63.3 15.4-.8 25.5-2.9 41.4-8.4 89.6-31.1 164.9-91.2 214.8-171.5 30.5-49.1 51.2-106.7 58.3-162.3 1.7-13.2 3.9-38.6 3.3-39.1-.1-.2-1.8 4.3-3.6 9.9"/></svg>