<svg xmlns="http://www.w3.org/2000/svg" width="2560" height="2560" version="1.0" viewBox="0 0 1920 1920"><path d="M918 276.1C733 286.5 555.8 376.4 434.8 521 322.5 655.2 266.5 823.6 276 998.5c10.2 187.9 99.2 364.7 244.7 486.5 134.5 112.5 302.7 168.5 477.8 159 188.7-10.3 365.7-99.7 488-246.5 140.2-168.3 191.3-392.2 137.9-604.8-34.8-138.6-114.4-265.1-225.4-357.9-113.7-95.2-253.5-150.6-400-158.8-21-1.1-59.5-1.1-81 .1m40 292.3c0 .2-3.8 3.2-8.4 6.6l-8.3 6.2-.6 9.8c-.6 11.1-1.1 12.5-7.8 19.7-2.7 2.8-4.9 5.6-4.9 6.1s1.3 4.7 2.9 9.3c6.1 17.9 4.3 39.2-3.8 43.3-1.4.7-8 1.6-14.6 2-10.4.6-12.2.9-13.4 2.6-1.2 1.8-2.5 2-12.8 2-12.9 0-15.7.8-21.9 6.7-11 10.3-26 40-46.4 91.2-9.9 25.1-15.5 42.3-17.6 54.3-2.8 15.5-.4 22.7 9.1 28.1 4.3 2.4 5.9 2.7 11 2.4 3.3-.2 6.6-.6 7.3-.8s2 .7 2.8 2.1c1.6 2.5 1.5 2.8-4 10-8.8 11.7-10.4 15.7-11.6 29-2 23.7-1.9 24.5 15.7 68 5.2 12.9 11.4 29.1 13.8 36l4.2 12.5 6.5-.3c6.5-.4 6.5-.4 9.5 3.5 1.7 2.1 10.4 14.6 19.3 27.8 30.3 44.5 40.4 57.4 55.8 71.3 10.1 9 40.5 33.5 61.2 49.1l13.5 10.2 5.1 11.2 5.2 11.2-2 3.2-1.9 3.2 5.6 10.8c3 5.9 7.8 15.1 10.6 20.3 4.7 8.7 5 9.8 4.5 14.5-.3 2.7-.6 5.8-.6 6.7-.1 1 1.5 5.6 3.4 10.4l3.5 8.7-1.5 13.1c-3.1 26.4-1.5 45.7 5 57.2l2.5 4.4H947.2c-100.4 0-107.1-.1-113.3-1.8-18.8-5.2-33.1-21.5-35.9-40.7-.7-4.7-1-119.2-.8-354l.3-347 2.1-6.2c5.5-15.8 18.8-28.5 34.5-32.7 4.4-1.2 16.2-1.5 64.7-1.5 32.5-.1 59.2.1 59.2.3m127.5 1.1c16 4.2 29.4 16.8 34.9 32.8l2.1 6.2.2 163.5c.2 154 .1 163.4-1.5 161-3.8-5.6-13.1-14.6-19.4-18.7-7.3-4.7-17.8-16.6-17.8-20 0-9.9-9-38.2-17.7-55.6-4.2-8.5-9.5-39.8-11.3-67.2-1.2-18.7-3.7-32.1-7.3-39.1-3.3-6.6-15.1-19.1-25-26.6-4.3-3.3-8.1-6.6-8.4-7.4-.8-2.1-11.3-9.1-16-10.7-5.8-2-15.3-9.5-15.3-12.1 0-1.1 1.7-3.8 3.8-5.8 3.6-3.6 15.1-21.4 22.7-35.1 3.2-5.8 3.6-7.2 2.7-9.2-.9-1.9-.5-4.1 1.9-11.2 4-11.8 6.1-21.9 5.3-25.9-.7-3.9-5.1-8.2-15.4-15-3.8-2.6-7-4.9-7-5 0-.2 18.6-.4 41.3-.4 33.9 0 42.3.3 47.2 1.5m-75.1 211.3c.3.5 2.6 12 5.1 25.6 2.5 13.5 5.6 27.8 6.9 31.6 4.7 13.4 14.6 35.5 19.7 44 2.8 4.6 6.4 11.1 8 14.3 2.9 5.7 2.9 5.8 1.2 8.8-1.1 1.9-3.9 4-7 5.6-20.8 9.8-34.3 31-34.3 53.8 0 32.8 26.9 59.5 60 59.5 19.3 0 37.6-9.5 49-25.4l3.5-4.8.3 154.3c.1 102-.1 156.8-.8 161.4-2.2 15-12.4 29.5-25.6 36.7-5.2 2.8-15.1 5.8-19.2 5.8-2.2 0-2-.5 2.9-5.8 6.8-7.4 11.9-15.9 12.6-21 .4-2.9-1.2-9.9-6.1-27.5-3.9-13.9-6.6-25.6-6.6-28.4 0-2.9-.9-6.8-2.3-9.8-5.5-11.7-6.7-25-3.8-39.3 1.2-5.5 2.1-13.1 2.1-16.7 0-6.3-.4-7.3-7.9-21.9-6.3-12.3-8.1-16.7-9.1-22.7-2.2-13.7-8.1-43.3-10.6-53.2-3.6-14.3-6.3-20.8-15.8-38.2l-8.6-15.6-4.5-20.2c-2.6-11.1-6.6-27.6-9.1-36.7-5-18.4-11.4-47.4-11.4-51.5 0-1.4 1-4.3 2.2-6.4l2.2-3.8-4.8-16.9c-2.6-9.3-7.4-25.9-10.7-36.9-6.5-21.8-5.7-20.5-17.3-30l-3.6-3 8.9-22.8c11-27.9 15.6-35.5 24.6-40.4 6.1-3.3 9-4 9.9-2.5"/><path d="M827 1260.5v49.5h19l.2-37.3.3-37.2 7.8 35.5c4.3 19.5 8.1 36.3 8.3 37.2.5 1.6 2.1 1.8 15 1.8H892v-99h-19v30.2c0 16.6-.3 29.9-.6 29.6-.4-.5-11.4-57-11.4-59.1 0-.4-7.6-.7-17-.7h-17zM899 1260.5v49.7l20.3-.4c19.4-.3 20.5-.4 25.2-2.9 3.6-1.8 5.7-3.8 7.5-7 2.3-4.1 2.5-5.4 2.5-17.4 0-11.3-.3-13.5-2.1-16.5-2.4-4.2-7.8-8-11.1-8s-2.1-1.6 1.8-2.4c1.7-.3 4.8-2.3 6.9-4.4 3.2-3.2 3.9-4.7 4.5-9.6 1.8-14.4-1.5-23.5-10.2-27.7-4.5-2.2-6.1-2.4-25-2.7l-20.3-.3zm31-33.6c.5 1.1 1 6.3 1 11.6 0 11.6-.8 13.5-5.5 13.5H922v-27h3.5c2.4 0 3.7.6 4.5 1.9m-.9 38.1c1.7 1 1.9 2.2 1.9 14.8 0 15.2-.4 16.2-5.7 16.2H922v-15.3c0-8.5.3-15.7.7-16 1-1 4.2-.8 6.4.3M974.5 1212.2c-.2.7-4 22-8.5 47.3s-8.4 47-8.7 48.3l-.5 2.3 10.8-.3 10.9-.3 1.2-9c.6-5 1.4-10.9 1.8-13.3l.6-4.2h5.4c6.2 0 5.9-.4 7 13.5.3 4.4.8 9.2 1.1 10.7l.6 2.8h12.4c11.5 0 12.5-.2 12-1.8-.2-.9-3.5-23.2-7.2-49.5l-6.7-47.7h-15.9c-11.8 0-16 .3-16.3 1.2m15.4 35.3c.6 8.2 1.4 16.5 1.7 18.2.6 3.3.6 3.3-3.6 3.3h-4.3l.6-4.8c.4-2.6 1.2-11.1 1.9-19 .6-7.8 1.5-13.9 1.9-13.5.3.5 1.2 7.5 1.8 15.8"/></svg>