<svg xmlns="http://www.w3.org/2000/svg" width="6568" height="2490.667" version="1.0" viewBox="0 0 4926 1868"><path d="M811 5C708.5 26.3 614.3 65.2 526.5 122.5c-106.1 69.2-197.4 164.5-259 270.4-8.9 15.3-9.4 18.4-4.3 23.4 2.9 2.7 60.2 36.1 271.9 158.8 38 22 59.5 33.9 61.3 33.9 6.3 0 8.3-2.1 18.6-19.5 7.6-12.8 19-29.1 30-43 61.5-77.1 150.8-131.8 246.4-151 15.3-3.1 18.9-4.4 21.2-8 1.6-2.5 1.6-3.2-1-17.8-6-33.4-20.8-113.3-43.1-232.8C855.6 67.8 845 10.5 845 9.6c0-1-1.5-3.3-3.4-5.2C837.2 0 834.8 0 811 5M1043.5 92.7c-41.8.9-107.8 7.8-114.2 11.9-4.8 3.1-4.7 5.6 2.2 51.8 3.5 23.7 12.1 81.6 19 128.6 23.3 158.3 30.6 205.4 32.1 207.7.8 1.3 2.7 2.5 4.2 2.9 1.5.3 3.2.7 3.9.9s7.7-.5 15.5-1.5c63-8.5 128.6-2.1 190.3 18.5 51.4 17.2 100 44.4 140.4 78.8 7.7 6.6 10 8 13.5 8.4 2.8.3 4.9-.1 6.8-1.4 1.4-1 46.6-52.7 100.4-114.8 53.8-62.2 109.4-126.4 123.5-142.7 14.2-16.3 26.2-30.5 26.8-31.7 1.4-2.6 1.3-7.1-.2-9.7-1.5-2.5-6.6-7.1-22.2-20-125.6-103.7-284.9-169-450.1-184.3-26.7-2.5-66.7-4-91.9-3.4M121.8 417.2c-5.6 4.4-29.7 53.7-44.9 91.6C45.8 586.5 27.3 666.2 19.8 756c-1.8 20.9-1.7 101.2 0 122 7 83 22.1 151.6 49.7 226 6.4 17.2 9 21 14.8 21 2 0 47.3-16.9 111.3-41.6 59.3-22.8 139.4-53.7 177.9-68.5 45.4-17.5 70.6-27.7 71.8-29 3-3.6 2.2-10.4-2.7-23.1-7.6-19.7-14.7-45.3-19-68.8-17-93.1-3-189.8 39.5-271.9 5.4-10.4 6.9-14.2 6.9-17.6 0-7.5 21.8 5-189.5-108.3-61-32.7-116.2-62.3-122.5-65.7-27.1-14.7-32-16.5-36.2-13.3M890.9 635.1c-45 2.9-91.5 16.4-129.3 37.5C656.9 731 595.7 837.8 599.3 955.5c1 32.6 5.5 57.9 15.7 88.5 17.1 51.4 44.9 94.4 84.9 131.4 47.7 44.1 105.9 71 173.6 80.2 15.9 2.2 54.6 2.5 71 .5 60.4-7 114.3-29.5 162-67.7 14.1-11.3 36.6-33.8 47.9-47.9 85.1-106.4 91-256.5 14.5-369-20.5-30.1-47.9-58.2-77.5-79.3-48.1-34.2-102.8-53.3-163.9-57.2-17.4-1.1-18.2-1.1-36.6.1M826 674.7c-4.2 3.2-25 23.4-25 24.3 0 .3 3.3.3 7.3-.1 26.5-2.7 58.3 1.1 81.7 9.8 5.2 1.9 9.6 3.6 9.7 3.7.2.1 1.2 9 2.3 19.7 2.6 24.6 7.9 68.2 8.4 68.6 1.1 1.1 4.6-24.4 8.5-61 1.6-14.7 3.1-27 3.4-27.3 1.4-1.5 23.4-8.4 32.2-10.2 18.6-3.9 40.6-5.1 58.3-3.3 4.5.4 7.2.3 7.2-.3 0-1.2-16.5-17.6-23-22.9l-4.5-3.7 8.5 2.9c41 13.8 77.3 36.1 109.3 67 13.5 13.1 34.7 37.7 34.7 40.4 0 .3-2.8-1.1-6.3-3.3-8.6-5.2-24.8-13.2-25.4-12.6-.3.3.8 3.8 2.5 7.8 6.9 16.9 12.2 37.2 14.1 55 1.5 13.5 1.4 31-.1 33.1-.7.9-14.6 7.7-30.8 15-16.2 7.4-34 15.7-39.5 18.6l-10 5.2 5-.6c6.7-.9 36.2-6.5 61.8-11.9l20.7-4.4 4.9 6.2c16.4 20.6 29.3 47.6 36.1 75.4l2.3 9.3 2.4-4.3c4.8-8.3 7.6-14.4 9.9-21.2 2.3-6.7 3.9-9.6 5.3-9.6 1.2 0-2.9 37.9-6 56.5-5 29.9-15.3 59.4-29.6 85-7.1 12.8-21.4 35.7-22 35.2-.2-.2.8-6.9 2.2-14.8s2.8-15.7 3-17.2l.5-2.9-3.8 3.1c-16.9 14.1-30.5 23.3-46.7 31.2-11.9 5.8-31.6 12.9-35.8 12.9-1.5 0-6-4.3-15.1-14.3-25-27.5-47.8-51.8-48.3-51.3-.6.5 14.1 27.5 31.6 58l12 21-1.7 2.9c-.9 1.6-5.1 7.4-9.3 13-13.2 17.6-34 36.1-54.6 48.8l-7.3 4.4 8.8 1.7c4.8 1 12.6 2.1 17.5 2.4 4.8.4 8.7 1 8.7 1.4 0 1-21.2 6.6-34.3 9.1-18 3.5-35.4 5-56.7 5-29.5 0-53.3-3-79.7-10.2-11-3.1-13.6-4.9-6.8-4.9 3.9 0 22.6-2.7 27-3.8 2.7-.8 2.6-.9-5.1-5.7-18-11.3-35.4-25.9-47-39.7-6.6-8-17.4-22.9-17.4-24.2 0-.3 7.1-13.1 15.8-28.3 8.7-15.3 18.7-33.2 22.1-39.8l6.3-12-10.4 10.5c-5.7 5.8-19.6 20.6-30.9 33-12.5 13.7-21.3 22.6-22.6 22.8-3.5.5-25.3-7.3-37.5-13.3-16.2-8.2-28.6-16.5-43-28.8-3.2-2.7-5.8-4.3-5.8-3.5 0 1.3 4.5 27.3 5.6 32.7.7 3.5-10.8-14.1-20.3-30.9-18.6-32.7-29.3-65.9-34.8-108-1.7-12.7-3.1-35-2.3-35 .3 0 4.3 7.5 8.8 16.7l8.2 16.8 2.8-11c7.5-29.2 22.1-59.1 37.2-75.8l4.3-4.7 6 1.4c10.3 2.5 70.7 14.5 76 15.1l5 .6-10-5.2c-5.5-2.9-22.1-10.7-37-17.4-14.8-6.7-28.7-13.1-30.9-14.1l-3.9-1.9.6-19.5c.4-15.5 1.1-21.9 3-31 2.7-12.4 8.5-31.2 12.3-39.9 1.4-3 2.2-5.6 2-5.8-.4-.5-19.3 8.9-27.3 13.7-2.9 1.7-5.3 2.9-5.3 2.6 0-.9 12.4-16.3 20.8-25.9 25.9-29.1 61.7-55.5 96.7-71.2 8.9-3.9 33.4-13.3 35.5-13.4.3-.1-1.1 1.1-3 2.6"/><path d="M847.5 858.9c-34.6 25.2-62.9 46.2-62.9 46.7.4 2.5 47.6 147 48.3 147.7.4.4 35.7.6 78.6.5l77.8-.3 23.9-73.5c13.1-40.4 23.7-74 23.6-74.7-.2-.9-125.1-92.4-126-92.3-.2 0-28.6 20.7-63.3 45.9M331 1085.7c-163.8 70.7-321 138.8-323.2 139.9-4.2 2.2-6.8 5.5-6.8 8.7 0 6.2 24.8 58.6 42.4 89.6 97.3 171 256.3 304.5 440.2 369.5 18.9 6.7 38.5 12.7 41.7 12.8 5 .2 8.3-4.3 12.1-16.6 1.9-6.1 26.5-84.9 54.7-175.1s52-166.9 53-170.5c3.9-14.1 3-15.1-19.6-22.9-31.2-10.7-54.4-21.2-80-36.2-50.3-29.4-93.5-68.1-128.3-115.1-14.3-19.4-26.6-39.9-39.8-66.5-7.1-14.5-13.4-25.9-14.6-26.8-1.3-.8-3.4-1.5-4.8-1.4-1.4 0-13.5 4.8-27 10.6"/></svg>