<svg xmlns="http://www.w3.org/2000/svg" width="1093.333" height="786.667" version="1.0" viewBox="0 0 820 590"><path d="M381.3 43.5c-62.9 8.4-116.5 35.9-157.1 80.5-36 39.6-56.3 83-64.8 139-2.6 17-2.4 48.1.4 66.5 5.7 37 15.9 65.3 35.3 98 15.5 26.2 42.7 55.1 69.9 74.1 48.1 33.8 109.4 50.6 165.5 45.4 70.5-6.5 133-39.6 176.4-93.5 37.3-46.2 57.6-106.5 55.8-165.5-1.1-34.5-8.5-66.9-22.4-97.5-19.9-43.8-50.5-79.5-91.8-107-28.7-19.2-62.1-32.1-99.5-38.6-16-2.7-52.2-3.5-67.7-1.4m61.6 18.1c25.5 3.7 48.8 11 71 22 69.5 34.5 116.5 99.1 128.6 176.4 2.2 14.2 3.1 51.7 1.6 69.3-6 71.9-39 130.9-97.1 173.7-11.4 8.3-19.6 13.3-20.8 12.6-.5-.3.1-4.3 1.4-9 1.2-4.6 2-8.6 1.8-8.9-.2-.2-6.8 2.9-14.6 6.8-22 10.9-43.2 17.8-68.3 22.2-14.7 2.5-56.8 2.5-72 0-95-15.8-168.9-83.4-192.4-176.2-7.4-29.3-8.7-79.9-3-114.4 10.4-62.7 46.3-116.9 102.1-154.5 6.5-4.4 12.1-7.6 12.5-7.3.3.4-.1 4.1-1.1 8.3-1 4.1-1.6 7.7-1.3 8 .2.3 5.1-2 10.8-5 26.7-14 57.3-22.7 89.3-25.6 12.3-1.2 38.6-.3 51.5 1.6"/><path d="M387.6 129.7c-2.7 8.2-5.2 15.2-5.7 15.7-.8.9-4.6-1.4-23.2-14.3-4.9-3.4-9.2-5.9-9.6-5.7-.4.3.2 6.6 1.4 14.1s1.8 13.8 1.3 14.1c-.4.3-3.6-1.5-7-3.9-6.8-4.8-12.7-8.1-13.4-7.4-.2.2 1.6 4.2 4 8.8 2.5 4.6 5.7 11.6 7.1 15.4 1.5 3.9 2.8 7.1 2.9 7.3.2.1 4.6-1.8 9.8-4.3 10.5-4.8 25.1-9.5 36.8-11.6 12-2.2 39.3-1.7 51 .9 5.1 1.2 9.7 1.9 10.1 1.4.4-.4 1.1-4.1 1.7-8.2s2.2-11.2 3.5-15.8c1.3-4.5 2.1-8.5 1.7-8.7-.4-.3-4.5 3.4-9 8.1s-8.3 8.4-8.5 8.2c-.5-.5-1.3-7.9-2-19.1-.4-5.3-1.1-9.7-1.6-9.7-.4 0-6.6 6.3-13.6 14s-13 14-13.3 14c-.3-.1-4.3-6.3-9-14s-9-14-9.5-14c-.6 0-3.2 6.6-5.9 14.7"/><path d="M392.4 166.5c-13.3 2.4-37.4 10.4-37.4 12.4 0 .4 1.8 1.5 3.9 2.4 2.2 1 5.5 3.6 7.5 5.7 5.4 6 4.7 7.3-2.1 4.5-16.5-6.9-28.7 8.3-22.7 28.4 1.9 6.4 1.6 7.6-1.3 5.6-5.9-4.2-9.8-16.7-8.2-26.7.5-2.9.7-5.4.4-5.6-1.5-1.5-22.8 20-29.2 29.4-6.1 8.9-10.3 16.3-10.3 17.9 0 1 1.6 1.6 4.9 2.1 7.9 1 8 1.4 2.9 9.1-5.4 8-11.8 20.6-15.3 30-4.3 11.4-8.3 29.7-6.8 30.6.5.2 5.5-1 11.3-2.8s10.6-3.1 10.8-3c.2.2-.2 4.7-.9 10.1-1.4 11.7-.7 35 1.5 47.6 1.6 8.7 7 25.3 8.7 26.3 2.5 1.6 27.7-25.8 35.9-39.1 1.2-1.9 2.7-3.4 3.4-3.4 1.5 0 3 6.1 4.7 18.5 1.5 11.4.6 30.2-2.1 45.5-1.1 6.3-2 11.6-2 11.6 0 .1 2.7 1.4 6.1 2.9 28.3 12.7 62.3 10.1 92.3-7 4.3-2.4 8.2-4.2 8.6-4 .4.3 1.6 3.7 2.5 7.7 1 4 2 7.6 2.2 8.1.2.4 2.5-.7 5-2.5 22.7-16.3 39-42.3 43.3-69.1.7-4.2 1.5-7.7 1.9-7.7.3 0 2.9 2.3 5.7 5.1l5.2 5.1 1.6-5.3c4-13.9 4.8-19.1 5.3-34.4.4-12.1.1-18.2-1.1-25.1-3-17.5-10.8-37.2-21.1-53.2-4.5-6.9-6.5-8.2-6.5-4.1 0 2.9-1.5 2.3-5.9-2.4-4.4-4.6-5-6.2-2.5-7.1 3.3-1.3-.8-11.6-4.5-11.6-1.1 0-3.4 1.2-5.1 2.7-2.6 2.2-3.5 2.4-4.9 1.5-3.1-2.2-7.3-4.3-7.7-3.9-1.2 1.1 6.9 12.1 12.2 16.5 6.8 5.7 10.9 10 10.3 10.6-.3.3-2.2.1-4.4-.4-6.1-1.4-16.2-1.2-23.3.6l-6.4 1.6-1.6-2.3c-.9-1.3-4.9-5.8-8.9-10-6.2-6.4-7.3-8.1-7.3-11 0-1.9.7-4.5 1.6-5.7 2.5-3.6.7-3.9-4.7-1l-5 2.6-8.2-4.1c-10.3-5.3-15.4-5.5-23.9-1.3-10.7 5.4-10.9 7.5-1.5 11.7 3.9 1.7 7.6 2.3 14.7 2.6 5.2.2 10.6.6 11.9.9 2.5.5 20.1 16.9 20.1 18.7 0 .5-2.5.5-5.6.1-3.1-.3-13.1-.7-22.3-.8-15.7-.1-16.9-.2-22.2-2.7-6.7-3.2-12.7-9.7-14.9-16.5-1.5-4.5-2-4.9-5.4-5.5-2-.3-4.1-1-4.7-1.6-1.4-1.4 6.6-8.5 13.2-11.9l5.3-2.6-2.9-2.5-3-2.4 3-2.5c4.2-3.6 19.8-10.9 27.3-12.9 10.6-2.7 12.1-2.4 22.4 3.8 5.1 3 10.8 6.7 12.7 8.1s3.8 2.6 4.2 2.6c.8 0 2.6-4.4 3.4-8.7.4-1.8 1-3.5 1.4-3.8 1.1-.6 15.3 8 23 14 10.6 8.3 11.2 8.8 11.7 8.3.2-.3-.5-2.6-1.6-5.2-1.2-2.5-2.7-7.7-3.5-11.4-1.2-5.9-1.9-7.2-5.7-10.5-5.6-4.8-15.8-10.1-26.3-13.7-8.4-2.8-10.4-2.7-8.7.7 1.3 2.5 2.2 7.9 1.5 8.6-.3.4-3.5-2.1-7.2-5.4-10.2-9.4-11.6-9.9-27.8-9.8-7.6.1-17 .7-20.9 1.4m73.2 97c3.3 2 6.9 3.8 8.2 4.1 2.1.6 2.2 1.1 2.2 10.3l-.1 9.6-6.4 5c-13.1 10.1-25.7 16.2-31.7 15.3-1.7-.2-3.9-3.5-9.6-14.2l-7.4-13.8 2.8-2.3c9.9-7.9 28.2-17.3 34-17.4 1.2-.1 4.8 1.5 8 3.4m35.8 2.2c3.9 12.2 4.4 24.9 1.3 33.9-1.7 4.8-3.2 5.3-5.1 1.6-.8-1.6-3.6-5.3-6.1-8.3l-4.5-5.3v-18.4l5.7-4.1c3.2-2.3 6.1-4.1 6.5-4.1.3 0 1.3 2.1 2.2 4.7m-13 42.6c1.4 1.8 3.3 5.3 4.1 7.7 1.4 4 1.4 4.8-.1 9.4-.9 2.8-2.5 6.8-3.6 8.9-2.3 4.6-9.5 12.7-11.3 12.7-.8 0-1.4-2.7-1.8-8.2-.8-9.5-1.7-11.1-4.9-8.1-2.7 2.5-14.5 8.3-16.9 8.3-1.1 0-3.2-2.9-5.8-7.9-2.2-4.3-4.1-8.1-4.1-8.4s2.3-1.3 5.2-2.3c2.8-.9 9.4-4.5 14.5-8 7.5-5.1 10.2-6.4 14-6.7 2.7-.2 5.6-.4 6.5-.5s2.8 1.3 4.2 3.1M199.2 285.2c.3 3.3.4 3.3 5.9 3.6l5.7.3.4 5.6c.4 4.6 1 6.1 3.2 8 3.6 3.1 7 3.8 11.7 2.4 5.9-1.8 7.9-5.7 7.9-15.4V282h-35.1zM228 292c0 3.2-3 7-5.5 7s-5.5-3.8-5.5-7c0-3 .1-3 5.5-3s5.5 0 5.5 3M208.3 310.3c-8.2 1-8.3 1-8.3 3.8 0 1.5.3 3 .8 3.2.4.3 3.1.1 6.1-.4 7.2-1.1 9.7-.4 11 3.2.7 2.2 1.6 2.9 3.5 2.9 2.1 0 2.6-.5 2.6-2.4 0-1.3-.7-2.9-1.5-3.6-1.1-.9-1.2-1.6-.3-3 .6-.9.8-2.5.5-3.4-.7-1.8-1.9-1.8-14.4-.3M211.3 327.1c-7.2 2.1-9.9 12.9-4.7 19.6 2.9 3.9 3.5 4 5.2 1.2 1.1-1.8 1.1-2.4-.2-3.7-2.3-2.7-2.9-6.5-1.2-8.7.8-1.1 1.6-1.8 1.9-1.5.2.3 1.2 3.9 2.3 8 1.8 6.9 2.1 7.5 4.4 7.2 3.4-.4 7.9-4.9 8.6-8.7.7-4-1.6-9.8-4.8-11.9s-7.6-2.7-11.5-1.5m9.6 7.3c1.5 1.8 1.1 6.8-.6 7.3-.7.3-1.5-.8-1.9-2.4-.3-1.5-.8-3.6-1.1-4.6-.5-2.1 1.9-2.3 3.6-.3M218.7 353.4c-9.2 3.9-9.7 4.2-9.1 6.6.3 1.4.7 2.7 1 2.9.2.2 3.4-.8 7.2-2.2 7.8-3.1 8.5-3.2 10.2-1.2 2.3 2.8.2 5.3-7 8.1s-7.9 3.7-5.7 6.7c1.1 1.6 1.6 1.6 7.6-.8 7.2-3 10.5-2.9 10.9.1.4 2.6-2 4.6-9 7.4-3.2 1.2-5.8 2.4-5.8 2.7 0 .4 2 4.4 2.5 5.1.7.8 15.4-6.4 17.3-8.5 2.9-3.2 2.4-7.7-1.3-11-1.8-1.6-2.4-3.1-2.3-5.9.1-3-.4-4.2-2.6-5.9-1.7-1.4-2.4-2.5-1.7-2.9 1.1-.7-.6-5.7-1.8-5.5-.3.1-5 2-10.4 4.3M249 379.9c-1.5 2.8 2.1 7.1 4.7 5.5 2.2-1.4 2.9-5.4 1.1-6.5-2.2-1.4-4.7-1-5.8 1M234.3 388.3c-5.1 2.9-9.3 5.7-9.3 6.3 0 .5.6 1.9 1.4 2.9 1.3 1.8 1.8 1.6 10.7-3.4 5.2-3 9.6-5.5 9.8-5.7.6-.6-1.7-5.4-2.6-5.4-.5.1-5 2.4-10 5.3M239.2 397c-5.4 3.3-6.8 10.6-3.2 16.5 2 3.2 7.7 6.8 9.2 5.9 1.2-.7 1-5.4-.2-5.4-2.1 0-5-4.1-5-7 0-1.7.3-3 .8-3 .4.1 2.9 3 5.5 6.6 4.2 5.6 5 6.3 6.7 5.4 1.1-.6 2.7-2.4 3.5-4 5.7-11-6.5-21.6-17.3-15m10.6 4.7c2 1.7 2.6 3.3 2.3 6-.2 2.3-1.8 1.4-4.4-2.6-3.3-5-2.1-6.9 2.1-3.4M254.5 419.5l-8 7.4 2.1 2.1 2.1 2.2 5.2-4.6c5.6-5 7.4-5.5 10.9-3 1.8 1.2 2.6 1.3 3.7.4 2.4-2 1.7-4.1-1.5-5.3-1.7-.6-2.8-1.6-2.6-2.2.5-1.5-1.3-4.5-2.7-4.5-.7 0-4.8 3.4-9.2 7.5M279.6 436c-5.8 7.2-10.6 13.4-10.6 13.9 0 .4 2.8 3 6.2 5.7 10.5 8.3 9.7 7.9 12.1 5.5l2.2-2.2-2.1-1.7c-1.1-.9-3.8-3.1-5.9-4.8l-3.9-3.2 8-9.8c4.4-5.5 8.4-10.5 8.8-11.2.8-1.3-1.9-5.2-3.5-5.2-.4 0-5.5 5.9-11.3 13M298.4 451.9c-3.1 1.9-6.4 7.4-6.4 10.6 0 5.8 7.2 12.5 13.4 12.5 3 0 3.7-.9 2.9-3.8-.4-1.6-1.3-2.2-3.2-2.2-2.8 0-7.1-3.6-7.1-5.8 0-2 1.9-1.4 8 2.3 3.2 1.9 6.2 3.5 6.8 3.5 3.2 0 4.3-9.9 1.6-13.8-3.5-5.1-10.7-6.6-16-3.3m11.2 6.6c2.3 3.6.9 4.4-3.4 1.9-4.7-2.8-5.2-4.4-1.3-4.4 2.2 0 3.5.7 4.7 2.5M322.3 464c-5.3 2.2-7.8 11.1-4.8 17 1.8 3.5 4.3 5 8.4 5 1.8 0 4 .9 5.2 2.1 1.1 1.1 2.5 1.9 3.2 1.6.9-.3 9.4-17.8 9.6-19.8.1-1.1-4.8-2.8-5.4-1.9-.3.4-1.8-.5-3.4-2.1-3.1-3.1-8.1-3.8-12.8-1.9m9.9 6.2c4.2 3.2 1.6 10.8-3.6 10.8-3.6 0-5.9-2.4-5.9-6 0-5.1 5.5-7.9 9.5-4.8M351.5 473.2c-4.1 1-7.2 4.1-8.4 8.3-2.1 7.8 3.1 14.8 11 14.7 4-.1 4 0 2.6 2.1-2.2 3.3-6.8 3.4-10.6.1l-3.2-2.7-2.2 2.2-2.2 2.2 3.2 2.9c5.8 5.2 15.7 5.1 19.6-.1 1.9-2.7 7.7-21.5 7.7-25.2 0-1.6-.5-1.8-3.2-1.5-2.2.4-3.8-.1-5.1-1.2-2.4-2.3-5.4-2.8-9.2-1.8m8.3 7.6c2.1 2.7 1.5 7-1.3 8.8-4.9 3.2-10.6-1.1-9.1-6.9 1.1-4.4 7.4-5.6 10.4-1.9M372.6 480.7c-2.9 14.7-1 19.7 8.1 21.7 3.7.9 9.1-1.3 11-4.4 1.5-2.4 3.7-15.6 2.8-17-.7-1.1-5.5-1.4-5.5-.3 0 3.2-2.2 12.8-3.1 13.9-.6.8-2.5 1.4-4 1.4-3.8 0-4.9-2.8-3.8-9.5 1.3-8.2 1.2-8.5-2-8.5-2.4 0-3 .5-3.5 2.7M402.9 482.3c-7.1 4.8-7.5 15.5-.6 19.8 3.9 2.5 12.8 2.2 15.5-.4 1.5-1.6 1.5-1.8 0-3.3-1.4-1.4-2.1-1.4-5.1-.3-3.1 1.1-3.9 1-6.1-.5-4.4-2.8-3.1-3.6 5.9-3.6 8 0 8.5-.1 8.5-2.1 0-3.8-3.1-8.7-6.5-10.3-4.5-2.2-7.6-2-11.6.7m9.9 4.9c2.2 2.2 1.3 2.8-3.8 2.8-2.7 0-5-.4-5-.8 0-2.9 6.5-4.3 8.8-2"/></svg>