<svg xmlns="http://www.w3.org/2000/svg" width="202.667" height="202.667" version="1.0" viewBox="0 0 152 152"><path d="M61.2 18C50.3 20.9 42.5 25.4 34 34c-8.7 8.6-13.1 16.3-16 27.6-3.6 14.1-1.8 29.4 5.2 42.7 4.2 8.1 16.4 20.3 24.5 24.5 13.3 7 28.6 8.8 42.7 5.2 11.3-2.9 19-7.3 27.6-16 8.7-8.6 13.1-16.3 16-27.6 3.6-14.1 1.8-29.4-5.2-42.7-4.2-8.1-16.4-20.3-24.5-24.5-13.2-6.9-29.1-8.8-43.1-5.2M36.1 75.4c1.1 3.9.5 4.6-3.7 4.6-3.3 0-3.4-.1-3.4-4.1 0-3.9.1-4 3.2-3.7 2.5.2 3.3.9 3.9 3.2m9.4.2c1.9 4.6 1.9 4.7-.5 3.2-1.6-1-2.4-1-4 0-1.1.7-2 1-2 .7 0-1.2 3.5-7.5 4.2-7.5.4 0 1.5 1.6 2.3 3.6m7.8 3.7c1.8.4 1.7.5-.5.6-2.7.1-2.8-.1-2.6-4.2l.1-4.2.4 3.7c.3 2.8.9 3.8 2.6 4.1M64 73c0 .5-1.2 1.1-2.7 1.1-2.4.2-2.5.2-.5.6 2.7.5 2.9 2.3.2 2.3-3.3 0-2.3 1.8 1.3 2.3 3.1.4 3.1.4-.5.5C58 80 58 80 58 76c0-3.8.2-4 3-4 1.7 0 3 .4 3 1m6.9 1.7 2 2.8.1-2.8c0-1.5.5-2.7 1-2.7.6 0 1 1.8 1 4 0 4.6-.5 4.8-3.7 1.8L69 75.7v2.1c0 1.2-.4 2.2-1 2.2-.5 0-1-1.8-1-4 0-4.7 1.1-5 3.9-1.3m13.7-1.6c.4.7 0 .9-1.2.5-2.6-.8-4.7.7-4.2 3 .3 1.4 1.1 1.8 3.1 1.7 1.5-.1 2.7.2 2.7.8 0 1.5-5.7 1-7-.6-2-2.4.3-6.5 3.4-6.5 1.4 0 2.8.5 3.2 1.1M89 76c0 2.2-.4 4-1 4-.5 0-1-1.8-1-4s.5-4 1-4c.6 0 1 1.8 1 4m9.4-.4c.9 2 1.4 3.9 1 4.3-.4.3-.9 0-1.1-.7-.6-1.4-3.9-1.6-4.8-.2-.3.5-1.1 1-1.6 1s0-1.8 1.1-4 2.4-4 2.8-4c.5 0 1.6 1.6 2.6 3.6m10.6-2.5c0 .6-.8.8-1.9.4-2.2-.7-4.4 1.6-3.5 3.9.3.9 1.5 1.6 2.5 1.6 2.1 0 2.6-1.6.7-2.3-.7-.3-.3-.6 1-.6 1.7-.1 2.3.4 2 1.6-.2 1.3-1.3 1.8-3.8 1.8-3.1 0-3.5-.3-3.8-2.9-.2-1.6.2-3.2 1-3.7 1.9-1.2 5.8-1.1 5.8.2m10 2.9c1.1 2.2 1.6 4 1.1 4s-1.3-.5-1.6-1c-.9-1.4-4.2-1.2-4.8.2-.2.7-.7 1-1.1.7-.8-.8 2.4-7.9 3.6-7.9.4 0 1.7 1.8 2.8 4"/><path d="M31.3 74.7c.9.2 2.3.2 3 0 .6-.3-.1-.5-1.8-.5-1.6 0-2.2.2-1.2.5M30.5 78c.3.5 1.5 1 2.6 1 1 0 1.9-.5 1.9-1 0-.6-1.2-1-2.6-1s-2.3.4-1.9 1M42 76c0 .5.5 1 1 1 .6 0 1-.5 1-1 0-.6-.4-1-1-1-.5 0-1 .4-1 1M94.6 75.5c-.3.9 0 1.5.9 1.5 1.6 0 2-1.6.6-2.4-.5-.3-1.1.1-1.5.9M115.5 75c-.8 1.3-.1 2.4 1.4 1.9.6-.3.7-1 .2-1.8-.6-1-1-1-1.6-.1"/></svg>