<svg xmlns="http://www.w3.org/2000/svg" width="1350" height="949"><path fill="#FFF" d="M1069 711c3.063.25 3.063.25 6 1 1.356 2.712 1.25 4.99 1.389 8.023l.182 3.833.183 4.164.197 4.26q.207 4.47.406 8.94.256 5.72.521 11.44a15467 15467 0 0 1 1.015 22.322c.095 2.677.128 5.34.107 8.018l1.813.563c3.2 2.102 4.325 4.827 5.187 8.437.22 4.379-.34 7.129-3.02 10.67-2.339 3.933-2.446 6.158-2.37 10.697.005.68.01 1.36.017 2.06.022 2.15.072 4.298.123 6.448q.03 2.199.055 4.398c.044 3.577.112 7.152.195 10.727.95.3 1.898.602 2.876.912 5.319 1.853 8.646 5.553 11.456 10.373 1.858 3.932 3.24 7.284 2.668 11.715h3v4h-3l-.187 3.5c-.985 7.635-5.52 12.682-11.262 17.469C1085 886 1085 886 1083 886l.2 1.746c.75 6.937 1.092 13.852 1.335 20.824l.13 3.522q.203 5.516.398 11.033l.275 7.523q.335 9.176.662 18.352h-29c0-8.763.047-17.445.438-26.187l.119-3.057.127-2.924.11-2.602C1058 912 1058 912 1059 909l-1.858-.124c-6.707-.502-13.364-1.24-20.037-2.075l-2.807-.351-2.926-.367a2221 2221 0 0 0-65.685-7.208l-1.993-.19c-22.096-2.094-44.211-3.896-66.35-5.48l-3.175-.229q-2.895-.206-5.79-.406A245 245 0 0 1 873 891l.007 1.702q.032 8.734.048 17.47.008 3.262.02 6.526c.013 3.12.018 6.24.023 9.36l.015 2.968v2.73l.007 2.415C873 936 873 936 872 937c-2.265.21-4.539.315-6.812.375l-3.77.148C857 937 857 937 845 932v-43h-17l-4-1-.076 1.905c-1.304 32.33-1.304 32.33-2.924 38.095h-2q.213 3.594.438 7.188l.119 2.04c.187 2.955.448 5.794 1.04 8.698L821 948c-1 1-1 1-4.062 1.063L814 949a88 88 0 0 1-1-5l1-1c.127-2.372.176-4.75.188-7.125l.042-3.945c-.234-3.991-1.114-7.1-2.23-10.93l-2-13-258-1-3 21h-2q.213 3.594.438 7.188l.119 2.04c.187 2.955.448 5.794 1.04 8.698L549 948c-1 1-1 1-4.062 1.063L542 949a88 88 0 0 1-1-5l1-1c.237-2.526.422-5.031.563-7.562l.13-2.155q.159-2.64.307-5.283h-2c-1.624-13.657-2.52-27.257-3-41l-2.962.184q-5.507.339-11.015.67-2.371.144-4.742.292-3.433.211-6.867.417l-2.097.132c-5.442.32-10.867.35-16.317.305l.221 1.83a54335 54335 0 0 1 3.14 26.053l1.229 10.203.382 3.158c.75 6.245 1.429 12.494 2.028 18.756h-2q-2.156-12.83-4.303-25.66-.996-5.958-1.997-11.915-.966-5.748-1.926-11.496-.367-2.194-.737-4.389-.517-3.07-1.027-6.14l-.592-3.534C488 883 488 883 488 880l-6 1 .266 1.789q1.368 9.22 2.725 18.444.507 3.441 1.018 6.882.734 4.947 1.46 9.897l.464 3.103.424 2.911.377 2.55c.274 2.495.312 4.917.266 7.424-2.298-2.298-2.482-3.342-3.145-6.462l-.606-2.802-.632-3.037-.664-3.117q-.693-3.268-1.376-6.539c-.697-3.333-1.408-6.664-2.12-9.994l-1.34-6.35-.644-3.018-.587-2.83-.52-2.479c-.385-2.493-.43-4.853-.366-7.372l-2.418.492c-4.33.614-8.528.654-12.894.633l-2.436.012c-5.49-.01-10.806-.449-16.252-1.137l-.375 3.877c-.57 5.103-1.543 10.068-2.621 15.084l-.587 2.765q-.61 2.867-1.228 5.732c-.629 2.928-1.246 5.858-1.863 8.788q-.597 2.796-1.197 5.59l-.556 2.651-.536 2.46-.462 2.158C433 931 433 931 431 934c.612-11.546 2.344-22.89 4.063-34.312l.853-5.749Q436.951 886.97 438 880h-4l-.471 2.996A14234 14234 0 0 1 423 949h-2a28366 28366 0 0 1 2.14-20.482A2175 2175 0 0 1 427 894c-24.214 1.552-48.36 3.63-72.5 6.063l-3.909.392c-12.777 1.289-25.548 2.59-38.288 4.21C309 905 309 905 303 905v43h-1v-13q-19.871.09-39.742.236c-6.15.044-12.302.084-18.453.11q-8.898.04-17.798.117-3.4.025-6.8.035c-3.168.01-6.335.037-9.503.07l-2.858-.005-2.613.038-2.27.014c-2.468.484-3.375 1.489-4.963 3.385-3.161-1.37-3.993-1.99-6-5l3-3-1-1.812C192 927 192 927 192 924l2-3-3-4 4-4c3.875 1.875 3.875 1.875 5 3 3.165.125 6.31.186 9.477.205l3.015.03q4.959.047 9.918.081l6.856.063q9.043.083 18.086.153 9.22.077 18.439.161 18.105.162 36.209.307v-13H2v-1l3.298.099c4.093.106 8.184.13 12.278.133q2.643.018 5.283.1c12.249.443 12.249.443 22.565-5.392 18.838-19.757 22.978-42.1 23.264-68.253q.05-3.162.103-6.326c.084-5.12.151-10.24.209-15.361h11l.044 3.617c.059 4.502.136 9.002.218 13.503q.05 2.903.084 5.804C80.674 857.856 86.18 879.367 106 899c3.456 3.229 6.07 3.41 10.734 3.512l3.926.107 4.09.068q2.069.05 4.137.104 5.055.124 10.113.209v-3a142 142 0 0 1 5-5c1.521-3.042 1.374-6.28 1.563-9.625l.13-2.14q.158-2.618.307-5.235l-3-1v-2h-2a418 418 0 0 1-2-3.812l-1.125-2.145C137 867 137 867 137 864l-1.812-.687c-2.82-1.692-3.784-3.365-5.188-6.313v-4h5v-3h27v3h5c.359 3.855.275 5.578-1.875 8.875L163 864h-2l-.516 1.793c-1.464 4.775-2.805 8.643-6.484 12.207h-3c.414 9.625.838 16.085 8 23v2h40v-2h3v-26l5-2c6.773-4.067 10.405-10.701 13-18 .215-3.25.215-3.25 0-6l-1.977-.918c-5.303-2.542-9.695-5.096-14.023-9.082l-1.937 2.938C200 845 200 845 199 846c-4.33.536-7.862.705-11.625-1.625C186 842 186 842 186.063 838.875 187 836 187 836 190 834c2.625.25 2.625.25 5 1l1 2h-6l-1 5c5.476 1.947 5.476 1.947 11 1 .421-4.21.443-6.353-1.984-9.898-3.86-4.365-8.905-7.018-13.866-9.957-5.737-3.529-8.966-6.594-11.15-13.145-.68-7.135-.68-7.135 2.063-10.625C178 798 178 798 181.75 798.75L185 800h1v-13h80v13l3.25-1.125c3.75-.875 3.75-.875 6.125-.125C277 800 277 800 278 802c.59 5.676.314 10.189-3 15-3.545 3.751-7.523 6.354-12 8.875-4.802 2.802-9.333 6.129-12 11.125.238 2.694.238 2.694 1 5 4.05 1.73 4.05 1.73 8.313 1.438 2.271-1.935 2.382-3.536 2.687-6.438h-7v-2c2.978-.91 4.435-1.26 7.313.063C265 837 265 837 265.5 840c-.5 3-.5 3-2 4.875-3.543 1.594-6.68 1.847-10.5 1.125-2.969-2.207-3.829-3.486-5-7l-1.723 1.426c-4.604 3.712-8.71 6.56-14.277 8.574.273 8.468 2.9 14.715 8.813 20.895 2.978 2.638 5.58 4.301 9.187 6.105v25c31.911 10.637 77.18.32 110.166-3.63 12.944-1.542 25.907-2.73 38.897-3.808l2.95-.252q4.073-.347 8.147-.681l2.34-.198c5.18-.41 10.303-.483 15.5-.431l1-13-3.25.188c-5.766-.052-11.484-.75-16.75-3.188-1.98-2.735-2.334-4.612-3-8 3.6-2.175 7.27-2.659 11.375-3.125l2.193-.257c9.78-1.02 19.614-.796 29.432-.618l-.053-1.955c-.08-5.154.184-9.662 1.553-14.67 1.26-4.999 1.802-9.24 1.5-14.375 1.938-.562 1.938-.562 4-1 1.914 1.914 1.662 5.246 2 7.813.574 4.663.574 4.663 1.559 9.246.624 2.747.534 5.379.503 8.191l-.027 3.266L460 863h7l-1.5-1.937c-1.96-4-2.165-7.665-1.5-12.063 2-2 2-2 4.625-2.125L471 847c2.116 3.439 2.471 5.995 2 10-1.199 2.423-2.61 4.677-4 7 .734-.01 1.468-.02 2.225-.032C508.32 863.51 508.32 863.51 516 868c-.625 3.313-.625 3.313-2 7-6.463 4.407-13.478 4.114-21 4l1 9 4-1a98 98 0 0 1 4.57-.316l2.693-.128 2.862-.119 2.936-.128c8.983-.365 17.951-.409 26.939-.309l-.168-1.73c-1.44-15.082-2.337-30.129-2.832-45.27l-1.865-.137-2.451-.218-2.428-.2c-3.559-.702-5.105-2.643-7.256-5.445-3.034-4.942-2.609-10.393-2-16 2.553-5.295 6.196-8.844 11.652-11.094 3.895-1.054 7.535-1.206 11.535-1.156l2.276.012c5.157.08 9.973.731 15.025 1.781 16.178 2.944 33.936-2.713 49.146-7.775 2.262-.734 4.535-1.388 6.823-2.034 3.834-1.176 7.215-2.43 10.543-4.734 1.286-3.031 1.286-3.031 1.813-6.437 1.127-5.817 1.127-5.817 3.932-7.791 5.189-2.566 10.714-4.158 16.255-5.772a400 400 0 0 0 4.832-1.523l2.136-.678c3.767-1.481 6.77-3.41 9.032-6.799.848-3.686 1.047-7.225 1-11l-4-2v-9l3-1-.187-3.625c.014-4.165.858-6.841 3.187-10.375 3.626-3.354 6.23-4.827 11.188-5.312 6.12.501 10.013 2.925 14.812 6.625 3.3 4.256 2.301 10.143 2.078 15.226-.23 3.285-.23 3.285.496 5.688.787 3.277-1.167 5.845-2.574 8.773h-3l-1 8c5.409 4.902 10.558 6.973 17.527 8.945 3.681 1.118 7.18 2.43 10.723 3.93l3.266 1.367C723 781 723 781 723.859 784.195L724 787l2.547.797c3.003 1.046 5.863 2.242 8.754 3.563 20.548 9.38 47.015 19.52 69.824 14.64 9.569-1.897 21.338-3.009 30.14 1.785 3.246 2.273 5.952 4.65 7.735 8.215.977 13.603.977 13.603-3 19-3.488 3.89-8.092 3.656-13 4l.033 2.084c.073 8.466-.382 16.849-.97 25.291l-.264 4.02c-.383 5.627-.87 11.03-1.799 16.605l21 1-.062-6.437A153 153 0 0 1 845 875c1-1 1-1 3.066-1.098l2.496.035 2.504.028L855 874l1-3 5 2v2l1.863.586 2.45.789 2.425.773C870 878 870 878 873 880c.41 3.34.13 6.643 0 10l2.176-.03c7.577-.058 15.053.291 22.605.878l3.694.278q4.974.38 9.948.772 3.143.249 6.285.494c41.027 3.226 82.034 7.241 122.855 12.483l2.44.313c12.374 1.604 12.374 1.604 15.997 2.812l-.016-1.804q-.029-4.035-.046-8.071l-.026-2.84-.01-2.715-.016-2.507C1059 888 1059 888 1060 886l-2.187-.687c-5.464-2.55-8.883-7.16-11.813-12.313a77 77 0 0 1-1.125-4.312L1044 865l-2-1v-4l2-1c.693-2.08.693-2.08 1.25-4.562 1.897-6.665 5.246-11.889 10.938-15.938C1059 837 1059 837 1062 837q.149-6.484.22-12.97.03-2.205.082-4.408c.049-2.118.071-4.234.089-6.352l.063-3.857c-.53-3.988-1.74-5.523-4.454-8.413-1.733-3.467-1.478-7.21-1-11 1.74-3.19 3.447-5.447 6-8 .453-3.2.453-3.2.598-7.008l.117-2.15c.125-2.322.236-4.644.348-6.967l.251-4.789c.53-10.145.996-20.295 1.344-30.448.16-4.396.386-8.78.744-13.165l.2-2.457C1067 713 1067 713 1069 711m1 2c-2.046 3.069-2.27 3.876-2.41 7.37l-.122 2.674-.1 2.897-.127 3.02q-.129 3.178-.246 6.357c-.118 3.18-.248 6.36-.382 9.54-.488 12.053-.734 24.08-.613 36.142h11c-.662-23.222-.662-23.222-1.5-46.437l-.107-2.823c-.248-5.941-.738-11.83-1.393-17.74zm-439.062 78.375c-24.041 11.774-53.9 21.64-80.79 15.082-8.135-1.73-16.825-.558-24.039 3.645-3.7 2.784-5.327 5.38-6.109 9.898.144 3.036.507 6.002 1 9 2.097-1.9 2.097-1.9 3.25-4.375 2.536-3.805 5.654-6.096 10.117-7.223 2.664-.407 5.188-.57 7.883-.59l2.64-.042c2.616.193 4.8.596 7.329 1.214 16.016 3.731 32.322.594 47.781-3.984l2.278-.648c10.817-3.12 20.84-7.597 31.019-12.374C657.625 789.631 686.052 784.61 712 794c6.44 2.425 12.73 5.166 19 8 11.145 5.037 22.25 9.547 34 13l2.194.646c14.485 4.105 30.101 5.418 44.825 1.808 7.442-1.706 15.139-.775 21.981 2.546 3.729 2.773 4.79 5.567 6 10 2.484-3.727 2.524-6.684 2-11-1.72-4.707-3.736-7.369-8-10-8.055-3.34-15.738-4.062-24.191-2.004-27.506 6.315-56.84-5.564-81.255-17.068C714.9 783.528 701.119 778.992 686 778l-2.187-.164c-18.717-.715-36.343 5.416-52.875 13.539M1060 788c-1.726 3.452-1.36 7.219-1 11 1.729 4.185 3.83 6.24 8 8 3.939.583 7.054.387 10.75-1.125 3.955-3.296 6.016-6.235 6.75-11.375-.734-5.14-2.795-8.079-6.75-11.375-7.794-3.188-12.425-1.083-17.75 4.875m-872 1c0 17.428 2.72 31.426 13.438 45.438 6.074 6.074 12.8 9.967 20.562 13.562-.418 8.635-2.826 15.361-8.562 21.938C211 872 211 872 208.688 873.688L207 875v2h-3v26h44v-26h-3v-2l-3.125-2c-6.255-4.276-10.1-11.742-11.875-19-.375-2.327-.72-4.66-1-7l2.203-.344c9.19-2.156 17.928-9.57 22.916-17.417C261.798 816.027 264 804.601 264 789zm440.813 14.938c-22.64 11.044-50.922 20.422-76.184 14.523-9.051-1.587-17.927-1.793-25.629 3.539-2.593 2.426-3.01 4.038-4 7.5-.382 3.584-.382 3.584 2.063 5.875 3.112 1.722 5.4 2.39 8.937 2.625l2-1 .107 1.775q.556 9.174 1.12 18.348.21 3.42.416 6.841.298 4.926.603 9.852l.183 3.073.182 2.91.155 2.537c.284 3.235.775 6.45 1.234 9.664h282c.765-3.058 1.19-5.506 1.389-8.597l.182-2.741.183-2.94.197-3.04q.206-3.181.406-6.362.308-4.863.625-9.724l.397-6.186.19-2.933.171-2.75.153-2.406c.113-2.444.125-4.875.107-7.321l1.563.688c3.708.475 6.158-1.048 9.437-2.688l2-2c-.083-4.339-.784-6.672-3.187-10.312-5.78-5.523-12.507-5.024-20.079-4.891-3.068.167-5.758.504-8.734 1.203-27.274 6.16-57.68-7.286-81.668-18.763-32.734-15.441-64.681-11.95-96.52 3.7M175 802c-.558 5.58-.186 9.22 3 14 4.095 3.905 8.862 7.57 14 10l2-1c-1.64-4.676-3.31-9.34-5-14l-.824-2.348c-1.555-4.089-3.466-6.333-7.176-8.652-3.185-.277-3.185-.277-6 2m92.418-.492c-3.03 3.124-4.011 6.267-5.106 10.367l-1.199 4.18-.56 2.014c-.766 2.673-1.65 5.302-2.553 7.931 11.025-5.078 11.025-5.078 17.906-14.46 1.355-5.038 1.355-5.038-.129-9.845-2.897-2.763-5.106-2.087-8.359-.187M1065 808c-1.341 2.682-1.215 4.884-1.316 7.883l-.127 3.535-.12 3.707-.13 3.73q-.159 4.573-.307 9.145h16c.149-14.029.149-14.029-1-28zm-611 27q-.756 3.874-1.5 7.75l-.434 2.21c-.655 3.433-1.066 6.532-1.066 10.04h8l-.402-1.836c-1.274-6.041-2.1-12.011-2.598-18.164zm597.5 10.563c-3.045 3.832-4.5 6.447-4.5 11.437h49c-1.285-6.423-3.87-11.496-9.07-15.656-11.664-7.403-26.025-6.297-35.43 4.218M466 849l1 4h5l-1-4zm-396 1 1 4Zm2 1-.445 3.305C69.002 871.963 63.42 887.315 55 903h12c4.03-17.117 6.657-34.358 6-52zm65 1c0 9.404 1.1 16.796 7.598 23.855 1.359 1.356 1.359 1.356 3.402 1.145-.443 18.443-.443 18.443-8 26h17v-2l-2.375-2.312c-4.763-4.877-5.288-9.958-5.215-16.579.88-4.641 3.488-7.047 6.61-10.457 4.17-5.585 4.98-12.826 4.98-19.652zm-5 3c.602 2.02 1.273 4.021 2 6l2 1-1-7zm30 0v6c3.125-1.635 3.125-1.635 3.688-4.125L166 855zm-88 1-.136 2.117c-.837 12.694-1.762 25.205-4.278 37.688-.706 3.31-.706 3.31-.586 7.195h12l-.805-4.187C77.545 884.575 75.945 870.447 75 856zm5 0 1 3Zm-10 2 1 3Zm8 0c-.364 8.77.092 17.185 1.313 25.875l.356 2.626c.863 5.772 2.35 11.008 4.331 16.499h11l-1.793-3.594C85.629 886.011 80.387 872.816 78 858zm969 1v1h51v-1zm-966 2 1 3Zm-12 1-.883 2.457C62.677 876.453 57.313 886.268 49 896l-1.844 2.18A610 610 0 0 1 43 903c3.501.623 6.519.815 10 0 2.938-2.849 4.366-6.288 6-10l1.555-3.324c6.91-13.444 6.91-13.444 7.445-27.676m13 2c.531 5.513 1.558 10.38 3.563 15.563l.777 2.05C88.266 889.07 92.06 896.04 96 903h11l-2.227-2.184C94.246 890.126 86.541 878.327 82 864zm965 0v1h51v-1zm-625.375 1.875-2.429.238c-3.752.418-6.972.835-10.196 2.887 12.443 2.568 24.793 3.156 37.473 3.168l3.769.01q3.924.007 7.848.007c3.938.002 7.876.02 11.814.04 11.294.025 22.53-.021 33.78-1.112l2.465-.235c3.647-.41 5.747-.809 8.851-2.878-14.886-3.461-29.811-3.133-45-3v3h-2v-3h-7l-1 4h-9l-1-4c-9.514-.205-18.9-.097-28.375.875M1047 867c1.175 7.052 3.367 11.217 9.07 15.586 7.181 4.584 13.462 5.146 21.93 4.414 3.011-.924 5.41-2.226 8-4l2.688-1.687c3.277-3.278 5.474-7.065 7.312-11.313v-3zm-638 3 1 5c1.935.49 3.873.966 5.813 1.438l3.269.808c8.99 1.73 18.04 1.912 27.172 1.922l3.455.01q3.602.007 7.203.007c3.616.002 7.232.02 10.848.04 10.2.026 20.363.013 30.517-1.05l2.105-.21c4.7-.579 8.432-1.838 12.618-3.965 1.043-2.069 1.043-2.069 1-4-1.43.2-1.43.2-2.89.402-33.199 4.224-68.994 4.335-102.11-.402m447 3v3h2l-1-3zm-6 3 3 2 3-1c-1.066-1.296-1.066-1.296-3.562-1.062zm-4 1v54c7.663 4.135 7.663 4.135 11 4v-55c-7.044-3.176-7.044-3.176-11-3m15-1v2h-5v1h11c-2.868-2.102-2.868-2.102-6-3m-431 4q-.509 3.75-1 7.5c-.095.696-.19 1.392-.29 2.11-.626 4.837-.798 9.512-.71 14.39h1q.758-4.311 1.5-8.625l.434-2.45c.745-4.364 1.239-8.477 1.066-12.925zm10 0q-.758 3.842-1.5 7.688l-.434 2.185c-.722 3.765-1.248 7.272-1.066 11.127 2.438-3.943 2.894-8.255 3.625-12.75l.406-2.402q.492-2.923.969-5.848zm38 0a6011 6011 0 0 0 1.465 8.887c.467 2.715.98 5.414 1.535 8.113h1q-.212-3.407-.437-6.812l-.247-3.833c-.188-3.347-.188-3.347-1.316-6.355zm11 0 4 25h1c-.648-12.032-.648-12.032-2-24zm369 0v56h13v-56zm203 7q-.437 8.208-.854 16.418-.144 2.778-.292 5.556c-.694 13.03-.948 25.977-.854 39.026h25c0-7.85-.083-15.621-.437-23.453l-.135-3.11q-.211-4.844-.428-9.687l-.29-6.629q-.35-8.06-.71-16.121c-3.604-.767-6.811-1.083-10.5-1s-6.896-.233-10.5-1m-521 7 1 12h280c1.745-3.118 1.745-3.118 1-12zm-58 3v5h1v-5zm-46 6 1 3Zm47 1 1 2Zm-56 1v5h1v-5zm67 2 1 4Zm47 0 1 20h5c1.64-6.67 2.514-13.152 3-20zm271 0q.464 3.876.938 7.75l.263 2.21c.42 3.416.916 6.716 1.799 10.04h5c.8-6.708 1.097-13.244 1-20zm-386 7 1 2Zm-231 2v3l3-1-1-2zm300 0 1 2Zm-297.106 4.028L197 922c1.59 1.9 2.486 2.903 4.962 3.37l2.271-.01 2.613.013 2.858-.032h3.016c3.295-.001 6.59-.025 9.885-.048q3.425-.009 6.848-.013c6.012-.011 12.024-.04 18.036-.074 6.133-.03 12.267-.044 18.4-.06q18.055-.05 36.111-.146v-7q-19.87-.141-39.742-.207-9.226-.03-18.453-.095-8.898-.063-17.798-.078a1091 1091 0 0 1-6.8-.043 978 978 0 0 0-9.503-.031l-2.858-.044c-4.988-.128-4.988-.128-8.952 2.526M195 924v4l3-1-1-3zm4 3-2 4c1.59 1.9 2.486 2.903 4.962 3.37l2.271-.01 2.613.013 2.858-.032h3.016c3.295-.001 6.59-.025 9.885-.048q3.425-.009 6.848-.013c6.012-.011 12.024-.04 18.036-.074 6.133-.03 12.267-.044 18.4-.06q18.055-.05 36.111-.146v-7zm-4 6v3l3-1-1-2zM1171 586c4.926 1.231 8.383 3.83 12.428 6.762 3.292 2.243 5.72 3.427 9.732 3.617 5.24.494 9.372 2.313 14.074 4.586l2.549 1.192c2.662 1.248 5.314 2.514 7.967 3.78q4.004 1.889 8.01 3.77 2.481 1.17 4.958 2.348l2.277 1.081 1.984.947c2.312 1.049 4.658 1.989 7.021 2.917l-.09 2.045c-.292 7.074-.447 14.142-.526 21.222q-.07 3.953-.245 7.902c-1.205 14.357-1.205 14.357 3.793 27.186 4.603 3.83 9.663 6.41 15.237 8.546C1262 685 1262 685 1262.79 686.93c.32 3.131-.362 5.854-1.012 8.928l-.873 4.258-.477 2.28c-14.682 70.617-35.63 173.7-1.208 241.076C1261 947 1261 947 1261 949h-2l-3-6-58-1 1 7h-2c-1.528-18.138-2.27-36.078-2.139-54.28q.015-3.695.027-7.392.027-7.748.07-15.494c.043-7.702.068-15.404.089-23.106a26837 26837 0 0 1 .147-41.919l.084-21.69.15-38.64.145-37.39.009-2.353.045-11.695q.184-48.02.373-96.041h-7l-.324 1.696c-1.096 5.356-2.689 10.086-4.899 15.07-11.832 28.323-12.715 54.81-11.777 85.234l9-2c16.255 74.082 13.442 151.068 1.375 225.563l-.46 2.857q-.654 4.014-1.33 8.021l-.393 2.407c-.678 3.938-1.523 7.512-3.192 11.152-1.33-3.75-.705-6.643.04-10.5l.752-4.06.411-2.183c4.099-21.947 6.625-44.047 8.797-66.257l.212-2.132c4.926-49.886 2.383-100.261-5.71-149.628-.631-4.072-1.1-8.139-1.502-12.24l-2.484.656-3.266.844-3.234.844C1168 705 1168 705 1164 705l.411 2.218c3.342 18.199 6.007 36.332 7.589 54.782l.29 3.226c1.004 12.696.954 25.42.96 38.149l.002 3.702c-.017 19.485-.603 38.599-3.252 57.923l-.52 3.814c-3.915 27.641-10.843 54.008-20.48 80.186h-2a664 664 0 0 1 4.832-15.715c13.962-43.607 20.24-89.49 19.168-135.285l-.054-2.59c-.593-25.755-2.919-51.203-7.32-76.575-.21-1.218-.42-2.436-.638-3.69l-.577-3.24c-.38-2.684-.49-5.199-.411-7.905l9-2zm1 2v54c2.058-2.058 2.58-3.16 3.544-5.835l.868-2.388.916-2.582.948-2.653a1734 1734 0 0 0 1.966-5.563 1117 1117 0 0 1 3.055-8.506q.955-2.7 1.906-5.403l.94-2.57.83-2.406.75-2.108c.369-2.644-.257-3.787-1.723-5.986a83 83 0 0 0-6.562-4.25l-1.827-1.102c-2.632-1.852-2.632-1.852-5.611-2.648m25 11v230h1l.351-3.453a35145 35145 0 0 1 1.865-18.28l1.06-10.414.243-2.365c.07-.675.138-1.35.209-2.045.227-2.04.499-4.074.781-6.106.507-4.06.629-8.082.611-12.17l.003-2.261q0-3.714-.01-7.43l.001-5.353q-.001-7.241-.013-14.483-.007-7.577-.008-15.155-.004-14.337-.021-28.675-.015-16.328-.022-32.656-.016-33.577-.05-67.154zm8 4v160h1c4.307-18.915 5.71-36.818 5.507-56.19-.032-3.6-.034-7.199-.04-10.798-.015-6.768-.056-13.535-.107-20.302-.056-7.724-.083-15.45-.108-23.174-.052-15.846-.14-31.69-.252-47.536zm7 3v120c6.874-13.748 6.546-28.879 6.39-43.879q-.01-3.225-.017-6.451c-.015-5.601-.054-11.202-.098-16.803-.042-5.739-.06-11.478-.08-17.217A8988 8988 0 0 0 1218 608zm8 4v84c6.421-9.632 6.565-21.421 6.39-32.586a1769 1769 0 0 1-.017-4.312c-.015-3.732-.054-7.463-.098-11.195-.042-3.828-.06-7.657-.08-11.485-.042-7.474-.11-14.948-.195-22.422zm7 3v58c2.277-2.815 2.277-2.815 2-6l4 2v-52zm8 4c-.152 7.19-.257 14.379-.33 21.57q-.044 3.67-.123 7.339a802 802 0 0 0-.133 10.544c-.03 1.095-.062 2.19-.094 3.318l-.001 3.093-.04 2.719c.715 3.335.715 3.335 6.721 6.417v-53zm-5 50-2 9h15c-2.698-2.698-4.934-4.286-8.187-6.187l-2.731-1.606zm-3 11-2 6h31c-5.85-5.05-5.85-5.05-12.887-6.195l-2.842.02-2.958.05-2.995.027q-3.66.036-7.318.098m-3 8-1 5h37l1-4c-1.167-1.395-1.167-1.395-4.418-1.114q-2.277 0-4.555.016l-2.417.005c-2.557.005-5.115.018-7.672.03q-2.595.008-5.19.014-6.375.017-12.748.049m-2 7-1 6h38l1-6zm-2 8-1 6h38l1-6zm-2 7-1 6h39l1-6zm-1 8-2 6q8.304.037 16.608.055 2.827.008 5.654.02c2.703.013 5.406.018 8.11.023l2.569.015c2.02 0 4.04-.05 6.059-.113l1-1v-5zm-2 7-1 6h39l1-6zm-2 8-1 6h40l1-6zm-2 8v5h40l1-6q-8.518-.037-17.035-.055-2.9-.008-5.8-.02c-2.772-.013-5.545-.018-8.317-.023l-2.636-.015c-3.92-.394-3.92-.394-7.212 1.113m-1 7-1 6h41v-6zm-1 8-1 5h41v-5zm-2 7v6h41v-6zm-1 8v5h41v-5zm-1 7-1 6h42v-6zm-1 8-1 6h42v-6zm-1 7-1 6h42l1-6zm-1 8-1 6h43v-6zm-1 7v6h42v-6zm-1 8v6h43v-6zm0 7-1 6h43v-6zm-1 8v6h43v-6zm0 8-1 5h44v-5zm-1 7v6h43l1-6zm0 8-1 6h44v-6zm-1 7v6h45v-6zm0 8v6h45v-6zm0 7v6h45v-6zm0 8v6h46v-6zm0 7v6h47l-1-6zm0 8v6h48l-1-6zm0 8v5h49l-1-5zm0 7v6h51l-1-6zm0 8v5h52l-1-5zm0 7 1 6h54l-2-6zm1 8v6h57l-2-6zM1 437h2l.445 2.09C6.986 453.926 16.417 463.042 29 471c72.582 44.601 170.086 55.263 503.563 87.125l2.819.117c30.716 1.26 61.41 1.92 92.15 1.925l7.836.006q13.86.014 27.72.012 11.217 0 22.435.02C731.059 560.29 776.5 559.95 822 558l3.805-.163c20.311-.875 20.311-.875 40.613-1.93 1.235-.07 2.47-.14 3.743-.21C963.456 550.363 1056.77 541.664 1202 514l2.42-.56c77.527-15.93 77.527-15.93 139.1-60.62 3.072-5.117 4.457-9.96 5.48-15.82h1c.77 8.316-1.954 13.857-6.844 20.508-54.991 65.456-204.409 73.908-385.72 94.791-46.11 3.99-92.323 6.63-138.564 8.54q-5.595.234-11.191.482c-81.205 3.49-163.248 3.437-267.027-.163q-5.643-.243-11.288-.467C432.614 556.773 335.803 548.922 138 514l-2.234-.541C30.137 487.769 30.137 487.769 6 454c-3.234-5.522-4.538-10.652-5-17"/><path fill="#FFF" d="M1303 587h3c.755 5.827 1.185 11.636 1.5 17.5l.125 2.322q.255 4.822.5 9.643.183 3.55.375 7.097l.107 2.22c-.096 3.4-.096 3.4 1.393 6.218.073 2.53.092 5.033.063 7.563l-.014 2.154q-.02 2.64-.049 5.283l3 1h-3c.256 2.343.593 4.678 1 7l2 1h-2v9h5v2h-2l1 9h8v18l4 1h-4v9l4 1h-4v5l4 1-1.809.68c-3.557 2.143-4.813 5.62-6.726 9.203L1317 723h-3c-.493 4.626-.363 8.532 1 13 4.015 4.337 8.728 7.2 13.75 10.25q1.957 1.266 3.906 2.543c7.158 4.812 7.158 4.812 15.344 7.207v1l-2.477.64c-4.506 1.74-8.014 4.276-11.898 7.11l-2.172 1.555A633 633 0 0 0 1325 771l-1.97.988c-2.525 1.452-4.194 2.736-6.03 5.012-1.033 4.703-.66 9.331-.357 14.102q.092 2.163.173 4.329c.158 3.916.367 7.829.584 11.742.22 4.118.392 8.238.57 12.357a3246 3246 0 0 0 1.126 23.466c.537 10.541 1.018 21.086 1.499 31.63l.465 10.193c.26 5.658.537 11.315.82 16.973.78 15.751 1.298 31.431 1.12 47.208h-37c0-10.867.087-21.651.535-32.497l.172-4.377q.231-5.853.472-11.707.199-4.91.395-9.82.462-11.578.935-23.157.484-11.916.957-23.832.41-10.28.826-20.557.249-6.12.491-12.238.228-5.74.465-11.48.087-2.1.169-4.2.114-2.875.235-5.751l.131-3.243c.236-3.415.695-6.76 1.217-10.141l-1.725-.817c-2.36-1.227-4.489-2.61-6.681-4.117l-2.504-1.716-2.59-1.788-2.59-1.775c-6.512-4.475-6.512-4.475-9.014-6.436-2.266-1.614-4.165-1.972-6.896-2.351v-1l2.596-.77c5.554-2.007 10.386-5.19 15.337-8.357q1.876-1.184 3.786-2.312c7.9-4.49 7.9-4.49 12.325-12.066.252-3.243.272-6.262-.044-9.495l-1.916-.883c-3.121-1.673-4.09-4.208-5.74-7.242-1.551-2.164-2.905-2.883-5.344-3.875l4-1v-5l-3-1h3v-9l-3-1h3v-18h9v-9h-2v-2h5v-9l-2-1h3v-7l-3-1h3l-.07-1.879c-.11-5.409.202-10.55 1.007-15.902 1.236-8.693 1.728-17.395 2.188-26.157l.262-4.708q.315-5.678.613-11.354m1 7c-.677 12.346-1.157 24.634-1 37h3c.115-12.38-.104-24.65-1-37zm-3 39v14h8l-1-14zm0 15-1 7h9v-7zm-1 8v9h9v-9zm-3 11c-1.522 2.67-1.522 2.67-1 9h17v-9zm-9 11v16h34v-16zm0 17v9h34v-9zm0 10v5h34v-5zm1 7c1.878 4.992 1.878 4.992 5 9 2.41.55 2.41.55 5.105.39l2.979-.038 3.103-.102 3.14-.055c2.558-.047 5.115-.119 7.673-.195l5-9zm8 11-1 13h17l-1-13zm-28 32v1h71c-9.08-9.08-21.295-19.384-34.687-19.937-13.251.18-26.413 10.928-36.313 18.937m0 2c2.907 2.907 5.193 4.966 8.512 7.2l2.545 1.724 2.63 1.764 5.2 3.511 2.319 1.558C1292 774 1292 774 1293 775c10.86 1.791 21.514 1.982 30.76-4.457 2.888-2.249 5.69-4.568 8.428-6.998 1.705-1.453 3.428-2.69 5.308-3.904L1340 758v-1zm25 20q-1.182 28.35-2.347 56.699-.54 13.167-1.09 26.333-.48 11.494-.949 22.987-.247 6.07-.503 12.14c-.743 17.625-1.266 35.196-1.111 52.841h34q-1.144-29.457-2.295-58.914-.534-13.68-1.066-27.36l-.93-23.87q-.248-6.309-.492-12.618c-.933-24.127-.933-24.127-2.217-48.238zM74 720h2l3 12 5-10h3v13l3.313-3.937c3.312-3.938 3.312-3.938 6.687-5.063l-.437 1.863-.563 2.45-.562 2.425c-.533 2.369-.533 2.369-.438 5.262l1.645-1.094 2.168-1.406 2.144-1.406C103 733 103 733 106 733c-1.45 4.11-3.511 7.433-6 11l12-3 1 3-8 7 12 1c-1 3-1 3-3.066 4.168l-2.496 1.02-2.504 1.042L107 759v1l10 2 1 3c-4.12 1.292-7.668 2.263-12 2v2l2.688.813c3.103 1.112 5.623 2.289 8.312 4.187v2h-13l9 8-1 2c-4.195-.6-8.01-1.575-12-3l1.313 2.117 1.687 2.758 1.688 2.742C106 793 106 793 106 795c-3.219-.63-5.508-1.78-8.25-3.562l-2.14-1.38L94 789l.656 1.828.844 2.422.844 2.39C97 798 97 798 97 802c-4.649-2.001-6.842-5.125-10-9v13h-3l-5-10-3 11h-3l-.402-2.152-.535-2.785-.528-2.778c-.312-2.238-.312-2.238-1.535-3.285l-5 10h-3v-13l-7 9-3-1 3-12-4.312 3.063c-2.426 1.722-2.426 1.722-4.688 2.937l-3-1 6-10-3.75 1c-2.996.799-5.051 1-8.25 1 2.001-4.649 5.125-6.842 9-10H33v-3l10-5-12-3 1-3 10-2c-3.316-2.487-6.294-4.231-10-6l1-2c2.723-.414 2.723-.414 6.063-.625l3.347-.227L45 751l-1.75-1.426-2.25-1.886-2.25-1.864C37 744 37 744 37 741l12 3-3.062-4.312c-1.723-2.426-1.723-2.426-2.938-4.688l1-3q2.19 1.182 4.375 2.375l2.46 1.336C53 737 53 737 55 739l-.656-2.082-.844-2.73-.844-2.708C52 729 52 729 52 726c5.133.792 6.876 4.094 10 8v-12c4 1 4 1 5.266 3.066l.984 2.496 1.016 2.504L70 732l.875-3.187c.897-3.041 1.89-5.9 3.125-8.813m0 4-3 14-6-12c-.817 3.269-1.11 5.47-1.062 8.75L64 739l-8-9c-1.45 2.9-.454 4.56.438 7.625l.87 3.04L58 743l-9-6c0 3.413.669 4.395 2.5 7.188l1.406 2.167L54 748l-1.863-.691-2.45-.871-2.425-.88c-2.405-.807-2.405-.807-5.262.442l8 7-12 1c3.316 2.487 6.294 4.231 10 6l-12 3 1 2c2.58.69 2.58.69 5.563 1.125l3.066.508L48 767c-3.524 2.784-6.857 4.327-11 6v1q2.375.039 4.75.063l2.672.035c2.36-.09 4.323-.429 6.578-1.098l-2.25 2.188c-2.443 2.498-4.618 5.048-6.75 7.812l12-3-7 11c4.213-1.685 7.323-3.435 11-6l-2 11 2.813-2.312 1.582-1.301C61.999 791 63.5 789.499 65 788l-1 14c2.15-2.867 3.67-5.11 5.188-8.25L71 790l3 13c2.003-3.004 2.493-4.71 3.125-8.187L78 790l6 12h1v-14l8 9c1.31-2.048 1.31-2.048.223-4.602l-1.16-3.023L90 784l10 7 2-1-6-9c2.798 0 4.98.372 7.688 1l2.449.563L108 783l-2.25-2.25L99 774h13c-2.63-1.972-4.931-3.615-7.75-5.187L101 767l2.371-.367 3.067-.508 3.058-.492L112 765l1-2-12-3 10-5v-1l-12-1 8-7c-3.41-1.136-4.003-.867-7.187.438l-2.168.87L96 748l1.059-1.898 1.379-2.477 1.37-2.46q1.137-2.062 2.192-4.165c-4.11 1.45-7.433 3.511-11 6l.691-2.082.871-2.73.88-2.708c.808-2.592.808-2.592-.442-5.48l-1.46 1.934c-.633.826-1.264 1.652-1.915 2.504l-1.898 2.496C86 739 86 739 84 740l.5-2.5c.559-3.913.568-7.552.5-11.5-2.748 3.402-6 7.485-6 12h-2l-.148-2.047-.227-2.703-.21-2.672c-.339-2.925-.339-2.925-2.415-6.578m-19 72 1 2ZM1224.807 301.004c11.557 3.97 22.806-.148 34.293-2.92 15.243-3.547 15.243-3.547 22.338-.709C1284 299 1284 299 1286 301c-.089 3.366-.706 4.697-3.062 7.125-5.647 3.604-11.645 5.1-18.114 6.602l-1.984.466c-5.536 1.299-5.536 1.299-8.205 1.875-10.114 2.201-17.046 5.632-24.635 12.932a732 732 0 0 1-3.602 3.215l-1.531 1.387c-6.793 6.08-11.58 8.398-20.867 8.398 1.485-4.043 3.429-7.611 5.625-11.312l1.914-3.239L1213 326l-1.908.275q-4.327.62-8.654 1.225l-3.002.434c-13.887 1.937-13.887 1.937-17.998-.375-8.142-7.085-16.245-14.497-23.438-22.559v-1c5.482-1.462 11.95-2.333 17.259-.012 2.187 1.341 4.308 2.754 6.429 4.2 5.368 3.353 9.415 5.574 15.823 4.491 3.658-.904 7.117-1.993 10.489-3.679l-2.844-2.117-3.656-2.758-1.879-1.395c-1.577-1.196-3.104-2.459-4.621-3.73v-2c11.016-1.574 19.452.162 29.807 4.004m26.58.496q-2.376.54-4.753 1.076c-4.14.937-8.279 1.887-12.416 2.841a5586 5586 0 0 1-19.92 4.548q-3.463.79-6.923 1.596l-4.259.97-3.735.862c-4.945.888-8.912 1.353-13.264-1.362l-2.082-1.232-2.16-1.299c-7.071-4.037-12.613-5.79-20.875-4.5l1.988 1.984c2.317 2.316 4.624 4.642 6.93 6.97l4.27 4.296 2.193 2.219 2.1 2.11 1.903 1.918c2.912 2.708 5.233 2.695 9.133 2.641 4.978-.277 9.875-1.048 14.796-1.825l3.283-.452 3.142-.498 2.845-.428c3.235-1.251 3.992-2.844 5.417-5.935v-2l1.796-.146c6.537-.586 12.896-1.638 19.329-2.916l2.898-.565q3.49-.68 6.977-1.373l-5 6c6.704-.663 13.048-2.118 19.563-3.812l3.037-.752c5.703-1.476 10.538-3.063 15.4-6.436 1.045-2.621 1.045-2.621 1-5-8.672-7.176-22.765-1.8-32.613.5M1130.5 765.875c2.5.125 2.5.125 3.5 1.125 1.216 7.191 1.35 14.475 1.63 21.75a3037 3037 0 0 0 .28 6.965q.349 8.644.689 17.29.29 7.32.589 14.643.137 3.412.267 6.826c.257 9.818.257 9.818 1.545 19.526 2.779 2.27 2.779 2.27 6 4 4.736 4.341 5.727 9.78 6 16-.922 6.154-3.589 10.697-8 15-2.312.875-2.312.875-4 1l1 2c.146 1.457.236 2.92.297 4.383l.121 2.753.117 2.989.13 3.08q.135 3.24.265 6.477c.13 3.277.269 6.553.408 9.83l.26 6.3c.04.97.08 1.94.123 2.94l.111 2.83.099 2.445c.1 4.323.069 8.648.069 12.973h-41c.71-24.594 1.674-49.17 2.73-73.751q.34-7.953.675-15.907l.53-12.46.25-5.866c.375-8.902.761-17.804 1.311-26.697l.22-3.577C1107 808 1107 808 1108 806l5 1c1.138 10.533 1.556 21.11 2.063 31.688l.275 5.63q.334 6.84.662 13.682c4.084-2.148 4.084-2.148 6.668-5.717.44-3.025.584-6.009.705-9.064l.084-2.042q.135-3.338.262-6.677l.19-4.672q.25-6.157.492-12.316.387-9.813.787-19.624.137-3.403.267-6.806c.992-25.004.992-25.004 5.045-25.207M1130 767c-1.9 4.053-2.324 7.47-2.502 11.927l-.09 2.052c-.095 2.23-.177 4.459-.26 6.689q-.095 2.34-.193 4.682-.2 4.905-.388 9.812-.239 6.253-.497 12.504-.246 6-.484 12.002l-.092 2.279c-.318 8.02-.568 16.024-.494 24.053h11c.08-10.218-.152-20.401-.55-30.61l-.09-2.293q-.233-5.976-.477-11.95-.2-4.929-.375-9.858-.216-5.997-.467-11.992a691 691 0 0 1-.168-4.55 589 589 0 0 0-.257-6.316l-.141-3.627L1133 769zm-21 41c-.92 6.505-1.303 12.957-1.573 19.518l-.148 3.423q-.239 5.58-.47 11.16l-.332 7.802q-.348 8.173-.689 16.347-.392 9.396-.796 18.792-.389 9.091-.77 18.184-.162 3.843-.327 7.685c-.528 12.37-1.049 24.705-.895 37.089h14c.165-16.136-.35-32.201-1.059-48.32l-.329-7.691q-.343-7.984-.693-15.969-.405-9.22-.794-18.441a15223 15223 0 0 0-.77-17.859q-.164-3.78-.323-7.562-.226-5.251-.46-10.502l-.13-3.155-.132-2.878-.109-2.5c-.138-2.31-.138-2.31-1.201-5.123zm8.266 50.926c-3.385 4.592-2.805 8.542-2.454 14.074l.061 2.984c.19 5.215.19 5.215 2.444 9.768 4.64 3.958 9.17 5.526 15.183 5.123 5.55-.802 8.967-3.215 12.75-7.312 3.324-4.868 4.353-8.635 3.75-14.563-2.296-6.85-6.103-10.954-12.5-14.312-7.235-1.99-13.286.048-19.234 4.238M1117 888c-.107 11.76-.076 23.499.438 35.25l.118 2.77c.301 6.345.824 12.658 1.444 18.98h1l2-55zm6 3q-.432 9.525-.854 19.05l-.292 6.467q-.21 4.672-.417 9.346l-.132 2.877c-.28 6.426-.342 12.828-.305 19.26h19c.118-12.538-.344-24.981-1-37.5l-.29-5.707q-.349-6.897-.71-13.793zM139 4c7.878 5.488 11.995 11.985 15 21 1.46 18.2-7.03 35.436-18.492 49.336C134 76 134 76 132.348 77.402c-1.863 2.208-1.85 3.936-2.036 6.785l-.199 2.731L130 89h3l-1 16h-21c-.685-4.113-1.117-7.323-1.062-11.375l.027-2.648L110 89h3c.18-6.207.18-6.207-2.309-11.66L109 75.875c-6.078-5.28-9.322-12.842-13-19.875l-.968-1.84c-5.54-10.591-7.967-20.038-5.419-32.05 3.28-9.188 9.741-15.797 18.309-20.235C117.466-2.143 130.187-1.351 139 4m-40.21 7.086c-5.784 6.187-8.619 12.809-8.856 21.285C90.733 47.512 101.682 66.08 112 77c1.917 1.818 1.917 1.818 4 3l3-1-.61-1.585c-.93-2.427-1.848-4.859-2.765-7.29l-.96-2.492c-3.698-9.858-5.035-18.993-4.978-29.508l.015-3.208c.163-10.85 2.075-19.414 7.31-28.956C118.15 4.068 118.15 4.068 118 2c-7.7 0-13.7 3.926-19.21 9.086M121 2c-10.238 14.643-12.472 31.802-9.762 49.184C113.272 61.37 116.37 70.7 121 80c10.634-15.951 13.36-39.596 9.875-58.125C129.276 15.105 126.708 8.898 123 3zm4 0 .875 2.184L127 7l1 2.473c8.477 21.955 4.929 43.488-2.793 65.027-1.316 3.198-1.316 3.198-1.207 5.5 9.31-2.54 13.883-11.512 18.356-19.32A449 449 0 0 0 146 54l1.032-1.907C151.72 43.2 153.592 35.013 152 25c-2.688-8.589-7.554-14.973-15-20-4.027-2.095-7.405-3-12-3m-10 79v8h13v-8l-1.828.254-2.422.308-2.39.317c-2.365.121-4.111-.183-6.36-.879"/><path fill="#FFF" d="M84 745c4.188 1.318 5.935 2.727 8.25 6.438l1.516 2.37c2.769 4.916 2.806 9.69 2.234 15.192-2.038 6.985-6.792 11.419-12.86 15.14-5.048 2.027-11.36 1.66-16.527.173C61.853 782.136 59.054 779.2 56 775l1-2 3 1c7.05.695 13.256.48 19-4 5.685-6.238 6.34-11.785 6-20-.415-2.935-.415-2.935-1-5M107 913c3.161 1.37 3.993 1.99 6 5l-3 4 3 3-1 1.813c-1.208 2.24-1.208 2.24-1 5.187l2 3-4 4c-3.875-1.875-3.875-1.875-5-3-3.165-.125-6.31-.186-9.477-.205l-3.015-.03q-4.959-.047-9.918-.081l-6.856-.063q-9.043-.083-18.086-.153-9.22-.077-18.439-.161Q20.104 935.145 2 935v-1l102-1 2-4c-1.527-1.527-2.9-1.14-5.03-1.158l-2.63-.03-2.909-.017-3.044-.03q-5.008-.047-10.016-.081l-6.923-.063q-9.132-.083-18.264-.153-9.31-.077-18.62-.161Q20.282 927.145 2 927v-2l103-1v-4c-2.188-2.188-7.429-1.187-10.477-1.205l-3.015-.03q-4.959-.047-9.918-.081l-6.856-.063q-9.043-.083-18.086-.153-9.22-.077-18.439-.161Q20.104 918.145 2 918v-1l3.852-.018q17.946-.086 35.89-.218c6.15-.044 12.302-.084 18.453-.11q8.898-.04 17.798-.117 3.4-.025 6.8-.035c3.168-.01 6.335-.037 9.503-.07l2.858.005 2.613-.038 2.27-.014c2.468-.484 3.375-1.489 4.963-3.385m1 2-2 3h4l-1-3zm-1 9v4l3-1-1-3zm1 8-2 3h4l-1-3zM151 912h2c2.328 3.638 2.236 6.76 2 11l-1 2 2-1c6.248-.463 6.248-.463 9.438 1.5L167 927c-2.495 2.495-3.673 2.36-7.125 2.625l-2.758.227L155 930l.125 3.188c-.116 3.552-.597 5.66-2.125 8.812-2.698-1.994-3.027-3.125-3.75-6.5-.25-3.5-.25-3.5.75-6.5l-3.125.688c-4.359.351-6.202-.449-9.875-2.688 1.904-1.904 3.334-2.935 6.047-3.2 1.985.011 3.97.1 5.953.2l.184-2.117.254-2.758c.08-.905.162-1.81.246-2.742C150 914 150 914 151 912m1 4c-1.296 1.066-1.296 1.066-1.062 3.563L151 922l2 1v-7zm-11 10 1 2h6l1-2zm15 0 1 2h5l1-2zm-4 4c-1.356 1.125-1.356 1.125-1.062 4.063L151 937l2 1v-8zM225 805c3.366 1.443 5.51 3.333 8 6l6-2v9l-2.625-.875c-3.279-.47-3.279-.47-5.11 1.145A69 69 0 0 0 227 823c-3.941-1.668-6.79-4.227-10-7l-4 2 1-9 5 2zm0 2-6 7 6 6c2.884-1.293 4.872-2.66 7-5-1.491-3.795-3.757-5.61-7-8m-10 6 1 2Zm21 0 1 2ZM1166 325c-1 2-1 2-2.81 2.686l-2.338.603-2.547.664-2.68.672-2.656.695C1146.43 332 1146.43 332 1143 332v-2q4.341-1.26 8.688-2.5l2.474-.723c4.03-1.142 7.603-2.122 11.838-1.777M1173 330v2l-12 3v-2q2.437-.755 4.875-1.5l2.742-.844C1171 330 1171 330 1173 330M1137 332v3l-10 2v-2z"/></svg>