<svg xmlns="http://www.w3.org/2000/svg" width="839" height="839"><path fill="#0B090D" d="M0 0h839v839H0z"/><path fill="#100919" d="M416.53 118.815a1246 1246 0 0 0 7.91-.04c15.677-.052 31.042 1.401 46.497 4.037l3.031.514c13.588 2.384 26.88 5.573 39.794 10.463 2.497.934 4.984 1.786 7.52 2.606C561.842 149.815 598.391 174.552 629 204l1.578 1.512c6.171 5.942 11.914 12.029 17.238 18.758a142 142 0 0 0 4.399 5.242C686 268.019 686 268.019 686 283l3.5-.25c4.902.035 8.59 1.273 12.5 4.25 3.188 3.558 4.804 6.782 5.562 11.5-.686 4.274-1.995 7.98-4.562 11.5l-3 1 .731 2.158c11.972 35.598 18.491 70.178 18.519 107.78l.003 2.875c-.01 14.604-.673 28.785-3.253 43.187l-.454 2.719C710.3 501.085 699.593 530.779 685 559l-1.296 2.521C674.673 578.903 663.428 594.89 651 610l-1.335 1.647C627.01 639.494 627.01 639.494 618 644l.484 1.664c1.274 5.772 1.24 11.554-.984 17.023L616 665l-8-1-1.875 3-2.125 3h-2a125 125 0 0 1-4-6c-5.86 1.18-10.02 2.968-14.875 6.5-8.387 5.811-17.087 10.775-26.125 15.5l-2.708 1.43C522.31 704.13 486.878 714.377 451 718l-2.793.286c-10.326.926-20.66.956-31.02.964l-2.89.003c-14.672-.01-28.824-.683-43.297-3.253l-5.258-.844C317.422 707.038 271.382 685.161 233 655l-2.98-2.332c-14.396-11.529-28.379-24.457-39.836-38.938a142 142 0 0 0-4.399-5.242c-13.006-14.824-23.531-32.04-32.693-49.456-.8-1.489-1.627-2.962-2.47-4.427l-1.392-2.421-1.288-2.206C147 548 147 548 147 545l-1.758.29c-4.953.702-8.629 1.017-13.242-1.29-3.84-3.316-6.61-6.256-7.336-11.367-.09-5.749.388-9.136 4.336-13.633 2.25-1.875 2.25-1.875 4-3-.698-6.549-2.52-12.677-4.313-19-2.383-8.634-4.485-17.233-6-26.063l-.444-2.583c-.452-2.78-.854-5.564-1.243-8.354l-.535-3.65c-1.68-12.164-1.865-24.271-1.84-36.538l.003-3.198c.047-17.522.98-34.38 4.372-51.614l.731-3.735C135.206 304.587 167.395 229.736 218 196c-1.302-4.08-1.302-4.08-3-8-.616-5.955.208-9.214 3.418-14.238 2.766-3.08 5.383-4.583 9.484-5.196 6.6-.008 9.883.49 15.098 4.434 4.719-.214 7.97-2.793 11.687-5.438C275.573 153.237 298.975 141.944 323 134l2.67-.89c29.73-9.786 59.61-14.298 90.86-14.295"/><path fill="#150C23" d="m416.875 218.813 2.232.003c33.141.11 66.981 6.554 95.558 24.26 2.296 1.2 2.296 1.2 4.518.181 2.083-1.44 4.007-2.997 5.942-4.632 7.385-5.77 14.36-8.371 23.79-8.008 10.89 1.351 19.643 5.729 26.398 14.383 6.459 9.215 7.751 17.856 6.687 29-1.744 5.933-4.128 11.163-8 16a45.7 45.7 0 0 0 4.54 7.617l1.496 2.066 1.589 2.192c5.319 7.464 10.161 14.97 14.375 23.125l1.195 2.311c24.311 47.66 29.054 102.69 12.844 153.771C602.16 504.61 590.391 525.623 575 545l-1.371 1.754c-5.314 6.796-5.314 6.796-7.629 9.246h-2l-.75 1.75c-1.433 2.58-3.034 4.311-5.25 6.25h-2v2c-2.967 2.759-6.187 5.211-9.37 7.715a541 541 0 0 0-4.728 3.785c-11.73 9.377-24.303 16.366-37.777 22.938l-3.206 1.577c-5.955 2.846-11.412 4.85-17.919 5.985l.14 2.746c.345 11.616-2.19 18.18-9.14 27.254l-1.758-.437-2.367-.563-2.32-.562c-3.081-.528-5.437-.894-8.555-.438-1.879 2.014-3.23 3.719-4.687 6a90 90 0 0 1-4.313 6h-3c-1.902-2.336-1.902-2.336-3.937-5.375-3.11-4.985-3.11-4.985-8.063-7.625-3.08.407-3.08.407-6.25 1.375l-3.266.898L423 638c-9.22-11.755-9.22-11.755-9-19l-1.73.035c-25.562.285-52.361-5.533-75.27-17.035q-1.845-.888-3.691-1.773c-18.148-8.782-34.02-19.155-48.813-32.918-2.205-2.04-4.454-3.994-6.746-5.934-3.988-3.489-7.395-7.28-10.75-11.375l-2.496-3.023C246.172 524.42 234.353 499.395 225 472l-3 1-4-8 5-1-.367-2.193C220.266 447.45 218.315 433.566 219 419l-2.691-.367c-8.205-1.57-15.253-6.01-20.309-12.633-6.196-9.882-8.45-17.958-6.574-29.656 2.573-9.977 8.415-17.44 17.05-22.938 8.427-4.696 15.958-4.773 25.524-4.406l.375-1.625C237.157 329.203 248.643 311.733 260 297l1.797-2.418C273.033 280.088 286.844 266.34 302 256l1.938-1.336c9.934-6.805 20.128-12.63 31.062-17.664l3.48-1.613c24.959-11.115 51.11-16.623 78.395-16.574"/><path fill="#F9B41A" d="M481.48 340.154c20.134 16.624 34.736 40.53 37.52 66.846 1.533 29.354-5.461 56.566-25 79-3.214 3.456-6.566 6.763-10 10l-2-1 12-12c-.708-3.234-.708-3.234-3.725-4.562l-3.619-1.653-1.949-.9a952 952 0 0 0-6.207-2.822l-4.094-1.881c-6.78-3.113-13.589-6.152-20.406-9.182l-3 52c-11.064 3.404-18.984 5.196-30.125 5.188l-2.792.001c-7.194-.055-14.026-.723-21.083-2.189v-1h7c-.61-6.454-2.092-12.351-3.941-18.555a3305.177 3305.177 0 0 0-3.621-12.32q-1.385-4.702-2.762-9.407-.855-2.919-1.72-5.836l-.779-2.651-.69-2.336C390 463 390 463 390 461a383 383 0 0 0-18.25 10.313l-1.89 1.138a2368 2368 0 0 0-10.083 6.127l-2.075 1.26q-1.98 1.204-3.955 2.42C349.225 485 349.225 485 347 485l1.46 1.645 1.915 2.168 1.898 2.144C354 493 354 493 356 496c-14.689-6.455-25.187-26.814-31-41a130 130 0 0 1-4-14l-.535-2.275c-1.34-6.07-1.782-11.83-1.715-18.037l.02-2.782c.108-7.114.666-13.949 2.23-20.906l.742-3.336C328.22 368.154 344.776 346.8 367 333c35.575-21.066 81.842-18.858 114.48 7.154"/><path fill="#F5A381" d="m400 360 2.133.898c15.95 6.128 30.895 4.803 46.867.102 8.765 12.723 6.748 34.986 4.373 49.95-1.554 6.887-3.713 13.514-6.373 20.05l-1.013 2.594-1.018 2.48-.908 2.214C443 440 443 440 439.75 441.062L437 441c1.208 5.602 2.652 8.066 7 12l2 2.625c1.835 2.525 1.835 2.525 4.598 3.55C453 461 453 461 453.558 464.255a116 116 0 0 1-.12 4.308l-.053 2.398c-.412 14.355-1.452 28.711-2.385 43.04-10.266 3.32-19.351 5.195-30.125 5.188l-2.792.001c-7.194-.055-14.026-.723-21.083-2.189v-1h7c-.605-6.445-2.1-12.3-3.977-18.484l-1.78-6.02q-1.405-4.706-2.82-9.408c-.912-3.042-1.813-6.088-2.712-9.135l-.868-2.844-.779-2.651-.697-2.322c-.414-2.407-.247-3.866.633-6.136l2-1c1.062-2.206 1.062-2.206 2-4.812 1.898-5.019 1.898-5.019 3.09-6.989 2.267-5.477 2.055-13.382.91-19.199-1.648-2.244-3.078-3.247-5.441-4.664C392 421 392 421 391.535 418.664c.024-2.26.152-4.427.465-6.664l-1.86-.367c-3.32-.982-4.368-2.723-6.14-5.633-.441-4.194-.475-7.483 2-11 3-2 3-2 6.5-1.812 3.378.784 4.533 1.08 6.5 3.812l1 2 .332-2.484.48-3.266.458-3.234c.73-3.016.73-3.016 2.367-5.157L405 383c-.251-2.011-.251-2.011-1-4a69 69 0 0 1-.125-4.437l.004-2.387c.121-2.176.121-2.176.933-4.926L405 365c-2.333-2.834-2.333-2.834-5-5"/><path fill="#E8514E" d="m232 347 1 4 2.5.188c9.426 2.188 15.449 9.133 20.89 16.761 4.403 7.89 3.988 19.338 1.915 27.934-.924 2.228-1.967 4.112-3.305 6.117l-1.285 2.098c-5.431 8.094-13.882 12.975-23.153 15.59-2.287.278-4.422.343-6.722.332L220 420q.578 5.894 1.172 11.786.296 2.97.586 5.939c.92 14.292.92 14.292 5.867 27.462l1.352 2.231L230 469c-5.75 4-5.75 4-8 4l-4-8 5-1-.367-2.193C220.266 447.45 218.315 433.566 219 419l-2.691-.367c-8.205-1.57-15.253-6.01-20.309-12.633-6.196-9.882-8.45-17.958-6.574-29.656 2.573-9.977 8.415-17.44 17.05-22.938 8.427-4.696 15.958-4.773 25.524-4.406z"/><path fill="#170D21" d="m415.188 331.625 3.048.029c13.7.275 26.431 3.18 38.764 9.346 1.373.069 2.75.085 4.125.063L465 341c-.406 3.452-1.104 5.15-3.125 8.063-2.16 2.644-2.16 2.644-1.507 4.876L461 356c.782 12.826.762 24.747-8 35l.063-1.8c.084-2.734.136-5.466.187-8.2l.102-2.832c.091-6.535-.987-10.551-4.352-16.168l-2.973.875c-15.237 4.278-28.882 4.173-44.027-.875l4 3-.5 1.938c-.758 4.643-1.171 9.634.094 14.21.2.917.2.917.406 1.852-1.375 2.063-1.375 2.063-3 4-1.003 3.008-1.303 5.538-1.562 8.688l-.254 3.011L401 401c-3-3.75-3-3.75-3-6a431 431 0 0 0-4.312-.562l-2.426-.317c-2.43-.269-2.43-.269-5.262.879-1.481 3.501-1.327 7.272-1 11 2.137 3.39 3.177 4.726 7 6v8c-10.956-9.99-19.974-27.35-21.277-42.148-.35-12.033 3.25-20.623 9.277-30.852l1.75-3.312c8.245-9.849 21.246-12.241 33.438-12.063"/><path fill="#6B8C27" d="M468.188 583.688C474.944 589.243 480.41 595.517 483 604v3l3.613-1.566q2.35-1 4.7-1.996l2.38-1.038 2.295-.966 2.11-.905C500 600 500 600 503 601q-3.307 1.48-6.625 2.938l-1.871.841c-3.828 1.673-7.358 2.717-11.504 3.221l.14 2.746c.345 11.616-2.19 18.18-9.14 27.254l-1.758-.437-2.367-.563-2.32-.562c-3.081-.528-5.437-.894-8.555-.438-1.879 2.014-3.23 3.719-4.687 6a90 90 0 0 1-4.313 6h-3c-1.902-2.336-1.902-2.336-3.937-5.375-3.11-4.985-3.11-4.985-8.063-7.625-3.08.407-3.08.407-6.25 1.375l-3.266.898L423 638c-9.22-11.755-9.22-11.755-9-19l-1.871.035c-5.804.062-11.372-.292-17.129-1.035v-1c6.11-.1 11.974-.071 18 1l-.105-1.836c-.359-11.098 2.644-19.82 10.105-28.164 13.84-12.17 29.163-12.796 45.188-4.312"/><path fill="#18A9D4" d="M564 235c7.942 4.519 13.466 11.63 17 20 2.68 11.02 1.445 21.091-4 31a91 91 0 0 1-3 4l-3.375-.437c-4.866-.611-9.743-1.093-14.625-1.563l-.812 1.703c-1.268 2.453-2.678 4.736-4.188 7.047l-1.562 2.422c-.475.603-.95 1.206-1.438 1.828h-2a125 125 0 0 1-4.625-6.5l-1.273-1.879A865 865 0 0 1 537 288c-5.69.538-11.349 1.14-17 2-6.892-10.576-9.246-19.31-8-32 .835-2.6 1.81-4.843 3.125-7.23 1.097-1.89 1.097-1.89.875-4.77l-1-2 2.277-.297c3.078-.795 4.101-1.705 6.285-3.953C535.389 228.99 549.91 228.573 564 235"/><path fill="#FCFCFC" d="M399 444c3.044 1.412 5.572 3.112 8.25 5.125 6.785 4.839 14.253 8.294 21.75 11.875v9l-4-2-.875 2.25A82 82 0 0 1 421 477l2.188.563c3.983 2.035 6.125 4.355 7.812 8.437.615 5.325.472 10.593.313 15.938q-.038 2.192-.069 4.384A784 784 0 0 1 431 517l8-1-.219-3.262c-.249-3.83-.463-7.66-.66-11.493a506 506 0 0 0-.363-5.952c-.299-7.404.796-12.288 5.242-18.293l1-1a59 59 0 0 0 .063-4.062L444 468l-3 2h-3c-.912-7.358-1.115-14.59-1-22 3.786 1.749 6.116 3.972 9 7 2.3 2.368 4.236 4.158 7 6 .298 2.59.372 4.908.313 7.5l-.026 2.411c-.263 14.374-1.353 28.747-2.287 43.089-10.266 3.32-19.351 5.195-30.125 5.188l-2.792.001c-7.194-.055-14.026-.723-21.083-2.189v-1h7c-.605-6.445-2.1-12.3-3.977-18.484l-1.78-6.02q-1.405-4.706-2.82-9.408c-.912-3.042-1.813-6.088-2.712-9.135l-.868-2.844-.779-2.651-.697-2.322c-.414-2.407-.247-3.866.633-6.136l2-1c1.062-2.206 1.062-2.206 2-4.812 1.194-3.158 2.437-6.194 4-9.188"/><path fill="#E1876F" d="m400 428 2.895 1.61c10.728 5.892 20.934 10.383 33.105 12.39v5l2 1v22l6-2c1.467 2.933 1.364 4.72 1 8-1.453 2.822-3.205 5.387-5 8-1.461 2.922-1.111 5.499-1.098 8.758l.005 2.01c.005 2.118.018 4.238.03 6.357q.009 2.154.014 4.309.017 5.283.049 10.566l-8 1-.012-2.735q-.044-5.063-.14-10.125a360 360 0 0 1-.044-4.367c.104-11.432.104-11.432-5.804-20.773-2.134-1.45-2.134-1.45-4-2 1.199-3.083 2.477-6.063 4-9l3 1 1-8c-1.257-.38-1.257-.38-2.54-.77-6.533-2.322-12.475-5.77-18.46-9.23l-2.754-1.52c-2.51-1.7-3.807-2.794-5.246-5.48-.89-5.308-.46-10.668 0-16"/><path fill="#F9BB9E" d="M224 369h1v5h8v-2h5c.928 15.283.928 15.283-1.3 19.406-1.637 1.656-1.637 1.656-3.298 3.102-2.563 2.728-2.275 5.884-2.402 9.492l2.438.438C236 405 236 405 237 406c.234 1.849.413 3.705.563 5.563l.253 3.066L238 417c-1.495.515-2.996 1.01-4.5 1.5l-2.531.844c-3.76.83-7.123.755-10.969.656q.578 5.894 1.172 11.786.296 2.97.586 5.939c.92 14.292.92 14.292 5.867 27.462l1.352 2.231L230 469c-5.75 4-5.75 4-8 4l-4-8 5-1-.367-2.193C220.266 447.45 218.315 433.566 219 419l-2.75-.375C213 418 213 418 209 416v-10l9-2c-.216-6.15-1.271-8.902-5.504-13.328-2.058-2.3-3.231-4.876-4.496-7.672l-1-1a100 100 0 0 1 0-5h3l2-5 11 2z"/><path fill="#25353D" d="M390 461c3.669 11.164 7.045 22.407 10.259 33.71q.615 2.16 1.236 4.318.883 3.073 1.747 6.152l1.027 3.616c.657 2.879.886 5.27.731 8.204-8.844.917-15.92-1.74-24-5 3.478-1.16 5.459-.708 9 0l1-2-2.117-1.426-2.758-1.887-2.742-1.863C381 503 381 503 379 500c-.993-10.997.602-22.105 2-33l-2-1a397 397 0 0 1 3.813-2.5l2.144-1.406C387 461 387 461 390 461"/><path fill="#FAFAFA" d="M437 448c3.786 1.749 6.116 3.972 9 7 2.3 2.368 4.236 4.158 7 6 .298 2.59.372 4.908.313 7.5l-.026 2.411c-.263 14.374-1.353 28.747-2.287 43.089-10.62 3.433-19.802 5.161-30.937 5.063l-2.94-.014q-3.561-.018-7.123-.049v-1l19-1v-32l2 1v31l8-1-.219-3.262c-.249-3.83-.463-7.66-.66-11.493a506 506 0 0 0-.363-5.952c-.299-7.404.796-12.288 5.242-18.293l1-1a59 59 0 0 0 .063-4.062L444 468l-3 2h-3c-.912-7.358-1.115-14.59-1-22"/><path fill="#0B1520" d="m381 467-.219 3.41c-.25 4.044-.466 8.088-.66 12.135a584 584 0 0 1-.249 4.7c-.11 2.02-.179 4.044-.247 6.067l-.148 3.551c.811 4.865 3.81 6.796 7.543 9.719l1.793 1.23L392 510l-2 3c-15.478-2.172-33.406-13.804-43-26v-2c2.092-1.449 2.092-1.449 5.004-3.117l3.185-1.84 3.373-1.918 3.292-1.895q3.16-1.817 6.33-3.62a295 295 0 0 0 5.05-2.947C377.694 467 377.694 467 381 467"/><path fill="#F9AE41" d="M229 355c5.367 1.825 8.965 5.292 12 10 2.077 5.02 2.266 9.348 2.195 14.68l-.008 2.463a1386 1386 0 0 1-.062 7.732q-.016 2.632-.027 5.266-.035 6.43-.098 12.859l4 1v3c-5.176 3.223-5.176 3.223-7 4l-3-1-1-9-5-2c-.308-2.925-.522-5.141 0-8 1.336-1.527 1.336-1.527 3-3 3.21-3.202 3.376-5.861 3.422-10.197A224 224 0 0 0 237 373l-4-1v2h-8l-1-2-1 2-2.3-.36-3.012-.39-2.989-.422c-2.843-.128-2.843-.128-4.554 2.156L209 377c-.345-4.844-.564-8.779 1.5-13.25 5.606-6.166 9.91-9.997 18.5-8.75"/><path fill="#F8BA9D" d="M453 589c4.995 2.262 7.13 5.185 9.32 10.027.83 2.41.996 4.447.68 6.973h2c-.434 5.424-1.55 8.76-5 13-2.125 1.438-2.125 1.438-4 2l-2-1a79 79 0 0 0-4.875-.125l-2.617-.008c-2.315.123-4.29.483-6.508 1.133a248 248 0 0 1-4-4.125l-2.25-2.32c-2.116-3.09-2.09-4.887-1.75-8.555h2l.25-3.062c.769-5.264 2.902-9.301 6.938-12.875 4.028-1.523 7.561-1.716 11.812-1.063"/><path fill="#784A35" d="M611.742 638.953c2.39 1.207 4.326 2.189 6.258 4.047 1.942 6.279 1.962 13.636-.5 19.688L616 665l-8-1-1.875 3-2.125 3h-2a125 125 0 0 1-4-6l-8 1c-3.547-5.468-3.838-10.682-3-17 4.81-10.176 14.497-12.608 24.742-9.047"/><path fill="#E87F4E" d="M700.313 285.625c4.264 3.769 6.364 7.156 7.187 12.813-.623 4.436-2.267 7.723-4.5 11.562l-8-1-2 4-1-3h-2l-1 3-2-4-8 1c-2.935-5.044-4.961-9.017-4-15 2.235-5.47 5.347-9.118 10.82-11.441 5.304-1.36 9.665-.302 14.492 2.066"/><path fill="#17A5CF" d="M237 169c4.575 2.043 7.08 4.754 9.305 9.148 1.473 3.923 1.367 7.207-.211 11.07A95 95 0 0 1 243 195l-2.687-.25c-4.003.302-5.441 1.547-8.313 4.25l-1.355-1.164c-1.838-1.466-3.556-2.753-5.645-3.836-2.91.51-2.91.51-5 2-3.313-4.45-5.882-8.282-5.488-13.98 1.18-4.884 3.776-8.755 7.793-11.723 4.747-2.284 9.55-1.911 14.695-1.297"/><path fill="#F4AC40" d="M147.059 515.66c4.626 2.299 7.307 5.546 8.941 10.34.894 5.251.018 9.58-3 14-2.908 1.407-4.985.97-8 0l-2 4-1-3h-2l-1 3-1-1.5c-3.176-2.382-6.102-1.692-10-1.5-3.316-5.25-3.876-9.954-3-16 4.4-9.137 12.507-12.403 22.059-9.34"/><path fill="#F5B89C" d="m545.875 246.438 2.434-.073c4.334.01 6.16.221 9.68 2.963 2.135 2.837 3.135 5.247 4.011 8.672h2v6l-3 1c-1.385 1.76-2.528 3.608-3.719 5.504L556 272h-3l-1-2h-3l2 1v5c-5.75 1.125-5.75 1.125-8 0l1-5c-2.364-.08-2.364-.08-6 1l-5-8-2 2c-2-3-2-3-1.625-5.687L530 258h2l.813-3.25c2.507-7.919 5.245-8.418 13.062-8.312"/><path fill="#0B1520" d="M462 466c6.525 1.043 12.227 4.076 18.188 6.813l3.638 1.619 3.467 1.588 3.173 1.44c2.686 1.633 3.5 2.623 4.534 5.54-7.168 7.472-14.098 14.573-23 20l-2.477 1.527C463.617 508 463.617 508 459 508v-2c6.75-4 6.75-4 9-4 .493-7.028-1.336-13.46-3-20.25q-.848-3.507-1.687-7.016l-.762-3.118C462 469 462 469 462 466"/><path fill="#26363D" d="m453 461 10 4 .336 3.836c.701 6.331 2.374 12.383 4.023 18.523 1.313 5.176 2.158 9.363.641 14.641-2.137 2.137-4.165 2.757-7 4h-2v2l10-3c-3.157 3.157-6.092 4.538-10.125 6.188l-1.957.826C452.168 514 452.168 514 451 514c-.16-11.683.34-23.276 1-34.937l.29-5.288q.349-6.387.71-12.775"/><path fill="#E5E5E5" d="M399 444c3.044 1.412 5.572 3.112 8.25 5.125 6.785 4.839 14.253 8.294 21.75 11.875v9l-4-2-.75 2.063c-1.492 3.506-3.318 6.653-5.25 9.937-3.55-1.507-5.791-3.572-8.477-6.316l-2.53-2.565-2.618-2.682q-2.579-2.63-5.164-5.253l-2.303-2.358c-1.784-1.887-1.784-1.887-3.908-2.826.535-5.348 2.467-9.358 5-14"/><path fill="#0F1925" d="m425 468 1.875 1c4.925 1.576 10.611 2.106 15.434-.016L444 468c1.467 2.933 1.364 4.72 1 8-1.453 2.822-3.205 5.387-5 8-1.461 2.922-1.111 5.499-1.098 8.758l.005 2.01c.005 2.118.018 4.238.03 6.357q.009 2.154.014 4.309.017 5.283.049 10.566l-8 1-.012-2.735q-.044-5.063-.14-10.125a360 360 0 0 1-.044-4.367c.104-11.432.104-11.432-5.804-20.773-2.134-1.45-2.134-1.45-4-2 1.199-3.083 2.477-6.063 4-9"/><path fill="#09B6C0" d="M209 406c4.928.417 6.978 2.55 10.313 6.063l2.675 2.785L224 417l1.32-1.137A872 872 0 0 1 237 406l1 11c-6.406 2.135-11.28 3.172-18 3q.578 5.894 1.172 11.786.296 2.97.586 5.939c.92 14.292.92 14.292 5.867 27.462l1.352 2.231L230 469c-5.75 4-5.75 4-8 4l-4-8 5-1-.367-2.193C220.266 447.45 218.315 433.566 219 419l-2.75-.375C213 418 213 418 209 416z"/><path fill="#E87C4B" d="m699 285-1 10-1-3h-10l-2 7c.99 1.666.99 1.666 3 3 2.718.273 5.257.135 8 0v2c-3.445 2.296-5.938 2.54-10 3v2l-7 1c-2.935-5.044-4.961-9.017-4-15 2.238-5.476 5.35-9.089 10.805-11.453A19.2 19.2 0 0 1 699 285"/><path fill="#2C2832" d="m695 309 7 1-2 1 .731 2.158c11.972 35.598 18.491 70.178 18.519 107.78l.003 2.875c-.01 14.603-.67 28.786-3.253 43.187l-.502 2.977c-.796 4.7-1.621 9.397-2.533 14.078l-.418 2.171C712 488 712 488 710 490c.415-5.959 1.286-11.767 2.438-17.625 6.238-32.106 6.123-65.06 1.562-97.375l-.406-2.886c-2.601-17.664-6.867-36.112-13.34-52.778C699 316 699 316 699 313l-1.687 1c-2.616 1.131-4.494 1.157-7.313 1l-1-2 1-3h2l1 2z"/><path fill="#DEDFDE" d="m540 278 1.625 1c2.991 1.26 5.152 1.269 8.375 1 2.302-.898 2.302-.898 4-2v5l6 2-2 3h-2l-.812 1.703c-1.268 2.453-2.678 4.736-4.188 7.047l-1.562 2.422c-.475.603-.95 1.206-1.438 1.828h-2a122 122 0 0 1-4.437-6.312c-3.368-5.182-3.368-5.182-7.563-9.688 3-2 3-2 6-2z"/><path fill="#DBDAD9" d="m442 626 1.563 1.063c3.406 1.31 5.912.655 9.437-.063l2-1 .125 1.813c.752 2.538.752 2.538 3.938 3.937L462 633l-2.625 3c-2.896 3.348-5.47 6.852-7.98 10.496L450 648h-3c-1.937-2.3-1.937-2.3-4-5.312-2.645-3.9-2.645-3.9-5.75-7.418C436 634 436 634 436 632l2.438-.75c2.733-.972 2.733-.972 3.375-3.375z"/><path fill="#E5E5E4" d="M437 448c3.786 1.749 6.116 3.972 9 7 2.3 2.368 4.236 4.158 7 6 .34 1.971.34 1.971.293 4.352l-.03 2.578-.075 2.695-.042 2.719q-.053 3.329-.146 6.656l-.805-1.922c-1.104-2.416-1.104-2.416-4.32-3.328L445 474l-1-6-3 2h-3c-.912-7.358-1.115-14.59-1-22"/><path fill="#F2AA40" d="M149 517c4.678 4.121 6.811 6.657 7.313 12.875-.112 3.979-1.038 6.793-3.313 10.125-1.875 1.063-1.875 1.063-4 1-2.75-1.437-2.75-1.437-5-3 .475-2.217 1.02-4.039 2.063-6.062 1.155-2.03 1.155-2.03.937-4.938-2.979-1.655-5.66-2.385-9-3l-2-1-2 4c.259-3.795.554-5.541 3.25-8.312 3.891-2.388 7.422-3.582 11.75-1.688"/><path fill="#F5B89C" d="M598 645c2.383-.293 2.383-.293 5.125-.187l2.758.082L608 645c1.928 3.602 2.487 5.864 2 10-1.156 2.498-2.51 4.671-4 7l3 1a340 340 0 0 1-2.375 3.5l-1.336 1.969L604 670h-2c-1.29-1.75-1.29-1.75-2.625-4l-1.352-2.25L597 662l2-1-.875-1.75L597 657l-1.187-1.937c-1.08-2.743-.67-4.277.187-7.063z"/><path fill="#123347" d="M569.46 288.66c4.23 1.601 6.053 3.83 8.477 7.465l1.206 1.707A256 256 0 0 1 582 302l-1 2-9-11c-3.91 1.835-3.91 1.835-6.875 4-5.801 3.713-10.416 4.231-17.125 4 1.456-3.058 3.133-5.863 5-8.687l1.563-2.387c3.608-4.835 9.75-2.248 14.898-1.266"/><path fill="#3E2C1F" d="M553 240c4.353 2.292 7.124 5.469 9 10 .125 3.25.125 3.25 0 6l-1.812-2.312c-2.912-4.017-2.912-4.017-7.133-6.092a318 318 0 0 0-7.055-.034l-2.484-.06c-4.698-.101-4.698-.101-8.504 2.322-1.241 2.669-2.178 5.355-3.012 8.176h-1c-.112-6.884 1.583-10.497 6.309-15.469 4.317-3.908 10.21-3.28 15.691-2.531"/><path fill="#06263A" d="M534.492 286.578c3.213.54 4.268 2.024 6.147 4.59l1.173 1.707 1.233 1.684C546 298.68 546 298.68 546 301c-10.304.75-17.201-3.625-25-10 2.251-2.251 3.269-2.48 6.313-3.125l2.3-.508q2.443-.376 4.88-.789"/><path fill="#F5B79B" d="M136 523c8.571.714 8.571.714 12 4-.75 5.75-.75 5.75-3 8l.625 2.375L146 540c-1.937 2.313-1.937 2.313-4 4v-3h-2l-1 3c-1.5-1.312-1.5-1.312-3-3v-3h2l-1.937-3.25c-1.469-2.558-2.592-4.803-3.063-7.75h2z"/><path fill="#093837" d="M437.094 634.602c2.51 1.84 4.236 3.951 6.156 6.398l2.14 2.688C447 646 447 646 447 648c-7.801.9-13.395-1.978-20-6-1.855-1.574-1.855-1.574-3-3v-2c1.744-.56 3.496-1.097 5.25-1.625l2.953-.914c2.797-.461 2.797-.461 4.89.14"/><path fill="#483021" d="M532 262c2.24 2.88 4.162 5.849 6 9l1.75-.437L546 269l-3 7h8v-5l-3-1 4-1 1 3c4.662-1.498 5.866-4.885 8-9h1c-.364 5.951-1.947 9.599-6 14-3.062 2.541-4.934 3.882-8.898 4.32-5.451-.563-8.575-4.371-12.102-8.32-2.332-3.659-3-6.609-3-11"/><path fill="#F6A642" d="M207 382c2.497 2.372 4.48 4.501 6.063 7.563 1.614 3.348 1.614 3.348 3.687 4.875 2.215 2.768 1.418 6.14 1.25 9.562-3.371 1.498-5.204 2-9 2-2.158-5.25-2.24-9.808-2.125-15.375l.027-2.52c.024-2.035.06-4.07.098-6.105"/><path fill="#F1B49A" d="m231 177 1 2 1.938-.562L236 178c1.895 1.895 1.18 4.571 1.23 7.09C237 187 237 187 235 189v3l2 1c-1.049 2.622-1.65 3.794-4.125 5.25L231 199c-1.887-1.979-3.537-3.718-5-6 .188-2.312.188-2.312 1-5 .112-3.002.059-5.997 0-9h4z"/><path fill="#063637" d="M461.402 634.781c4.328.356 7.782 1.104 11.598 3.219-4.547 5.115-9.528 7.843-16 10-2.333.04-4.667.044-7 0a168 168 0 0 1 4-7l1.027-1.836c1.752-2.655 3.163-4.09 6.375-4.383"/><path fill="#272E32" d="M229 172c6.353.353 6.353.353 8.875 2.875 2.28 4.308 2.525 8.342 2.125 13.125-1 3-1 3-2 5l-4-1c.875-3.875.875-3.875 2-5a59 59 0 0 0 .063-4.062L236 179h-9l1 13h-3c-1.97-3.94-1.46-8.706-1-13 1.192-2.807 2.834-4.834 5-7"/><path fill="#381C14" d="M460 618c0 3 0 3-2.25 5.5L455 626l-1.875 1.875c-3.452 1.827-5.438 1.25-9.125.125-2.653-2.07-4.962-4.318-7-7v-2l2.938.563L443 620l1-1c1.623-.099 3.25-.13 4.875-.125l2.68-.008C454 619 454 619 457 620z"/><path fill="#494B5C" d="M219 419h9v1h-8q.578 5.894 1.172 11.786.296 2.97.586 5.939c.92 14.292.92 14.292 5.867 27.462l1.352 2.231L230 469c-5.75 4-5.75 4-8 4l-4-8 5-1-.367-2.193C220.266 447.45 218.315 433.566 219 419"/><path fill="#F6B89C" d="M693.09 290.867C695 291 695 291 697 292c.875 3.313.875 3.313 1 7-1.5 2.438-1.5 2.438-4 4-3.562.563-3.562.563-7 0-2.062-2.125-2.062-2.125-3-5 1.535-6.654 2.398-7.109 9.09-7.133"/><path fill="#C6C6CA" d="m429 485 2 1v31l8-1 1-4 1 5c-7.133 1.72-13.802 2.259-21.125 2.125l-2.898-.027A879 879 0 0 1 410 519v-1l19-1z"/><path fill="#052539" d="M565 288c-1.163 3.256-2.147 4.097-5.125 6.063L557 296v3l-1 2h-8c1.456-3.058 3.133-5.863 5-8.687l1.563-2.387c2.992-4.009 5.891-2.684 10.437-1.926"/><path fill="#DEDDDB" d="m461 632 1 2-2.187 1.563c-3.314 2.87-5.37 5.808-7.813 9.437-2.195-3.95-3-7.488-3-12 4.226-3.713 6.983-3.026 12-1"/><path fill="#E1E3E3" d="M543.875 283.313 547 285l-1 2.125c-1.09 3.135-1.153 5.58-1 8.875-4.233-1.512-5.663-4.306-8-8-1.624-1.794-1.624-1.794-3-3 3.729-2.456 5.767-3.495 9.875-1.687"/><path fill="#68393F" d="m137 541 2 2 1-2h2l1 2 2-3 7 1-1.562 1.063c-1.84 2.032-1.84 2.032-1.125 5.625L150 551c-1.5-1.312-1.5-1.312-3-3v-3c-.58.095-1.16.19-1.758.29-4.964.704-8.579.93-13.242-1.29-1.875-1.625-1.875-1.625-3-3 3.323-1.108 4.692-.933 8 0"/><path fill="#012D42" d="M529 288a283 283 0 0 1 5 5l3 2-1 4c-6.465-.166-10.304-4.003-15-8 2.513-2.513 4.489-3 8-3"/><path fill="#F5A581" d="M400 431c2.501 3.102 4.217 6.287 5.938 9.875 2.103 4.29 4.267 8.255 7.062 12.125-5.264-1.48-9.915-4.482-13-9-.674-4.415-.48-8.571 0-13"/><path fill="#432918" d="m145 518 2 1c.594 2.649.742 5.292 1 8l-2.187-.937c-2.62-.99-5.071-1.544-7.813-2.063l-2-1-2 4c.325-2.928.596-5.326 2.125-7.875 2.93-1.758 5.542-1.367 8.875-1.125"/><path fill="#240A07" d="m697 286 2 2c-.375 3.625-.375 3.625-1 7l-1-3h-10l-2 6h-1v-8l3-1 1-3c3.35-.838 5.73-1.24 9 0"/><path fill="#174645" d="M431 637c2.14 1.27 2.14 1.27 4.25 2.813l2.14 1.519C439 643 439 643 439 647c-6.107-1.67-10.486-3.486-15-8v-2c3.212-1.07 3.935-1.089 7 0"/><path fill="#40384B" d="m289 266 2 1c-4.953 5.653-10.031 11.154-15.312 16.5l-1.525 1.563c-2.537 2.544-4.803 4.596-8.163 5.937 1.563-3.766 3.906-6.136 6.79-8.984l1.403-1.396q2.21-2.19 4.432-4.37l3.008-2.98q3.676-3.642 7.367-7.27"/><path fill="#A46828" d="M237 391v15l-6-2c-.614-7.244-.614-7.244 2.438-11 2.562-2 2.562-2 3.562-2"/><path fill="#07415A" d="M225 193c1.824.996 1.824.996 3.688 2.438l1.886 1.433L232 198l2.188-2.062C237 194 237 194 239.813 194.25L242 195c-3.18 3.498-5.555 4.864-10.312 5.313-4.257-.361-6.88-1.448-10.688-3.313l1-3z"/><path fill="#164445" d="M470.832 636.797 473 638c-3.08 3.255-5.88 6.146-10 8-2.812-.312-2.812-.312-5-1v-2c2.012-1.797 2.012-1.797 4.688-3.75l2.636-1.984C468 636 468 636 470.832 636.796"/><path fill="#ECEBED" d="M225 461c2.011 2.56 3.628 5.046 5 8-5.75 4-5.75 4-8 4l-4-8 2.938-1.437c2.867-1.265 2.867-1.265 4.062-2.563"/><path fill="#FEF9ED" d="M340 390c2.34 2.128 3.707 4.116 5 7-5.75 4-5.75 4-8 4l-4-8z"/><path fill="#ECECED" d="M622 558c3.875 4.75 3.875 4.75 5 7-5.75 3.875-5.75 3.875-8 5l-1.437-3.375c-.816-1.892-1.642-3.782-2.563-5.625z"/><path fill="#AA6C2C" d="M212 391c4.228 2.819 4.228 2.819 6 5 .539 2.856.298 5.065 0 8l-4 1c-1.906-3.212-2.223-5.539-2.125-9.25l.055-2.703z"/><path fill="#ECA88E" d="M437 460h1v10l2 1q-2.47.039-4.937.063l-2.778.035C430 471 430 471 429 470a75 75 0 0 1-.062-4.562l.027-2.504L429 461l.805 1.953L431 465c3.06.816 3.06.816 6 1z"/><path fill="#CCCED0" d="M446 463h3c.982 4.053 1.082 7.839 1 12l-5-1-.375-2.937L444 468l-2-1h2z"/><path fill="#EFAF4D" d="M546 287h2c2.125 4.625 2.125 4.625 1 8l1 3-2 3h-2c-1.625-2.5-1.625-2.5-3-5h2l-.625-2.812C544 290 544 290 546 287"/><path fill="#DCAD99" d="m540 278 1.625 1c2.991 1.26 5.152 1.269 8.375 1 2.302-.898 2.302-.898 4-2-.482 4.578-.482 4.578-2.687 6.375-3.09.835-5.232.412-8.313-.375l-3-2z"/><path fill="#DD5552" d="m448 635 3 2c.293 2.383.293 2.383.188 5.125l-.083 2.758L451 647l-4 1c-.758-4.295-1.242-7.777 0-12z"/><path fill="#E0C7A2" d="M597 662h12c-3.71 6.25-3.71 6.25-5 8h-2c-1.876-2.547-3.383-5.277-5-8"/><path fill="#EEEFEF" d="m449 460 4 1v19l-2-4-2-1z"/><path fill="#EB8F72" d="m390 396 3 1-4 1c2.052 2.248 3.007 3.002 6 4l-1 7-5-1 1-3-2-3c-.125-2.687-.125-2.687 0-5z"/><path fill="#ECB095" d="m546 269 5 2v5c-5.75 1.125-5.75 1.125-8 0 .75-4.75.75-4.75 3-7"/><path fill="#E0A992" d="m442 626 1.563 1.063c3.406 1.31 5.912.655 9.437-.063l2-1-1 5c-2.625 1.188-2.625 1.188-6 2-3.375-1.375-3.375-1.375-6-3z"/><path fill="#F3B399" d="M209 407v9c-6.875-3.625-6.875-3.625-8-7 3.088-1.765 4.233-2 8-2"/><path fill="#04283B" d="M599 664c3 3.444 3 3.444 3 6-6.4-.492-6.4-.492-9.437-3.062L591 665c4.625-2.125 4.625-2.125 8-1"/><path fill="#E4AB93" d="m218 397 1.625 1.063c3.995 1.577 7.43.252 11.375-1.063v6c-5.26.316-8.446-.334-13-3z"/><path fill="#082A3D" d="m608 663 7 2c-2.518 3.123-3.726 3.945-7.75 4.75L604 670c1.074-2.915 1.778-4.778 4-7"/><path fill="#2F1D27" d="M384 409c2.929.628 5.361 1.586 8 3v8c-5.802-5.645-5.802-5.645-8-9z"/><path fill="#30302E" d="m695 309 7 1-2 1v2c-3.508 1.604-6.144 2.22-10 2l-1-2 1-3h2l1 2z"/><path fill="#472C1C" d="M606 641c1.875 1.5 1.875 1.5 3 3l-1 2-2.117-.035-2.758-.028-2.742-.035c-2.4-.064-2.4-.064-4.383 1.098.313-1.875.313-1.875 1-4 3.47-2.313 4.922-2.425 9-2"/><path fill="#CACDCF" d="M229 192c5.75-.125 5.75-.125 8 1-1.049 2.622-1.65 3.794-4.125 5.25L231 199c-1.562-1.25-1.562-1.25-3-3 .313-2.187.313-2.187 1-4"/><path fill="#393639" d="m145 540 7 1-1.562 1.063c-1.84 2.032-1.84 2.032-1.125 5.625L150 551c-1.5-1.312-1.5-1.312-3-3v-3l-5 1z"/><path fill="#D8D7D4" d="M686 307h9l1 2-4 4v-3h-2l-1 3c-3-3.75-3-3.75-3-6"/><path fill="#DBCCCB" d="M136 538h9l1 2-4 4v-3h-2l-1 3c-1.5-1.312-1.5-1.312-3-3z"/><path fill="#462319" d="M686 302h10v2c-3 2-3 2-6.187 1.625L687 305z"/><path fill="#340606" d="m687 309 2 5c-5.538-.615-5.538-.615-7.875-2.562L680 310c3-1 3-1 7-1"/><path fill="#E5A647" d="M546 287h2l2 5c-1.875 1.063-1.875 1.063-4 2l-2-1c.506-2.169 1-4 2-6"/><path fill="#013851" d="M237 194c2.625.375 2.625.375 5 1-2.53 3.092-5.225 3.91-9 5 1.152-2.468 2.048-4.048 4-6"/><path fill="#4D261C" d="m688 286 2 1-3 2zm-3 3q2.514.428 5 1l-1.937 1.188c-2.5 2.197-2.713 3.57-3.063 6.812h-1c-.098-6.152-.098-6.152 0-8z"/><path fill="#102D3E" d="M596 663c3.412 1.137 4.119 2.043 6 5v2h-4c-1.46-2.647-2-3.894-2-7"/><path fill="#CEA18D" d="m540 278 9 3c-3.228 2.152-4.284 2.2-8 2z"/><path fill="#E7B19A" d="m442 626 4 2v3h4v2l-7-2z"/><path fill="#CFA998" d="m228 189 6 1-1 3h-4l-2 2c0-3 0-3 1-6"/><path fill="#252325" d="M225 181h1c1.47 4.412 2.369 7.483 1 12l-2-1z"/><path fill="#B4A296" d="M530 258h2c.93 2.606 1.15 3.642.063 6.25L531 266c-2-3-2-3-1.625-5.687z"/><path fill="#F1EFEF" d="m441 637 6 4-2 4c-4-5.75-4-5.75-4-8"/><path fill="#D7AD84" d="M434 602h1v10h-3v-6h2z"/><path fill="#F0B198" d="m243 408 4 1v3l-4 2z"/><path fill="#DBDBDA" d="M604 662h5l-4 6c-1.062-1.875-1.062-1.875-2-4z"/><path fill="#47413C" d="M132 540c2.51 1.255 2.871 2.5 4 5-3.27-.564-4.826-1.5-7-4z"/><path fill="#EFF0EF" d="M554 289c0 3.599-.958 5.095-3 8h-2c.542-3.796 2.201-5.472 5-8"/><path fill="#EFEEEE" d="M455 639c-1.75 4.875-1.75 4.875-4 6l-1-4c3-2 3-2 5-2"/><path fill="#DEDCDB" d="m142 538 4 1-3 5c-1.062-1.875-1.062-1.875-2-4z"/></svg>