<svg xmlns="http://www.w3.org/2000/svg" width="839" height="839"><path fill="#0A090D" d="M0 0h839v839H0z"/><path fill="#130429" d="m413.938 104.563 2.14.008c23.902.137 46.321 4.35 67.813 14.976 4.251 1.987 7.437 2.592 12.109 2.578l2.563.008c2.284-.125 4.247-.494 6.437-1.133-2.01 5.753-4.227 10.391-7.937 15.25-2.213 3.343-3.116 4.96-2.844 8.996q.862 3.51 1.863 6.984c2.053 8.431 1.333 17.282-.082 25.77h46l-1 4 3.485-.063c4.282-.073 8.565-.119 12.848-.157q2.775-.03 5.552-.082a685 685 0 0 1 7.998-.089l2.491-.062c5.37-.002 8.356.905 12.626 4.453 3.375 3.831 5.126 6.139 5.12 11.227l.004 2.685-.01 2.954v3.104c0 3.398-.009 6.796-.016 10.194l-.005 7.054q-.006 9.297-.024 18.593-.016 11.147-.023 22.295c-.01 11.298-.029 22.596-.046 33.894h71l-1 47 8 1c11.703 4.311 18.103 10.613 23.836 21.45 3.54 7.755 3.412 17.815 1.258 25.988-4.382 11.01-9.732 16.994-20.094 22.562l-3.75 2.375c-3.497 1.749-5.42 1.764-9.25 1.625l.024 1.853q.287 22.295.523 44.59c.076 7.188.157 14.376.252 21.564q.125 9.394.214 18.79.047 4.977.119 9.953c.053 3.7.087 7.4.117 11.1l.06 3.35.014 3.042.03 2.653L662 539c-3.645 2.43-5.25 2.215-9.583 2.135l-2.01-.028a987 987 0 0 1-6.575-.13q-2.28-.04-4.56-.076c-4-.067-8-.146-12-.227-4.082-.081-8.164-.15-12.247-.22Q603.012 540.242 591 540l.008 1.935q.1 23.325.147 46.648.022 11.28.071 22.559.046 9.833.056 19.664c.004 3.47.013 6.94.035 10.41.024 3.876.025 7.752.024 11.628l.032 3.477c-.025 6.446-.327 11.34-4.873 16.324-5.039 3.923-8.308 4.494-14.61 4.667l-2.218.062q-3.711.098-7.422.18l-2.644.064c-23.933.563-47.87.529-71.807.516q-9.742-.002-19.483.002-17.375.002-34.75-.007-15.603-.005-31.207.001-18.327.01-36.654.005-9.625-.003-19.251.001c-45.546.02-45.546.02-67.895-.408a938 938 0 0 0-5.165-.082c-2.331-.032-4.661-.082-6.992-.139l-3.922-.077c-4.412-.545-7.822-1.918-11.125-4.93-3.385-4.348-4.48-7.165-4.475-12.606l-.004-3.2.01-3.51v-3.695q.001-5.018.013-10.034.007-5.244.008-10.486.004-9.93.021-19.858.017-12.413.023-24.824c.01-14.762.03-29.525.049-44.287l-68 1a34952 34952 0 0 1-.882-112.233c-.083-12.47-.195-24.94-.317-37.41a8363 8363 0 0 1-.285-38.382q-.06-11.843-.202-23.686c-.071-6.053-.1-12.105-.112-18.159a650 650 0 0 0-.078-7.452 557 557 0 0 1-.048-10.162l-.082-2.989c.09-6.554.09-6.554 2.744-9.371 2.132-1.571 2.132-1.571 4.252-2.835 3.267-2.147 4.923-5.06 7.01-8.321 2.122 2.059 4.013 4.206 5.875 6.5 2.427 2.87 4.725 4.8 8.125 6.5-2.578 2.664-5.366 4.925-8.281 7.207-2.308 2.23-2.308 2.23-4.719 7.793h55l-.14-22.758q-.032-7.136-.055-14.273c-.024-7.552-.053-15.104-.107-22.656q-.063-9.132-.078-18.265-.01-3.483-.043-6.968c-.029-3.254-.033-6.506-.031-9.76l-.044-2.91c.035-5.655.682-8.944 4.498-13.41 5.51-4.853 8.977-5.14 16.164-5.098l2.75.005c2.903.005 5.807.018 8.711.03q2.949.008 5.898.014 7.239.017 14.477.049v-4h34l1-13c2.38-8.5 5.258-16.549 11-23.379 2.135-2.798 3.26-5.337 4.5-8.621 4.052-10.732 12.721-16.62 22.68-21.586 13.405-5.516 27.389-6.982 41.757-6.852"/><path fill="#1B132B" d="M384 155c3.26 1.232 6.134 2.666 9.125 4.438 19.716 9.714 49.7 8.443 70.09 1.949 3.673-1.29 7.228-2.806 10.785-4.387 12.268 15.826 11.155 34.068 9 53l1.104-1.714 2.607-4.048c1.352-2.347 2.307-4.717 3.289-7.238q13.092-.141 26.184-.207 6.08-.03 12.16-.095 5.874-.063 11.749-.078 2.235-.01 4.468-.043c9.712-.136 16.556.206 24.189 6.798 4.683 5.463 7.377 9.682 7.37 16.921l.004 3.327-.01 3.651v3.844q-.001 5.219-.013 10.437c-.006 3.635-.006 7.271-.008 10.907q-.005 10.326-.021 20.654-.015 11.757-.022 23.513-.016 24.186-.05 48.371l3.336-.034q15.622-.151 31.246-.225c5.354-.026 10.707-.061 16.06-.118 5.175-.055 10.349-.084 15.523-.097q2.95-.014 5.899-.055c13.796-.182 25.663.491 36.19 10.58 3.046 3.4 5.508 6.975 7.746 10.949l1.035 1.79c3.583 7.565 3.174 17.682 1.05 25.632C689.75 404.447 684.352 410.438 674 416l-3.75 2.375c-3.497 1.749-5.42 1.764-9.25 1.625l.024 1.853q.287 22.295.523 44.59c.076 7.188.157 14.376.252 21.564q.125 9.394.214 18.79.047 4.977.119 9.953c.053 3.7.087 7.4.117 11.1l.06 3.35.014 3.042.03 2.653L662 539c-3.645 2.43-5.25 2.215-9.583 2.135l-2.01-.028a987 987 0 0 1-6.575-.13q-2.28-.04-4.56-.076c-4-.067-8-.146-12-.227-4.082-.081-8.164-.15-12.247-.22Q603.012 540.242 591 540v-2h68V420c-14.757.03-14.757.03-29.812.063-6.215-.001-12.43-.003-18.645-.016l-2.364-.005q-6.146-.014-12.29-.03-4.858-.012-9.715-.02c-8.524-.016-17.047-.049-25.571-.126-3.646-.032-7.292-.057-10.939-.061-4.076-.005-8.15-.05-12.226-.098l-3.6.012c-7.278-.127-12.73-1.474-19.295-4.65-2.698-1.327-2.698-1.327-6.543-1.069-1.876.798-1.876.798-3.672 1.969l-2.012 1.23-2.066 1.301A804.635 804.635 0 0 0 493 423l3 1.977c19.044 12.588 19.044 12.588 22 17.023 1.384 7.286-1.295 12.556-4.812 18.75q-1.631 2.992-3.254 5.988l-1.856 3.397c-3.8 7.018-7.392 14.146-11.023 21.251q-2.518 4.92-5.042 9.837L487 511h-26c-2.036-27.284-2.036-27.284-2.5-39.625-.298-7.832-.796-15.626-1.437-23.437-.924-11.325-1.59-22.655-2.188-34l-.134-2.505c-.207-3.86-.402-7.72-.57-11.58-.098-2.223-.214-4.445-.374-6.664-.31-5.979 1.537-9.854 4.453-14.877.396-.72.791-1.44 1.2-2.181 1.809-3.255 3.7-6.398 5.82-9.46 2.099-3.24 2.295-4.876 1.73-8.671-1.245-2.855-1.245-2.855-3-5h-2l-1.937 1.938c-3.651 3.65-7.428 3.282-12.375 3.375l-3.926.113c-4.315-.489-6.454-1.662-9.762-4.426v-2h-2l-.805 2.207c-1.19 2.78-2.585 5.011-4.32 7.48-2.238 2.895-2.238 2.895-2.875 6.313l3.656 1.086c7.15 2.72 10.282 8.644 13.405 15.324 1.576 4.345 1.466 8.403 1.31 12.977l-.054 3.184a753 753 0 0 1-.249 9.289q-.108 3.423-.204 6.848c-.342 11.867-.76 23.731-1.196 35.595q-.21 5.798-.412 11.595-.2 5.655-.405 11.312l-.19 5.332c-.36 10.175-.87 20.306-1.661 30.458h-23l-1.285-4.879c-2.9-10.93-5.859-21.822-9.215-32.621-2.836-9.138-5.406-18.327-7.84-27.58-2.437-9.236-5.07-18.411-7.705-27.591a15636 15636 0 0 1-8.775-30.74 9291 9291 0 0 0-3.241-11.363q-1.6-5.598-3.191-11.199l-1.201-4.203c-2.165-7.554-4.188-15.077-5.547-22.824 5.75-4 5.75-4 8-4v-2h-2c1.697-4.515 3.825-8.765 6-13.062l1.078-2.143q.995-1.977 1.992-3.951L383 311l1.083-1.843c2.085-4.905 1.55-10.657 1.667-15.907l.227-3.79c.217-7.036.217-7.036-3.116-12.958-2.595-2.101-2.595-2.101-5.31-3.765-3.816-2.598-6.091-5.358-7.551-9.737a140 140 0 0 1-.062-6.187l.027-3.293L370 251l-2.625-.562c-5.457-2.325-9.14-6.957-11.375-12.438-.75-5.896-.474-11.021 3-16 3.978-4.262 6.982-5.799 12.824-6.133 4.587.28 7.284 2.266 10.488 5.383 2.013 3.28 2.39 5.944 2.688 9.75h3l-.484-2.078c-1.503-8.514-1.656-18.124 2.484-25.922a64 64 0 0 1 2.75-3.25c2.567-2.514 2.567-2.514 2.125-5.5-.83-2.237-.83-2.237-1.875-4.25-.707-12.681-.707-12.681 1.063-18.062 1.07-3.354 1.057-4.634-.063-7.938-2.273-2.288-2.273-2.288-5.062-4.25A320 320 0 0 1 384 156z"/><path fill="#150926" d="m413.938 104.563 2.14.008c23.902.137 46.321 4.35 67.813 14.976 4.251 1.987 7.437 2.592 12.109 2.578l2.563.008c2.284-.125 4.247-.494 6.437-1.133-2.01 5.753-4.227 10.391-7.937 15.25-2.213 3.343-3.116 4.96-2.844 8.996q.862 3.51 1.863 6.984c2.053 8.431 1.333 17.282-.082 25.77h46l-1 4 3.485-.063c4.282-.073 8.565-.119 12.848-.157q2.775-.03 5.552-.082a685 685 0 0 1 7.998-.089l2.491-.062c5.37-.002 8.356.905 12.626 4.453 3.375 3.831 5.126 6.139 5.12 11.227l.004 2.685-.01 2.954v3.104c0 3.398-.009 6.796-.016 10.194l-.005 7.054q-.006 9.297-.024 18.593-.016 11.147-.023 22.295c-.01 11.298-.029 22.596-.046 33.894h71l-1 47h-85l-.078-28.156q-.037-8.832-.082-17.664c-.049-9.345-.093-18.69-.111-28.034a4548 4548 0 0 0-.084-20.419c-.022-3.602-.038-7.204-.037-10.806.001-4.027-.03-8.053-.062-12.08l.015-3.596c-.104-8.287-1.47-13.466-6.811-19.995-8.339-6.823-16.085-6.854-26.406-6.86a1656.932 1656.932 0 0 0-16.415-.129c-4.05-.019-8.099-.06-12.148-.1A4661 4661 0 0 0 490 197l-.922 3.362c-1.337 4.513-3.172 6.987-6.078 10.638h-1l.219-1.668c2.037-18.248 2.772-35.76-8.219-51.332l-2.387.988-3.3 1.325-3.2 1.3c-10.494 3.753-20.642 4.887-31.738 4.762l-3.975-.033c-16.518-.27-30.06-1.804-44.4-10.342l2.152 1.574 2.786 2.113 2.777 2.075c2.56 2.507 3.102 3.706 3.285 7.238q-.749 2.354-1.512 4.703c-1.43 6.73-1.596 14.148 1.512 20.297-.415 3.81-2.403 6.037-4.746 8.926-3.614 5.977-3.512 12.274-3.379 19.012l.027 2.65c.024 2.137.06 4.275.098 6.412h-3l-.48-1.828c-1.11-3.798-2.058-6.629-4.645-9.672-3.938-2.055-7.442-2.696-11.875-2.5-4.742 1.61-7.215 3.875-10 8-1.668 5.003-2.02 10.246-.164 15.258 2.257 3.984 4.31 5.977 8.414 7.992 2.094 1.148 2.094 1.148 3.75 2.75.667 3.064.752 5.943.836 9.074.229 4.077 1.337 7.03 4.164 9.926l2.71 1.438c3.606 2.075 6.356 3.854 8.29 7.562 3.016 13.346 1.813 27.984-5.444 39.674a197 197 0 0 1-2.382 3.523c-2.03 3.117-3.566 6.454-5.174 9.803h2v2l-5.273 2.93c-1.888 1.079-1.888 1.079-3.727 3.07a226 226 0 0 1-5 2 185 185 0 0 0-5.25 2.75l-2.64 1.422a126 126 0 0 0-7.094 4.515c-6.163 4.15-12.597 7.832-19.016 11.563l-3.925 2.29q-3.836 2.24-7.674 4.476c-4.715 2.75-9.418 5.522-14.12 8.296-4.12 2.428-8.254 4.832-12.394 7.227l-3.26 1.89a2547 2547 0 0 1-6.345 3.664c-4.247 2.462-8.408 4.917-12.368 7.825C264 400 264 400 262 400q-.212-36.118-.31-72.236c-.032-11.18-.074-22.361-.143-33.542q-.09-14.62-.112-29.241a2223 2223 0 0 0-.07-15.477q-.059-7.291-.044-14.582-.001-2.67-.036-5.338c-.12-9.744.002-17.818 6.715-25.584 2.45-2.254 2.45-2.254 4.688-3.562l2.261-1.38c3.557-1.835 6.406-2.199 10.349-2.263l3.275-.06 3.532-.051 3.62-.063q5.731-.097 11.462-.184l7.764-.13q9.525-.162 19.049-.307l-.5-1.937C333 191 333 191 333 182h-34v-4h34l1-13c2.38-8.5 5.258-16.549 11-23.379 2.135-2.798 3.26-5.337 4.5-8.621 4.052-10.732 12.721-16.62 22.68-21.586 13.405-5.516 27.389-6.982 41.757-6.852"/><path fill="#F5A382" d="M384 155c3.26 1.232 6.134 2.666 9.125 4.438 19.716 9.714 49.7 8.443 70.09 1.949 3.673-1.29 7.228-2.806 10.785-4.387 10.172 13.122 11.183 26.943 10 43l-.537 2.881c-.502 3.384-.366 6.335-.104 9.744 1.077 18.632-1.273 34.889-6.546 52.813l-.878 2.992c-8.83 29.71-8.83 29.71-14.935 33.57-3.416 1.623-5.114 2-9 2-.322 3.581-.136 6.573 1 10 2.507 2.56 5.196 4.534 8.094 6.637 3.04 2.471 4.835 4.847 6.969 8.113 3.77 5.589 7.782 7.818 13.937 10.25.246 15.013-.525 29.959-1.277 44.95l-.397 8.118q-.52 10.648-1.05 21.296-.79 15.937-1.568 31.876-.336 6.87-.68 13.739c-.856 17.337-1.496 34.672-2.028 52.021h-14c-2.008-26.53-2.008-26.53-2.5-39.625-.298-7.832-.796-15.626-1.437-23.437-.924-11.325-1.59-22.655-2.188-34l-.134-2.505c-.207-3.86-.402-7.72-.57-11.58-.098-2.223-.214-4.445-.374-6.664-.31-5.979 1.537-9.854 4.453-14.877.396-.72.791-1.44 1.2-2.181 1.809-3.255 3.7-6.398 5.82-9.46 2.099-3.24 2.295-4.876 1.73-8.671-1.245-2.855-1.245-2.855-3-5h-2l-1.937 1.938c-3.651 3.65-7.428 3.282-12.375 3.375l-3.926.113c-4.315-.489-6.454-1.662-9.762-4.426v-2h-2l-.805 2.207c-1.19 2.78-2.585 5.011-4.32 7.48-2.238 2.895-2.238 2.895-2.875 6.313l3.656 1.086c7.15 2.72 10.282 8.644 13.405 15.324 1.576 4.345 1.466 8.403 1.31 12.977l-.054 3.184a753 753 0 0 1-.249 9.289q-.108 3.423-.204 6.848c-.342 11.867-.76 23.731-1.196 35.595q-.21 5.798-.412 11.595-.2 5.655-.405 11.312l-.19 5.332c-.36 10.175-.87 20.306-1.661 30.458h-23l-1.285-4.879c-2.9-10.93-5.859-21.822-9.215-32.621-2.836-9.138-5.406-18.327-7.84-27.58-2.437-9.236-5.07-18.411-7.705-27.591a15636 15636 0 0 1-8.775-30.74 9291 9291 0 0 0-3.241-11.363q-1.6-5.598-3.191-11.199l-1.201-4.203c-2.165-7.554-4.188-15.077-5.547-22.824 5.75-4 5.75-4 8-4v-2h-2c1.697-4.515 3.825-8.765 6-13.062l1.078-2.143q.995-1.977 1.992-3.951L383 311l1.083-1.843c2.085-4.905 1.55-10.657 1.667-15.907l.227-3.79c.217-7.036.217-7.036-3.116-12.958-2.595-2.101-2.595-2.101-5.31-3.765-3.816-2.598-6.091-5.358-7.551-9.737a140 140 0 0 1-.062-6.187l.027-3.293L370 251l-2.625-.562c-5.457-2.325-9.14-6.957-11.375-12.438-.75-5.896-.474-11.021 3-16 3.978-4.262 6.982-5.799 12.824-6.133 4.587.28 7.284 2.266 10.488 5.383 2.013 3.28 2.39 5.944 2.688 9.75h3l-.484-2.078c-1.503-8.514-1.656-18.124 2.484-25.922a64 64 0 0 1 2.75-3.25c2.567-2.514 2.567-2.514 2.125-5.5-.83-2.237-.83-2.237-1.875-4.25-.707-12.681-.707-12.681 1.063-18.062 1.07-3.354 1.057-4.634-.063-7.938-2.273-2.288-2.273-2.288-5.062-4.25A320 320 0 0 1 384 156z"/><path fill="#36006D" d="M285.39 196.886h3.336l3.598.016 3.687.005c3.892.005 7.784.018 11.676.03q3.955.008 7.909.014 9.702.017 19.404.049l.986 3.446 1.323 4.57.644 2.26c3.49 12 8.92 22.81 15.047 33.661l1.473 2.619c4.375 7.57 9.348 14.655 15.714 20.694 2.145 2.075 4 3.995 5.813 6.375 1.784 2.4 1.784 2.4 3.908 3.451 3.618 2.086 5.732 3.644 6.89 7.76.323 3.528.36 6.936.264 10.476l-.047 3.789c-.414 10.322-3.02 17.687-8.841 26.096-2.03 3.117-3.566 6.454-5.174 9.803h2v2l-5.273 2.93c-1.888 1.079-1.888 1.079-3.727 3.07a226 226 0 0 1-5 2 185 185 0 0 0-5.25 2.75l-2.64 1.422a126 126 0 0 0-7.094 4.515c-6.163 4.15-12.597 7.832-19.016 11.563l-3.925 2.29q-3.836 2.24-7.674 4.476c-4.715 2.75-9.418 5.522-14.12 8.296-4.12 2.428-8.254 4.832-12.394 7.227l-3.26 1.89a2547 2547 0 0 1-6.345 3.664c-4.247 2.462-8.408 4.917-12.368 7.825C264 400 264 400 262 400q-.212-36.118-.31-72.236c-.032-11.18-.074-22.361-.143-33.542q-.09-14.62-.112-29.241a2223 2223 0 0 0-.07-15.477q-.059-7.291-.044-14.582-.002-2.67-.036-5.338c-.12-9.744.002-17.818 6.715-25.584 2.45-2.254 2.45-2.254 4.687-3.563l2.262-1.378c3.617-1.867 6.432-2.182 10.44-2.173"/><path fill="#38016F" d="M490 197q13.092-.141 26.184-.207 6.08-.03 12.16-.095 5.874-.063 11.749-.078 2.235-.01 4.468-.043c9.712-.136 16.556.206 24.189 6.798 4.683 5.463 7.377 9.682 7.37 16.921l.004 3.327-.01 3.651v3.844q-.001 5.219-.013 10.437c-.006 3.635-.006 7.271-.008 10.907q-.005 10.326-.021 20.654-.018 13.954-.024 27.91c-.01 14.657-.03 29.316-.048 43.974h89v1l-2.156.004q-26.018.056-52.035.18c-8.388.04-16.776.072-25.165.087q-10.973.019-21.944.084c-3.87.022-7.74.038-11.61.037q-5.475 0-10.95.05a572 572 0 0 1-5.887-.003c-9.42.11-18.925 1.428-25.94 8.311l-1.95 1.86L506 358l-2-1 4-4c-6.08-4.033-12.39-7.16-19.062-10.062-17.623-7.727-17.623-7.727-22.618-15.028-2.31-3.342-5.121-6.045-8.41-8.418-5.68-4.293-5.68-4.293-6.422-8.164.01-2.491.155-4.864.512-7.328l2.266-.594c5.564-1.59 5.564-1.59 10.18-4.89 2.258-4.29 3.392-9.155 4.824-13.774 1.33-4.29 2.668-8.576 4.074-12.842 5.687-17.278 9.97-32.884 8.638-51.219-.44-7.07-.057-11.11 4.501-16.694 1.696-2.221 2.527-4.387 3.517-6.987"/><path fill="#091420" d="M350 349c-.454 10.798-1.1 21.548-2.062 32.313-2.52 17.24-2.52 17.24 3.062 32.687 5.565 5.825 12.452 10.366 19 15-3.073 7.02-9.826 12.022-15.652 16.773-1.98 1.802-2.328 2.99-2.551 5.653l-.047 2.887-.078 2.863c.694 5.974 4.93 9.692 9.062 13.719.557.55 1.113 1.102 1.686 1.67q2.659 2.63 5.33 5.248 3.498 3.441 6.984 6.894l1.693 1.675a179 179 0 0 1 10.106 10.926c2.783 3.21 5.857 6.122 8.899 9.085A224 224 0 0 1 399 510v1a18144 18144 0 0 1-45.35.155c-7.02.016-14.04.037-21.059.071-6.775.033-13.55.05-20.327.059q-3.875.008-7.75.032c-3.622.022-7.244.025-10.866.024l-3.228.032c-7.853-.032-14.534-1.16-20.67-6.498l-1.89-1.57c-5-6.198-6.458-12.79-6.425-20.585l-.036-2.664a757 757 0 0 1-.036-8.63l-.033-6.04q-.028-6.307-.016-12.615c.006-5.384-.039-10.766-.096-16.15-.037-4.151-.042-8.302-.038-12.454q-.005-2.978-.042-5.955c-.032-2.774-.02-5.546.004-8.32l-.057-2.47c.069-3.43.2-5.57 2.453-8.253 2.948-2.565 6.1-4.792 9.556-6.626l2.155-1.166 2.251-1.19q2.43-1.317 4.855-2.64l2.408-1.31c3.655-2.02 7.213-4.185 10.782-6.352 8.164-4.942 16.413-9.74 24.65-14.557l3.754-2.195 1.847-1.08q5.406-3.165 10.786-6.373c1.191-.71 1.191-.71 2.407-1.432q2.135-1.273 4.264-2.556C347.778 349 347.778 349 350 349"/><path fill="#FDFEFE" d="M385 308c3 1 3 1 4.836 3.3C400.943 325.156 423.08 333.344 439 340v16l-4-1-1-3h-2l-.805 2.207c-1.19 2.78-2.585 5.011-4.32 7.48-2.238 2.895-2.238 2.895-2.875 6.313l3.656 1.086c7.15 2.72 10.282 8.644 13.405 15.324 1.576 4.345 1.466 8.403 1.31 12.977l-.054 3.184a753 753 0 0 1-.249 9.289q-.108 3.423-.204 6.848c-.342 11.867-.76 23.731-1.196 35.595q-.21 5.798-.412 11.595-.2 5.655-.405 11.312l-.19 5.332c-.36 10.175-.87 20.306-1.661 30.458h-23l-1.285-4.879c-2.9-10.93-5.859-21.822-9.215-32.621-2.836-9.138-5.406-18.327-7.84-27.58-2.437-9.236-5.07-18.411-7.705-27.591a15636 15636 0 0 1-8.775-30.74 9291 9291 0 0 0-3.241-11.363q-1.6-5.598-3.191-11.199l-1.201-4.203c-2.165-7.554-4.188-15.077-5.547-22.824 5.75-4 5.75-4 8-4v-2h-2c1.705-4.53 3.829-8.806 6-13.125l1.078-2.168 1.047-2.09.945-1.887C383 311 383 311 385 308"/><path fill="#0E0916" d="M591 420h68v118h-68zM181 420h66v118h-66zM181 300h22c2.152 3.228 2.2 4.284 2 8l1.75-1c2.25-1 2.25-1 6.25-1l-1-6h35v118h-66z"/><path fill="#07121E" d="M509 412c2.45.962 4.87 1.94 7.257 3.049 6.643 2.984 12.43 3.552 19.657 3.56l3.32.05c3.464.049 6.927.07 10.391.091q3.545.042 7.09.09 8.642.108 17.285.16c1.206 15.316 1.647 30.645 2 46l.091 3.877c.074 3.541.122 7.081.159 10.623l.065 3.177c.042 9.333-2.034 15.703-8.483 22.628-5.727 5.3-12.174 5.822-19.642 5.809h-2.012q-3.27-.002-6.541-.016l-4.553-.005q-5.974-.006-11.95-.024-6.102-.014-12.206-.02-11.964-.016-23.928-.049c1.135-3.558 2.336-6.917 4.044-10.239l1.205-2.358 1.294-2.5 1.354-2.64q1.417-2.76 2.842-5.519 2.144-4.157 4.279-8.32c4.463-8.684 8.947-17.334 13.764-25.828 1.78-3.795 2.506-7.55 1.218-11.596-3.265-5.353-8.391-8.028-13.625-11.187a2292 2292 0 0 1-5.164-3.168l-2.303-1.396C494 425 494 425 492 423l1.453-.902q3.242-2.017 6.485-4.036l2.287-1.42 2.177-1.357 2.016-1.254c1.557-.937 1.557-.937 2.582-2.031"/><path fill="#203038" d="M366.103 339.617c2.456 1.79 2.751 3.017 3.502 5.942l.777 2.905.806 3.196q.914 3.44 1.832 6.88l.97 3.688c1.533 5.727 3.174 11.421 4.818 17.116q1.146 3.979 2.286 7.96 2.033 7.096 4.072 14.191 1.732 6.03 3.459 12.064l.566 1.978a1582 1582 0 0 1 8.47 30.814c1.795 6.767 3.761 13.464 5.839 20.149a754 754 0 0 1 7.375 25.5l.904 3.31c1.4 5.224 2.625 10.312 3.221 15.69-5.45 1.203-10.626 1.836-16 0-7.723-5.244-13.686-12.918-19.682-19.981-5.702-6.647-11.973-12.714-18.228-18.833q-2.218-2.176-4.426-4.362l-2.642-2.59c-3.581-3.956-3.545-8.258-3.49-13.386.818-4.976 3.813-7.599 7.468-10.848l2.14-1.941a209 209 0 0 1 4.063-3.516c1.684-1.446 3.25-2.953 4.797-4.543-1.365-4.094-4.185-5.397-7.625-7.687-6.074-4.176-11.998-8.56-15.375-15.313-.593-11.164.472-22.27 1.5-33.375q.429-4.698.844-9.398l.203-2.229c.334-3.837.479-7.577.324-11.424.129-3.574.129-3.574 1.633-5.406l2.059-.98c.728-.37 1.456-.738 2.207-1.118L357 343a649 649 0 0 0 3.75-2.437C364 339 364 339 366.103 339.617"/><path fill="#22323A" d="M482 340c6.151 1.758 11.73 4.214 17.438 7.063l2.152 1.068c2.8 1.42 5.175 2.634 7.41 4.869l-1.77 1.563c-2.63 2.874-4.248 5.96-5.918 9.437l-.931 1.867c-4.098 8.358-4.825 17.236-2.592 26.356 1.288 3.653 2.511 6.845 4.848 9.957C504 404 504 404 504 406h2v2h2v2l3 1c-3.312 3.713-6.948 5.889-11.25 8.25l-1.969 1.102q-2.386 1.33-4.781 2.648l3 1.977c19.044 12.588 19.044 12.588 22 17.023 1.384 7.286-1.295 12.556-4.812 18.75q-1.631 2.992-3.254 5.988l-1.856 3.397c-3.8 7.018-7.392 14.146-11.023 21.251q-2.566 5.015-5.14 10.027L487 511h-12c-.162-19.954.266-39.777 1.277-59.71q.2-4.083.397-8.165.41-8.458.835-16.915c.396-7.9.782-15.8 1.166-23.7q.455-9.33.915-18.658l.193-3.928c.658-13.313 1.324-26.624 2.217-39.924"/><path fill="#FBFBFB" d="M452 314c6.889 4.593 11.216 7.718 15.75 14.5 3.938 5.656 7.955 8.012 14.25 10.5.246 15.013-.525 29.959-1.277 44.95l-.397 8.118q-.52 10.648-1.05 21.296-.79 15.937-1.568 31.876-.336 6.87-.68 13.739c-.856 17.337-1.496 34.672-2.028 52.021h-14c-2.008-26.53-2.008-26.53-2.5-39.625-.298-7.832-.796-15.626-1.437-23.437-.924-11.325-1.59-22.655-2.188-34l-.134-2.505c-.207-3.86-.402-7.72-.57-11.58-.098-2.223-.214-4.445-.374-6.664-.31-5.979 1.537-9.854 4.453-14.877.396-.72.791-1.44 1.2-2.181 1.809-3.255 3.7-6.398 5.82-9.46 2.099-3.24 2.295-4.876 1.73-8.671-1.245-2.855-1.245-2.855-3-5h-2l-1.875 2C458 357 458 357 454 357z"/><path fill="#0C1723" d="M432 352c2 0 2 0 4 1.938l2 2.062c2.987 1.494 6.04 1.184 9.313 1.188l3.988.042c3.467-.216 5.675-.572 8.699-2.23l2-3c2.368.947 3.752 1.653 5.25 3.75 1 3 1.128 5.097.75 8.25a128 128 0 0 1-5.188 7.625c-9.06 12.732-8.458 24.122-7.145 39.235.384 4.54.62 9.083.845 13.632l.245 4.876.121 2.424c.642 13.066.642 13.066 1.903 26.08.464 4.507.558 9.04.719 13.565.2 5.583.417 11.13 1.027 16.684.52 4.85.588 9.632.536 14.504L461 511h-23c-.072-10.172.165-20.295.556-30.458q.154-4.05.302-8.101.424-11.505.86-23.008c.443-11.71.86-23.42 1.212-35.132q.1-3.24.207-6.48c.106-3.498.18-6.994.238-10.493l.097-2.897c.069-9.053-3.886-14.681-9.472-21.431v-2l-2.25-.375c-2.551-.58-4.477-1.362-6.75-2.625 1.431-3.914 3.275-7.291 5.5-10.812l1.844-2.958z"/><path fill="#0E0915" d="M591 300h68v45h-68z"/><path fill="#E0876F" d="m386 280 1.65.92c21.32 11.87 39.618 21.178 64.35 23.08l3 54h-15l-2-2c.017-2.756.139-5.388.375-8.125l.172-2.285c.141-1.864.296-3.727.453-5.59l-3.5-1c-7.528-2.517-14.497-6.306-21.5-10l-1.915-1.006C402.093 322.688 391.458 316.562 385 307c-.362-3.046-.362-3.046-.172-6.395l.176-3.642.246-3.776c.066-1.265.131-2.53.2-3.833q.247-4.68.55-9.354"/><path fill="#E5E6E7" d="M385 308c3 1 3 1 4.836 3.3C400.943 325.156 423.08 333.344 439 340v16l-4-1-1-3h-2l-.805 2.21c-1.541 3.597-3.69 6.53-5.953 9.704-1.498 2.111-1.498 2.111-1.242 5.086-2.5 2.688-2.5 2.688-5 5-3.139-1.388-5.223-2.995-7.61-5.45l-2.038-2.071-2.102-2.166c-4.615-4.734-9.282-9.272-14.295-13.583-3.26-2.885-6.286-5.995-9.33-9.105q-1.821-1.86-3.648-3.71l-1.592-1.627c-1.376-1.4-1.376-1.4-3.385-2.288v-2h-2c1.705-4.53 3.829-8.806 6-13.125l1.078-2.168 1.047-2.09.945-1.887C383 311 383 311 385 308"/><path fill="#FBBC01" d="M542.313 360.063c6.29 3.53 10.404 8.067 12.687 14.937.952 7.305.117 13.806-4 20-2.129 2.356-4.39 4.202-7 6l-2.687 1.875c-6.354 2.158-13.48 2.332-19.688-.437-5.793-3.41-10.473-9.102-12.625-15.438-.845-7.378-.655-13.971 4-20 8.247-8.694 17.892-12.182 29.313-6.937"/><path fill="#1F1A25" d="M191 270c2.122 2.059 4.013 4.206 5.875 6.5 2.427 2.87 4.725 4.8 8.125 6.5-2.578 2.664-5.366 4.925-8.281 7.207-2.308 2.23-2.308 2.23-4.719 7.793h55v2h-35l1 6-8 2-2-7-22-1v118h-2a9098 9098 0 0 1-.806-52.495c-.101-8.125-.218-16.25-.37-24.374q-.2-10.623-.308-21.247a877 877 0 0 0-.177-11.248c-.096-4.188-.128-8.374-.155-12.562l-.116-3.76c.019-8.258.019-8.258 2.663-11.315 2.133-1.574 2.133-1.574 4.255-2.768 3.33-2.036 4.935-4.983 7.014-8.231"/><path fill="#E4E5E6" d="M452 314c8.06 5.374 12.75 9.675 18.266 17.574 1.657 2.458 1.657 2.458 3.734 4.426 2.694 5.834 2.447 12.07 2.625 18.375l.117 3.387q.141 4.119.258 8.238c-7.377-2.893-9.81-5.855-13-13h-2l-1.875 2C458 357 458 357 454 357z"/><path fill="#221D29" d="M179 418h68v2h-66v118h66v2l-68 1z"/><path fill="#F8CE51" d="m638 564 2.813 2.75c4.491 3.9 9.571 5.524 15.187 7.25l-1.172 1.434c-3.863 4.905-6.544 9.762-8.828 15.566l-1.434-1.207c-4.93-3.95-9.466-6.183-15.566-7.793l1.207-1.398c4.242-5.223 6.268-10.074 7.793-16.602"/><path fill="#F9BF11" d="M191 270c2.122 2.059 4.013 4.206 5.875 6.5 2.427 2.87 4.725 4.8 8.125 6.5-2.059 2.122-4.206 4.013-6.5 5.875-2.87 2.427-4.8 4.725-6.5 8.125l-1.562-2.125c-2.403-2.833-4.9-5.093-7.754-7.445-1.652-1.403-3.174-2.878-4.684-4.43l1.574-1.066c4.935-3.494 8.167-6.842 11.426-11.934"/><path fill="#E0E2E3" d="M438 382c4.233 4.233 4.135 6.13 4.164 11.821l-.008 3.05-.005 3.277c-.109 17.665-.883 35.32-1.542 52.971q-.274 7.443-.543 14.887Q439.54 482.504 439 497h-1z"/><path fill="#F5A484" d="M386 285c2.865 2.865 3.96 6.442 5.5 10.125 2.83 6.578 5.992 12.753 9.813 18.813l1.273 2.021c1.907 2.953 3.76 5.713 6.414 8.041l-1 2c-18.498-11.87-18.498-11.87-23-19-.249-2.474-.249-2.474-.074-5.203l.166-2.969.22-3.078.186-3.125q.23-3.814.502-7.625"/><path fill="#201B26" d="M591 298h71l-1 47h-2v-45h-68z"/><path fill="#D0D2D3" d="m476 342 1 24c-6.84-2.736-9.11-4.59-12.07-11.16-.9-2.018-.9-2.018-2.93-3.84h2l.688-1.687c3.04-5.359 5.048-7.313 11.312-7.313"/><path fill="#F1A385" d="M453 339h1l1 19-7.375.125-2.318.055c-1.77.015-3.54-.08-5.307-.18l-2-2c.033-3.054.567-5.969 1-9l14 2z"/><path fill="#EA8D71" d="m373 222-1.812.875c-2.381 1.172-2.381 1.172-5.188 3.125.276 1.94.276 1.94 1 4l3 2 1-2c3.875.875 3.875.875 5 2 .203 2.18.203 2.18.25 4.875l.078 2.68C376 242 376 242 374.684 243.809c-2.51 1.775-4.7 1.39-7.684 1.191-1.354-2.709-1.065-5.01-1-8h3l-2.5-2.062c-2.5-2.938-2.5-2.938-3-6.563.5-3.375.5-3.375 1.625-5.312 2.66-1.508 4.877-1.263 7.875-1.063"/><path fill="#FDC315" d="m638 564 2.813 2.75c4.491 3.9 9.571 5.524 15.187 7.25l-1.207 1.504c-3.392 4.349-5.856 8.331-7.793 13.496-1.813-3.2-2.522-6.133-3.125-9.75l-.508-2.984L643 574h-3c-1.316-3.62-2-6.096-2-10"/><path fill="#28232F" d="m218.777 297.805 2.459.008c2.567.011 5.134.036 7.702.062q2.625.016 5.251.027 6.405.035 12.811.098v2h-35l1 6-8 2-2-8c5.415-1.812 10.09-2.271 15.777-2.195"/><path fill="#FFF8E6" d="M541.29 372.238 543 373c-2.023 4.436-4.979 7.383-8.375 10.813l-1.75 1.85c-.565.57-1.13 1.143-1.71 1.732l-1.55 1.589C528 390 528 390 525.948 389.776c-2.725-1.086-4.163-2.464-5.947-4.776.25-2.25.25-2.25 1-4a56.5 56.5 0 0 1 7 4l.727-1.7c1.549-2.798 3.419-4.82 5.648-7.113l2.336-2.457C539 372 539 372 541.289 372.238"/><path fill="#FACF4D" d="m193 274 7 6c1.638 1.046 3.294 2.07 5 3-2.287 2.337-4.67 4.528-7.125 6.688l-2.133 1.886C194 293 194 293 193 293z"/><path fill="#443956" d="M523 580h4v10l-4.312.188-2.426.105C518 590 518 590 516.195 588.683 515 587 515 587 515.187 583.876L516 581c2.498-1.249 4.224-1.066 7-1"/><path fill="#D6D5D8" d="M598 379c6.055-.195 6.055-.195 8 0 2 2 2 2 2.25 5-.25 3-.25 3-2.25 5-2.625.125-2.625.125-5 0v4h-3z"/><path fill="#463B57" d="M421 580h2v10h-16c0-3 0-3 1-5h2l1-3 1 2 2-1c2-.04 4-.043 6 0z"/><path fill="#1D1923" d="M495 178h47l-1 4h-2v-2h-44z"/><path fill="#D6D4D9" d="M586 379c6.408-.363 6.408-.363 8.938 1.188 1.426 2.433 1.418 4.037 1.062 6.812-2 2-2 2-4.625 2.125L589 389l-1 3h-2z"/><path fill="#584E68" d="M312.938 582.938 316 583c1.521 0 3.042-.025 4.563-.062C323 583 323 583 324 584c.125 2.5.125 2.5 0 5-1 1-1 1-3.375 1.063L318 590c-1.875 0-3.75.018-5.625.063C310 590 310 590 309 589c-.125-2.5-.125-2.5 0-5 1-1 1-1 3.938-1.062"/><path fill="#E7E6E7" d="M658 376h2v13c-6.055.195-6.055.195-8 0-2-2-2-2-2.312-4.437.312-2.563.312-2.563 1.5-4.438C653 379 653 379 655.688 379.313L658 380z"/><path fill="#27222F" d="M672 417c-4.146 3.022-7.565 3.418-12.544 3.34l-2.249.002c-2.44-.002-4.88-.025-7.32-.049q-2.546-.009-5.09-.013c-4.458-.011-8.914-.04-13.371-.074-4.551-.03-9.103-.044-13.655-.06q-13.385-.05-26.771-.146v-1h74v-2c3.01-.934 3.867-1.044 7 0"/><path fill="#130D12" d="M181 286c3.508 1.754 4.844 2.612 7.25 5.438l1.578 1.808C191 295 191 295 191 298h-10z"/><path fill="#EDECF0" d="M576 376c4 1 4 1 5.266 2.96.324.798.65 1.594.984 2.415l1.016 2.398C584 386 584 386 584 389h-2l-1-2a109 109 0 0 0-7-1v3l-3-1z"/><path fill="#F0EFF0" d="M620 379c5.568.568 5.568.568 7 2 .188 2.938.188 2.938 0 6-2 2-2 2-4.437 2.313-2.563-.313-2.563-.313-4.438-1.5C617 386 617 386 617.188 383.438 618 381 618 381 620 379"/><path fill="#8E8798" d="M465 580h7c.95 3.695.95 6.305 0 10h-7z"/><path fill="#1D1923" d="M299 178h34v2h-32v2h-2z"/><path fill="#0A1421" d="m498 347 11 5c-4.395 5.469-4.395 5.469-6 7h-3z"/><path fill="#EAEAEB" d="M644.5 379.125c2.5.875 2.5.875 3.813 3.438L649 385l-7 1 6 1-1 2c-2.875.125-2.875.125-6 0l-2-2c.25-3.562.25-3.562 1-7 2-1 2-1 4.5-.875"/><path fill="#A19CAA" d="M379 607c1 1 1 1 1.125 3.5C380 613 380 613 379 614c-1.666.04-3.334.043-5 0v3h-2v-10c3.136-1.045 3.995-1.002 7 0"/><path fill="#ECECED" d="M622 558c3.875 4.75 3.875 4.75 5 7-5.75 3.875-5.75 3.875-8 5l-1.437-3.375c-.816-1.892-1.642-3.782-2.563-5.625z"/><path fill="#A6A0AE" d="M508 607h7c.195 6.055.195 6.055 0 8-2 2-2 2-4.625 2.125L508 617l1-2h3l-5-3z"/><path fill="#F8F8F8" d="M210 298c1.473 2.75 2.224 4.896 3 8l-8 2-2-8z"/><path fill="#27222B" d="M210 298c-3.493 2.329-4.86 2.236-8.98 2.195l-3.526-.02-3.681-.05-3.717-.027q-4.548-.036-9.096-.098v-2c9.722-1.434 19.24-.651 29 0"/><path fill="#7A7286" d="m539 580 2 2 2 .5c2 .5 2 .5 4 2.5-.375 2.125-.375 2.125-1 4-4.75 1-4.75 1-7 1z"/><path fill="#CFCDCC" d="M438 341h1v15c-4-1-4-1-5.562-3-.7-4.795 2.008-8.066 4.562-12"/><path fill="#A6A1AE" d="M365 606c2.625.375 2.625.375 5 1 .625 2.375.625 2.375 1 5-2 2-2 2-4.625 2.125L364 614c-.625-2.875-.625-2.875-1-6z"/><path fill="#F9C938" d="m191 272 3 1c.087 3.437.14 6.874.188 10.313l.076 2.958.029 2.842.048 2.619C194 294 194 294 191 297z"/><path fill="#71687E" d="M391 604h3l.688 1.875c1.691 2.74 3.304 3.175 6.312 4.125l-1 4c-3.339-.576-4.691-1.59-7-4l-3-1z"/><path fill="#A09AA8" d="m455 606 5 2-1 6c-2.375.125-2.375.125-5 0l-2-2c.367-2.935.864-3.864 3-6"/><path fill="#9E98A6" d="M408 606c2.625.938 2.625.938 5 2l-1 5c-2.375.625-2.375.625-5 1l-2-2c.25-2.562.25-2.562 1-5z"/><path fill="#FCCA35" d="M640 574h3c1.747 3.827 2.349 7.124 2.625 11.313l.227 3.238L646 591l-3-2c-.187-3.625-.187-3.625 0-7h-2z"/><path fill="#827B8E" d="M542 606c3.536.536 3.536.536 5 2 .04 2 .043 4 0 6h-6c-.625-2.875-.625-2.875-1-6z"/><path fill="#FEC826" d="m191 270 2 2h-2v23c-2.17-4.34-2.213-6.484-2.125-11.25l.055-3.828L189 277l-2-1z"/><path fill="#70687D" d="M320 606c3.692.692 3.692.692 5 2 .04 2 .043 4 0 6-2.375.125-2.375.125-5 0l-2-2c.556-4.556.556-4.556 2-6"/><path fill="#878092" d="M490 606c2.125.375 2.125.375 4 1 1 4.75 1 4.75 1 7h-6c-.625-2.875-.625-2.875-1-6z"/><path fill="#918A9B" d="m450 582 8 1 1 4h-2l1 3h-5c-1.075-2.652-2.095-5.284-3-8"/><path fill="#898294" d="m411 582 1 2 7-1-4 2v3l4 2h-12c0-3 0-3 1-5h2z"/><path fill="#BDB9C3" d="M361.5 582.875C364 583 364 583 365 584c.125 2.5.125 2.5 0 5-1 1-1 1-3.5 1.125C359 590 359 590 358 589c-.125-2.5-.125-2.5 0-5 1-1 1-1 3.5-1.125"/><path fill="#BBB7C2" d="M320.5 582.875C323 583 323 583 324 584c.125 2.5.125 2.5 0 5-1 1-1 1-3.5 1.125C318 590 318 590 317 589c-.125-2.5-.125-2.5 0-5 1-1 1-1 3.5-1.125"/><path fill="#E0DFE1" d="m628 379 3 1c1.188 2.563 1.188 2.563 2 5l3-6h2l-3 9h-4z"/><path fill="#ACA7B4" d="m347 583 1 4-5 1h4v2c-2.375.125-2.375.125-5 0l-2-2c.25-2.562.25-2.562 1-5 2.49-1.245 3.41-.777 6 0"/><path fill="#898194" d="m497 583 1 4-5 1h4v2c-2.375.125-2.375.125-5 0l-2-2c.25-2.562.25-2.562 1-5 2.49-1.245 3.41-.777 6 0"/><path fill="#ACA7B4" d="M348 606c2.125.375 2.125.375 4 1l1 4-5 1h4v2c-2.375.125-2.375.125-5 0l-2-2c.367-2.935.864-3.864 3-6"/><path fill="#8F8999" d="M295 604h2l1 2c2.025.652 2.025.652 4 1l1 7h-2v-6h-4v6h-2z"/><path fill="#ACA8B4" d="M388 582c2.125.375 2.125.375 4 1l1 4-5 1h4v2c-2.375.125-2.375.125-5 0l-2-2c.367-2.935.864-3.864 3-6"/><path fill="#898294" d="M400 582c2.125.375 2.125.375 4 1l1 4-5 1h4v2c-1.666.043-3.334.04-5 0-1-1-1-1-1.187-3.437C398 584 398 584 400 582"/><path fill="#888193" d="M309.188 606.375 311 607v4l-4 1 3 2-5-1-1-5c3-2 3-2 5.188-1.625"/><path fill="#898294" d="M299 582c2.125.375 2.125.375 4 1l1 4-5 1 3 2-5-1c-.125-2.375-.125-2.375 0-5z"/><path fill="#938D9D" d="m518 606 5 1v7h-6v-4h5v-2h-5z"/><path fill="#948D9E" d="m476 582 5 1v7h-6v-4h5v-2h-5z"/><path fill="#F4F3F5" d="m586 379 3 1-.187 2.813c-.122 3.171-.122 3.171 1.687 5.062L592 389h-3l-1 3h-2z"/><path fill="#5C595F" d="M178 268h3c1.031 3.27.964 5.86.563 9.25l-.31 2.703L181 282h-2z"/><path fill="#A09AA8" d="M531 604h2l1 2c2.025.652 2.025.652 4 1v7h-1v-6h-4v6h-2z"/><path fill="#9D92AC" d="M576 376c1.875.125 1.875.125 4 1 1.25 3.063 1.25 3.063 2 6l-6 1z"/><path fill="#F9F9F9" d="M658 376h2v13l-4-2 .438-1.562c.72-3.123 1.135-6.264 1.562-9.438"/><path fill="#EBBB2A" d="M638 564c2.5 1.625 2.5 1.625 5 4 .313 3.25.313 3.25 0 6h-3c-1.316-3.62-2-6.096-2-10"/><path fill="#DFBC57" d="m633 577 2 3 2-3 1 7-9-2z"/><path fill="#302C36" d="M653 381h4l1 5-5 1c-1.125-3.75-1.125-3.75 0-6"/><path fill="#DCBB57" d="m199 280 6 3c-2.366 2.615-4.942 4.264-8 6z"/><path fill="#241F2C" d="M621 381c2.063.438 2.063.438 4 1l-1 5h-4a100 100 0 0 1 0-5z"/><path fill="#261F2E" d="M602 381c2.063.438 2.063.438 4 1l-1 5h-4a100 100 0 0 1 0-5z"/><path fill="#918B9B" d="M476 608h1v6h-6v-4h5z"/><path fill="#2A1E3A" d="m589 382 5 1-1 4-5-1z"/><path fill="#928C9C" d="M358 605c2.063.438 2.063.438 4 1v2h-2v5l2 1-4-1a177 177 0 0 1-1-7z"/><path fill="#938C9D" d="M353 581c2.063.438 2.063.438 4 1v2h-2v5l2 1-4-1a177 177 0 0 1-1-7z"/><path fill="#665D74" d="M391 604h3l1 5-4 1a88 88 0 0 1-1-5z"/><path fill="#291C3D" d="M406 583h2c-.75 4.75-.75 4.75-3 7l-6-2v-1h6z"/><path fill="#E2B738" d="m650 573 6 1a105 105 0 0 1-4 5h-2z"/><path fill="#8D8B91" d="M642 381a85 85 0 0 1 7 2v2h-8z"/><path fill="#EFBE2A" d="m191 270 2 2h-2v12h-1v-7l-3-1z"/><path fill="#15072A" d="m374 608 5 1-1 4-4-1z"/><path fill="#180A2D" d="M365 608h4l-1 5-4-1z"/><path fill="#9993A2" d="m331 605 3 1-1 7 2 1-4-1a177 177 0 0 1-1-7z"/><path fill="#15072B" d="M360 584h4l-1 5-4-1z"/><path fill="#14062A" d="m318 584 5 1-1 4-4-1z"/><path fill="#645B73" d="m450 582 8 1v3c-3.044.082-5.072-.024-8-1z"/><path fill="#9993A2" d="m371 581 3 1-1 7 2 1-4-1a177 177 0 0 1-1-7z"/><path fill="#F4F4F5" d="M611 380h5l-2 2c-.4 2.323-.74 4.657-1 7h-2z"/><path fill="#FDD765" d="M197 279h2c.37 5.415.37 5.415-1.5 8.375L196 289q-.04-2.22-.062-4.437l-.036-2.497C196 280 196 280 197 279"/><path fill="#1F1133" d="M509 608h4l-1 5-4-1z"/><path fill="#938C9D" d="m523 580 1 2-5-1-.875 1.875C517 585 517 585 515 587c.375-2.937.375-2.937 1-6 2.463-1.231 4.28-1.072 7-1"/><path fill="#CAC9CC" d="M620 379c2.125.375 2.125.375 4 1h-3l-1 6h-3c.75-4.75.75-4.75 3-7"/><path fill="#D8D7DA" d="m607 380-2 2h-3l-2 4-1-6c3.29-1.097 4.713-.8 8 0"/><path fill="#645B73" d="m343 582 4 1 1 4-6-1z"/><path fill="#130528" d="M454 608h4v5l-4-1z"/><path fill="#130629" d="M407 608h4v5l-4-1z"/><path fill="#60566E" d="M490 606c2.063.438 2.063.438 4 1v3h-5c0-3 0-3 1-4"/><path fill="#655B73" d="m348 606 4 1 1 4-6-1zM388 582l4 1 1 4-6-1z"/><path fill="#EDB612" d="m648 577 3 3-4 9c-1.241-4.966-.373-7.155 1-12"/><path fill="#5B516A" d="M541 611h6v3h-6z"/><path fill="#190B2F" d="M466 586h6v3h-6z"/><path fill="#DBD7E1" d="M575 379h2l-1 5 4 1h-7z"/><path fill="#D9D8DA" d="M642 379c2.625.375 2.625.375 5 1l1 4-3-2a75 75 0 0 0-5-1z"/><path fill="#B3AEBA" d="m526 605 3 1v2h-2v5l2 1h-3c-.879-6.152-.879-6.152-1-8z"/><path fill="#4D4A52" d="M672 417c-3.833 2.706-6.325 3.326-11 3l4-1v-2c3.01-.934 3.867-1.044 7 0"/><path fill="#E9BE41" d="M183 281v5l-5-2c2.75-3 2.75-3 5-3"/></svg>