<svg xmlns="http://www.w3.org/2000/svg" width="73" height="76"><path fill="#FDC13F" d="M41 13a367 367 0 0 1 3.438 2.813l1.933 1.582C48 19 48 19 49 22a88 88 0 0 0 4 2l2.563 2.188L58 28l3-1 1-3h2l2-4 2 1c.146 4 .234 7.999.313 12l.126 3.41c.105 7.163-.5 12.177-5.439 17.59-6.554 5.417-15.739 6.784-24 7-9.494-.94-17.233-4.233-24-11-1.792-5.773-2.18-11.226-2.187-17.25l-.003-2.077C12.85 27 13.134 23.573 14 20l1.39 1.242 1.86 1.633 1.828 1.617C20.974 25.98 22.813 27.003 25 28l1.39-1.645 1.86-2.168 1.828-2.144C31.938 20.066 33.731 18.486 36 17h2l1-3zm2 8v6l7 1a858 858 0 0 0-2.937-3.5l-1.653-1.969L44 21zm-6 1-6 5c2.892 1.333 2.892 1.333 5.188.063L38 26zm-19 8 1 4 2-3zm10 3c1.371 2.74 1.371 2.74 4 5 2.276.087 4.298-.27 6.54-.668 3.932-.53 7.546.109 11.46.668l1-3 3-1c-3.668-3.668-7.872-3.16-12.875-3.187l-3.617-.043C34 31 31.264 31.737 28 33m33-2 1 2Zm-37 5-1 4 2 1 2-1-1-4zm32 0-2 3 4 2-1-5zm-19 4c-.332 3.003-.332 3.003 1.5 4.688L40 46c3.161-1.37 3.993-1.99 6-5-.983-1.206-.983-1.206-2.848-1.098zm25 0 1 2Zm-44 1v5h1v-5zm32 1-2 4c2.97-.342 2.97-.342 6-1l1-2zm-23 2 7 3v-3h-2v-2c-2.324-.185-2.324-.185-5 2m35 0 1 4Zm-38 2-1 4c4.921 4.921 9.168 6.095 16 7 .167-2.416.167-2.416 0-5-2.288-2.288-3.271-2.423-6.375-3-3.202-.6-5.762-1.431-8.625-3m29.875 1.875C50.3 49.274 46.735 50.114 43 51v6c8.367-1.118 8.367-1.118 15-6v-4c-2.075-.127-2.075-.127-4.125.875"/><path fill="#FDCB5C" d="M43 16a125 125 0 0 1 6 4v2l1.688.75C53 24 53 24 55.562 26.188L58 28l3-1 1-3h2l2-4 2 1c.146 4 .234 7.999.313 12l.126 3.41c.105 7.163-.5 12.177-5.439 17.59-6.572 5.432-15.733 6.589-24 7-2.01-.27-4.015-.585-6-1v-1l9-1v-8l3 1h-2v6q2.94-.928 5.875-1.875l3.305-1.055c2.905-.882 2.905-.882 4.82-3.07.643-2.069.643-2.069 1-4l-3.312 1.563C51 50 51 50 48 49a178 178 0 0 1-4-2l2-1-1-6 5 2-2 4 8-3v2l3 1 1 4V39l-1 3-2-1c-.625-2.062-.625-2.062-1-4l-2 1v-2l-3 1v-2l2-1c-3.984-1.846-7.444-2.36-11.812-2.625l-3.52-.227L35 31v-1l14-1c-1.617-3.235-2.476-4.706-5-7l-1 5 4 1h-6V18h2zm18 15 1 2Zm1 9 1 2Zm0 4 1 4Z"/><path fill="#FDBD30" d="m41 13 1 2h-2v13h-6l3-2v-3l-1.68 1.313L33.125 26l-2.18 1.688C29 29 29 29 27 29l-1 2-2.5 2.438c-2.704 2.771-3.447 4.206-3.598 8.042l.035 2.708.028 2.73L20 49l-2 1-1 2c-4.803-4.803-4.18-12.86-4.187-19.25l-.003-2.077C12.85 27 13.134 23.573 14 20l1.39 1.242 1.86 1.633 1.828 1.617C20.974 25.98 22.813 27.003 25 28l1.39-1.645 1.86-2.168 1.828-2.144C31.938 20.066 33.731 18.486 36 17h2l1-3zM18 30l1 4 2-3zm0 11v5h1v-5z"/><path fill="#FDC954" d="m30 36 1.563.563c2.559.596 2.559.596 5.625-.063 3.85-.505 6.9-.25 10.699.344 2.269.168 3.95-.18 6.113-.844l1.375 2.438c1.372 2.65 1.372 2.65 3.625 3.562l1-4c1 1 1 1 1.098 3.504l-.035 3.059-.028 3.066L61 50l-2 1v-5l-4-1 1-2-3.937-.437C48.125 42.125 48.125 42.125 47 41a92 92 0 0 0-5.062-.062l-2.786.027L37 41l5 6-9 1v2c-3.354-.95-6.692-1.897-10-3v-2h2v-2h-2l1-3h3v-2h2v2l5 2v-3l-4-1zm-3 8 7 3v-3h-2v-2c-2.324-.185-2.324-.185-5 2"/><path fill="#FDC13C" d="M40 15h3v3h-2v10h8l1 2-3.07.113-4.055.2-2.016.068C36.241 30.63 32.986 31.684 29 34c.791 2 .791 2 2 4l3 1v3l-6-1 1-3-5-2-1 7h2v2h-2l-1 5h-1c-2.01-13.282-2.01-13.282.352-17.297 4.46-3.834 8.593-4.85 14.398-4.766l2.422.028L40 28l-.254-2.336-.309-3.039-.316-3.023C39 17 39 17 40 15"/><path fill="#FDBE35" d="m45 36.313 2.563.425c2.463.265 4.098.015 6.437-.738l1.375 2.438c1.372 2.65 1.372 2.65 3.625 3.562l1-4c1 1 1 1 1.098 3.504l-.035 3.059-.028 3.066L61 50l-2 1v-5l-4-1 1-2-3.937-.437C48.125 42.125 48.125 42.125 47 41a123 123 0 0 0-5.562-.562l-3.067-.254L36 40c2.635-3.952 4.539-4.227 9-3.687"/><path fill="#FDCF6F" d="M43 16a125 125 0 0 1 6 4v2l1.938.875C53 24 53 24 54 26h-3v2l3 1-3 1c-2.526-2.526-4.724-5.245-7-8l-1 5 4 1h-6V18h2z"/><path fill="#FEE8B6" d="M14 20h1l1 23 4-4v10l-2 1-1 2c-4.803-4.803-4.18-12.86-4.187-19.25l-.003-2.077C12.85 27 13.134 23.573 14 20m4 21v5h1v-5z"/><path fill="#FDCF66" d="m41 13 1 2h-2v13h-6l3-2v-3l-5 3v-2l-2-1c4.625-4.875 4.625-4.875 8-6l1-3z"/><path fill="#FDB81F" d="M40 15h3v3h-2v10h8l1 2-19 1 1-2c2.649-.594 5.292-.742 8-1l-.254-2.336-.309-3.039-.316-3.023C39 17 39 17 40 15"/><path fill="#FDB61A" d="m59 38 2 1v11l-2 1v-5l-4-1 1-2h-2v-2l5 1z"/><path fill="#FCB922" d="M67 22v15l-2-1c-.294-1.991-.58-3.985-.781-5.988-.225-2.07-.636-4.013-1.219-6.012 3-2 3-2 4-2"/><path fill="#FECB5E" d="m43 16 2 1v4h-2v6l4 1h-6V18h2z"/><path fill="#FDB71B" d="M40 51h1v7h5v1H31l-1-3 2.188.438L35 57l5 1z"/><path fill="#FEDC93" d="M62 24c2.326 3.634 2.163 6.77 2 11-3-3.75-3-3.75-3-6l-5 1 1-2 2-.437L61 27z"/><path fill="#FDC74F" d="M54 30v2l-19-1v-1q3.624-.292 7.25-.562l2.066-.17c3.426-.25 6.411-.407 9.684.732"/><path fill="#FCB517" d="M21 37c2 2 2 2 2 6h2v2h-2l-1 5h-1z"/><path fill="#FEE7B4" d="M39 19h1v9h-6l3-2c1.219-3.557 1.219-3.557 2-7"/><path fill="#FDD371" d="m55 43 1 2 3 1-1 4v-3l-5 1v-2l-2-1z"/><path fill="#FDC851" d="M51 38c1.938.375 1.938.375 4 1l1 2h-2v2l-4-1z"/><path fill="#FECE63" d="m30 36 8 2-2 4h-2v-3l-4-1z"/><path fill="#FDB61A" d="M28 36h2l1 2 3 1v3l-6-1z"/><path fill="#FDB923" d="m53 54 3 1-2 3c-3.625.188-3.625.188-7 0 3-2 3-2 6-2z"/><path fill="#FFF" d="m28 18 2 1-2 1zM30 16l2 1-2 1z"/></svg>