<svg xmlns="http://www.w3.org/2000/svg" width="216" height="75"><path fill="#D9E5C7" d="M5 32q5.688-.08 11.375-.125c1.08-.017 2.16-.034 3.273-.05l3.125-.02 2.889-.032C28 32 28 32 30 34c.266 2.969.266 2.969.25 6.5l.016 3.531C30 47 30 47 28 49c-2.712.893-5.196 1.128-8.04 1.133l-2.257.004-2.328-.012-2.352.012c-5.77-.01-5.77-.01-8.023-1.137zm5 3v4h15v-4zm1 7-1 4h15v-4z"/><path fill="#9CA58F" d="M167.247 31.773c.91.01 1.822.02 2.76.032l2.99.02 3.128.05 3.152.027q3.862.036 7.723.098v3h-19v4h18c2 6 2 6 1.438 8.312-2.01 2.36-3.367 2.27-6.438 2.688-2.78.068-5.534.095-8.312.062l-2.245-.013q-2.721-.02-5.443-.049l-1-4 18-1v-2l-3.648-.148-4.727-.227c-.794-.03-1.588-.062-2.406-.094-5.992-.304-5.992-.304-8.219-2.531-.25-3-.25-3 0-6 2-2 2-2 4.247-2.227"/><path fill="#ECF9D9" d="M135 32c3.625-.058 7.25-.094 10.875-.125 1.033-.017 2.065-.034 3.129-.05l2.988-.02 2.761-.032C157 32 157 32 159 34c.178 3.204.24 6.067-.562 9.188-.538 2.227-.13 3.657.562 5.812h-5l-.586-1.953c-1.301-2.39-1.301-2.39-4.453-2.656l-3.586-.141-3.602-.172L139 44v5l-3 1c-1-1-1-1-1.098-4.816q.01-2.374.036-4.746l.013-2.444q.02-2.997.049-5.994m5 3-1 4c1.137 1.365 1.137 1.365 4.16 1.098l3.903-.035 3.91-.028L154 40v-5z"/><path fill="#B7C1A7" d="m110.225 31.886 2.904.016 3.135.01 3.298.025 3.311.014q4.064.018 8.127.049v3l-19 1v2l15 1v3l-15 1v2l19 1v3c-3.821 1.228-7.512 1.133-11.5 1.125l-3.969.008C110.43 49.94 110.43 49.94 108 49c-1.493-2.987-1.132-5.744-1.125-9.063l-.008-3.847c.174-4.041.174-4.041 3.358-4.204"/><path fill="#ABB49C" d="M52.813 31.188 57 32v17h-4l-1-1c0-1.996.003-3.992.031-5.988-.033-2.135-.356-3.986-1.031-6.012l-3 1v2a140 140 0 0 1-5 5l-2.437 2.813C38 49 38 49 34.687 49.313L32 49c3.533-7.634 11.838-17.928 20.813-17.812"/><path fill="#949C88" d="M61 32h4l1 13 16 1-1 4q-3.906.04-7.812.063l-2.237.025c-3.25.015-5.845-.053-8.951-1.088-2.3-3.28-2.24-6.268-2.187-10.187l.019-3.231C60 33 60 33 61 32"/><path fill="#565A4E" d="M84 32h4l1 13 15 1 1 3c-3.003 1.501-6.085 1.184-9.375 1.188l-2.04.037c-3.675.01-6.524-.076-9.585-2.225-1.433-2.866-1.132-5.372-1.125-8.562l-.008-3.567C83 33 83 33 84 32"/><path fill="#6C7263" d="M5 32q5.688-.08 11.375-.125c1.08-.017 2.16-.034 3.273-.05l3.125-.02 2.889-.032C28 32 28 32 30 34c.266 2.969.266 2.969.25 6.5l.016 3.531C30 47 30 47 28 49c-2.712.893-5.196 1.128-8.04 1.133l-2.257.004-2.328-.012-2.352.012c-5.77-.01-5.77-.01-8.023-1.137zm2 1v15h21v-3h-2v-2l3-1-1-6-2 2v-5z"/><path fill="#717768" d="m157 33 2 1c.125 6.513.125 6.513-.562 9.188-.538 2.227-.13 3.657.562 5.812h-5l-.586-1.953c-1.301-2.39-1.301-2.39-4.453-2.656l-3.586-.141-3.602-.172L139 44v5l-3 1-1-2h3v-5l13-1-13-1v-6h2v4l14 1v-5l2 4z"/><path fill="#C3CEB3" d="M167.247 31.773c.91.01 1.822.02 2.76.032l2.99.02 3.128.05 3.152.027q3.862.036 7.723.098v3h-19l-1 4-2-3-2 4c-.125-2.875-.125-2.875 0-6 2-2 2-2 4.247-2.227"/><path fill="#787E6E" d="m47 32 2 1-2 3 1 3-5 5-2.437 2.813C38 49 38 49 34.687 49.313L32 49c1.321-2.932 2.746-4.987 5.04-7.234l1.757-1.739 1.828-1.777 1.852-1.824Q44.733 34.207 47 32"/><path fill="#EAF7D7" d="M85 33h2v12l16 1v2q-4.22.04-8.437.063l-2.432.025c-2.044.009-4.088-.036-6.131-.088-1-1-1-1-1.098-4.16l.035-3.903.028-3.91z"/><path fill="#CED9BD" d="M135 32h22l1 5c-1.437 1.813-1.437 1.813-3 3v-5l-3.613.105-4.7.083-2.38.076-2.295.029-2.11.048C138 35 138 35 135 32"/><path fill="#EDF9D9" d="M27 36h1l1 7-1.516-.465c-3.387-.73-6.784-.899-10.234-1.097l-2.113-.131Q12.569 41.149 10 41v-1l3.21-.113q2.083-.099 4.165-.2l2.117-.068c2.28-.089 2.28-.089 5.508-.619z"/><path fill="#ECF9D8" d="m165 35 1.02 1.953c2.852 2.948 5.784 2.717 9.667 2.797l2.127.09c1.728.07 3.457.117 5.186.16v1q-4.187.04-8.375.063l-2.406.025c-5.992.025-5.992.025-8.219-1.088z"/><path fill="#818876" d="M164 33c2.063.438 2.063.438 4 1v5l-3-3-2 4c-.043-2-.04-4 0-6z"/><path fill="#6F7565" d="M29 41h1v6l-2 1v-3l-3 1 1-4 3 1z"/></svg>