<svg xmlns="http://www.w3.org/2000/svg" width="86" height="86"><path fill="#FFDB43" d="M67.582 8.152C77.16 15.472 83.077 25.058 85 37c1.05 11.46-1.725 22.4-8 32h-2l-.762 1.809c-1.401 2.48-2.747 3.602-5.05 5.254l-2.02 1.472c-9.41 6.358-20.513 9.02-31.777 6.996C28.27 82.841 22.256 79.74 16 76v-2l-1.781-.73C8.02 69.723 4.759 62.123 2.563 55.625-.692 43.592.64 32.611 6.284 21.461 12.334 11.655 20.924 5.399 31.688 1.75c12.535-2.728 25.161-.542 35.894 6.402M22 16l-2.562 1.75c-6.255 5.773-9.9 13.743-10.723 22.172C8.385 51.238 11.402 58.655 19 67c6.534 6.502 13.91 9.316 23 10 10.924-.38 19.358-3.834 26.875-11.812C73.417 59.585 76.385 53.23 77 46l.313-3.625c-.253-10.194-4.585-17.843-11.575-25.02C52.898 6.31 35.47 5.897 22 16"/><path fill="#FFDF59" d="M70 10c1.928 1.915 3.414 3.78 5 6-3.22 1.38-5.273 2.149-8.75 1.438-3.728-1.65-7.36-3.443-10.98-5.317-6.993-3.454-15.84-3.18-23.208-.871-8.973 3.51-15.897 9.96-19.976 18.71-3.21 8.31-3.357 17.509-.219 25.872 1.793 3.432 4.18 6.304 6.707 9.223C20 67 20 67 20 70h-4l-3 1v-3H9C2.735 61.806.896 51.553.563 43.125.909 31.513 5.07 21.16 13.105 12.813 29.171-2.23 52.283-3.288 70 10"/><path fill="#FFC221" d="M20 26c5 1.342 9.19 3.484 13 7v2l3.395-.254 4.417-.309 2.237-.17c3.319-.225 5.763-.33 8.951.733l2.063-2.25C57.08 29.74 60.156 27.85 64 26l3 1c-3.023 3.255-6.257 5.618-10 8l1.094 1.68 1.406 2.195 1.406 2.18C62 43 62 43 62 45l5 1c-2.052 2.248-3.007 3.002-6 4-1.61 2.376-1.61 2.376-3 5l-2 3h-2l-1 3c-2.27 1.927-3.926 3.038-6.969 2.93-2.013-.293-4.022-.611-6.031-.93l-2.125.688C36 64 36 64 33.063 62.375 28.084 58.515 25.179 56.231 24 50c-1.968-1.36-1.968-1.36-4-2v-3h4l.813-2.187C26 40 26 40 29 35l-10-7zm11 11a805 805 0 0 0-2.5 4.375l-1.406 2.46C25.85 45.894 25.85 45.894 26 48l11 1v3c3.573 3.49 5.933 5.452 11 6l3 1v-2l-6-2v-3l3-1 1-2 2.313 1.563L54 52l3-1a3439 3439 0 0 0-4.312-3.375l-2.426-1.898c-3.283-2.876-3.283-2.876-7.324-3.477-2.133.675-2.133.675-3.938 2.75-1.988.398-3.99.738-6 1 .875-5.75.875-5.75 2-8zm6 2c-.805 2.05-.805 2.05-1 4l3-1v-2c5.083-.42 7.501.573 11.625 3.5 4.217 3.05 4.217 3.05 9.375 3.5-2.216-5.962-2.216-5.962-7.25-9.5-8.27-1.345-8.27-1.345-15.75 1.5m-4 12-2 4 3-2zm15 1c2.052 2.248 3.007 3.002 6 4v-2zm-13 3-2 4h2l2-4zm3 3 1 2 1-2zm4 0 1 2 3-1z"/><path fill="#F1CC57" d="M14.563 13.938 17 14l-.5 2.813c-.577 3.143-.577 3.143-.5 6.187a87 87 0 0 1-2.437 4.938c-4.272 8.067-5.048 16.871-2.5 25.75 1.664 4.434 4.434 7.811 7.511 11.367C20 67 20 67 20 70h-4l-3 1v-3H9C2.735 61.806.896 51.553.563 43.125c.227-7.625 3.888-28.94 14-29.187"/><path fill="#B99628" d="m66 16 5 2 1-2h4c6.68 7.528 9.648 18.421 9.285 28.332C84.312 53.436 82.022 61.319 77 69l-3-1-1-3-3-1a178 178 0 0 1 3.563-8.437c3.719-9.218 3.025-17.445-.208-26.641C71.328 24.55 68.462 21.306 65 18z"/><path fill="#EFCC61" d="M67 27c-3.023 3.255-6.257 5.618-10 8l1.094 1.68 1.406 2.195 1.406 2.18C62 43 62 43 62 45l5 1c-2.052 2.248-3.007 3.002-6 4-1.61 2.376-1.61 2.376-3 5l-2 3h-2l-1 3c-2.187 1.813-2.187 1.813-5 3-3.312-.812-3.312-.812-6-2l1-3v-3l2.438.5c2.29.532 2.29.532 3.562.5l-4-2v-3l2-1 1-3 2.875 1.5c2.848 1.644 2.848 1.644 5.125 1.5-7.643-6.435-7.643-6.435-17-9v-2c3.688-.997 5.406-1.295 8.887.434.924.66 1.848 1.322 2.8 2.004C54.477 45.325 54.477 45.325 59 46c-1.378-3.94-1.378-3.94-4-7-4.291-1.236-8.554-1.685-13-2l-1-3 3.813-.062 2.144-.036C49 34 49 34 52 35l2.063-2.25C57.645 29.178 61.85 25.284 67 27M48 52c2.052 2.248 3.007 3.002 6 4v-2z"/><path fill="#FFBA03" d="m40 3 1 5 3 1-2.309.262C31.225 10.686 24.341 14.789 16 21c-1.245-2.49-.777-3.41 0-6l-3-2C21.362 5.16 28.556 1.283 40 3"/><path fill="#FFBE00" d="m12 67 2 2 2 1 1-2c3.49 1.047 6.664 2.3 9.875 4 3.961 2.05 7.772 3.067 12.125 4-1.231 2.463-2.78 3.425-5 5l8 3c-9.306 2.326-18.196-3.336-26-8v-2l-1.875-.812C12 72 12 72 10 69h2z"/><path fill="#FDE260" d="M69 64c2.688.313 2.688.313 5 1v3l2 1c-4.277 5.74-8.923 10.05-16 12-2.305-.879-2.305-.879-4-2-.3-2.273-.3-2.273 0-5 2.082-1.914 2.082-1.914 4.813-3.625 3.645-2.278 3.645-2.278 6.843-5.105z"/><path fill="#FFC311" d="m28 47 9 2v3l3 1c3.055 4.037 3.055 4.037 2.875 7.188C42 62 42 62 39 64c-4.586-.459-8.267-3.511-12-6-.28-2.806-.267-4.466 1-7zm5 4-2 4 3-2zm2 4-2 4h2l2-4zm3 3 1 2 1-2z"/><path fill="#FED75F" d="m48 48 9 4-1 6h-2l-1 3c-2.187 1.813-2.187 1.813-5 3-3.312-.812-3.312-.812-6-2l1-3v-3l2.438.5c2.29.532 2.29.532 3.562.5l-4-2v-3l2-1zm0 4c2.052 2.248 3.007 3.002 6 4v-2z"/><path fill="#FBD777" d="M10 54a505 505 0 0 1 4 5l1.602 2.008 1.648 2.117 1.578 2.008C20 67 20 67 20 70h-4l-3 1v-3H9c-4-5.111-4-5.111-4-8l2-1a90 90 0 0 0 2-4z"/><path fill="#C0981E" d="M76 36c3.756.751 5.832 1.24 9 3 .218 6.002-.494 11.192-2 17h-2l-1-3 2-3v-2l-6 2z"/><path fill="#FFC63D" d="M36 1c2.041-.055 4.083-.093 6.125-.125l3.445-.07c3.488.198 6.185.943 9.43 2.195v3l-4-1 1 4c-2.633 1.316-3.802.748-6.625.063l-2.477-.59L41 8V6l-2-1 1-2h-4z"/><path fill="#FFB32B" d="m12 67 2 2 2 1 1-2c2.938.813 2.938.813 6 2l1 3 1.563 1.563L27 76v2a764 764 0 0 1-4.375-.437l-2.46-.247C18 77 18 77 16 76v-2l-1.875-.812C12 72 12 72 10 69h2z"/><path fill="#C8A937" d="m66 16 5 2 1-2h4l4 7-3 1-2 2c-2.797-.176-3.795-.778-5.703-2.848l-1.547-2.215-1.578-2.222L65 17z"/><path fill="#FFC413" d="m30 31 3 2v2h9l-1 3-3 1c-1.209 2-1.209 2-2 4l5-2v3c-2 2-2 2-5.125 2.125L33 46c-.625-1.812-.625-1.812-1-4l2-3-3-2c-.687-3.125-.687-3.125-1-6"/><path fill="#FFC723" d="M41 77v3h7v2l5 1v1c-7.844 1.349-13.05.998-20-3 3.5-4 3.5-4 8-4"/><path fill="#F8DA65" d="m11 24 3 1a428 428 0 0 1-1.812 4.313l-1.02 2.425C9.998 34.003 9.011 35.441 7 37c-2.687-.312-2.687-.312-5-1l1-7c1.977-.73 3.98-1.394 6-2l2 1-1-3z"/><path fill="#EBC144" d="M65 7c4.179 2.564 7.125 5.02 10 9-3.58 1.534-5.458 2.123-9.312 1.25C63 16 63 16 62 14h2z"/><path fill="#FFD920" d="m16 10 1 2h2v-2c2.915 1.074 4.778 1.778 7 4l-9 7-2-2c.375-2.125.375-2.125 1-4l-3-2z"/><path fill="#FFD148" d="M47 40c2.676 1.523 2.676 1.523 5.313 3.375l2.675 1.836L57 47v3c-2.793-.414-4.082-1.067-6.312-2.875C47.335 44.475 43.41 42 39 42v-2c3.405-1.135 4.607-.992 8 0"/><path fill="#FFC21D" d="M33 3h7l1 5 3 1q-3.187.079-6.375.125l-3.586.07C31 9 31 9 29 7l3-1z"/><path fill="#D9BC42" d="M69 64q2.514.428 5 1v3l2 1a858 858 0 0 1-2.937 3.5l-1.653 1.969L70 76h-1c-.125-5.75-.125-5.75 1-8l-4 1c1.875-3.875 1.875-3.875 3-5"/><path fill="#FED04D" d="M26 40h1c.125 5.75.125 5.75-1 8h2l-1 8-2-1-.375-2.437c-.35-2.723-.35-2.723-2.687-3.876L20 48v-3h4z"/><path fill="#FFD93C" d="m11 56 1.625 2.063C15.351 61.433 18.165 64.72 21 68l-1 2h-4l-3 1 1-9h-3z"/><path fill="#FACF4C" d="M9 49c1.25 1.563 1.25 1.563 2 4-1.068 2.57-2.465 4.653-4 7H4l-2-8h3v2c2.51-1.255 2.871-2.5 4-5"/><path fill="#BE8A27" d="M82 48c.625 1.875.625 1.875 1 4l-2 2v2l2 1-3 1v-2l-5-1c.25-2.375.25-2.375 1-5 2.151-1.457 3.403-2 6-2"/><path fill="#FFCF41" d="M43 56c3.688.498 5.605 1.1 8 4l-3 4-6-2 1-3z"/><path fill="#FFD83F" d="M14.625 13.875 17 14l-.5 2.813c-.577 3.143-.577 3.143-.5 6.187l-6-1 1-3-1-3c2-2 2-2 4.625-2.125"/><path fill="#FFC104" d="M33.047 74.957c1.997.266 3.978.648 5.953 1.043-1.324 2.647-2.204 3.044-5 4-3.75-.375-3.75-.375-7-1 1.764-2.426 2.924-3.977 6.047-4.043"/><path fill="#FFD34E" d="M41 34c4.516-.077 8.59-.102 13 1v3l-12-1z"/><path fill="#FED672" d="m65 7-1 7c-4.875-1.75-4.875-1.75-6-4l1-3c2.49-1.245 3.41-.777 6 0"/><path fill="#FFCA22" d="M28 47h3c1.117 4.69.806 7.538-1 12l-3-1c-.125-4.75-.125-4.75 1-7z"/><path fill="#FFDD62" d="M10 62h4c.688 1.813.688 1.813 1 4-1.437 1.75-1.437 1.75-3 3l-4-2c.875-3.875.875-3.875 2-5"/><path fill="#D0AD20" d="M83 39h2c.218 6.002-.494 11.192-2 17h-2l-1-3 2-3c.458-2.739.458-2.739.625-5.687l.227-3.012z"/><path fill="#FFC81A" d="M21 69c2.275 2.167 4.236 4.396 6 7v2l-9-1 1-2h3z"/><path fill="#FFE62D" d="M36 1c2.041-.055 4.083-.093 6.125-.125l3.445-.07c3.488.198 6.185.943 9.43 2.195v3c-2.937-.375-2.937-.375-6-1l-1-2c-2.816-.469-2.816-.469-6.062-.625l-3.348-.227L36 2z"/><path fill="#FFC249" d="m54 78 6 2v2c-1.435.223-2.873.428-4.312.625l-2.426.352C51 83 51 83 48 81h5z"/><path fill="#FFCC5E" d="m61 72-1 5 3 1c-3 2-3 2-5.187 1.625L56 79c-.187-2.375-.187-2.375 0-5 3-2 3-2 5-2"/><path fill="#EBB241" d="M71 68h2l1 4-5 4c-.125-2.875-.125-2.875 0-6z"/><path fill="#ECC75E" d="M60 45h1c-.488 6.055-.488 6.055-1 8l-3 2c-.75-2.187-.75-2.187-1-5 1.875-2.812 1.875-2.812 4-5"/><path fill="#FF9B00" d="M30 80c2.846.66 5.523 1.517 8.25 2.563l2.14.816L42 84c-3.272 1.073-5.43.893-8.75.063l-2.422-.59L29 83z"/><path fill="#F6D84D" d="m11 24 3 1-4 9H9v-6h2l-1-3z"/><path fill="#FFC229" d="M44 76c3.625-.187 3.625-.187 7 0l-1 3h-8z"/><path fill="#CEA93F" d="m61 43 1 2c2.527.656 2.527.656 5 1-1.312 1.5-1.312 1.5-3 3h-3a88 88 0 0 1-1-5z"/><path fill="#FEDC63" d="M51 43c3 1.813 3 1.813 6 4v3c-2.867-.573-3.861-.861-6-3z"/><path fill="#FFBB27" d="m17 14 4 1v3c-2.5 1.688-2.5 1.688-5 3l-1-2c.938-2.625.938-2.625 2-5"/><path fill="#FFB926" d="M39 82c6.055-.195 6.055-.195 8 0l2 2c-3.312.688-3.312.688-7 1-1.937-1.437-1.937-1.437-3-3"/><path fill="#ECCC57" d="M65 68h5l-1 5-6-1z"/><path fill="#FFD755" d="M20 26c2.438.75 2.438.75 5 2 .813 2.125.813 2.125 1 4l-6-3z"/><path fill="#FFD454" d="M45 52c2.169.506 4 1 6 2v3l-6-2z"/><path fill="#FFC771" d="M6 39h3v9l-2-1c-.594-2.649-.742-5.292-1-8"/><path fill="#CAA63A" d="M67 27a91 91 0 0 1-4 4h-2l-1-3c3.625-2.125 3.625-2.125 7-1"/><path fill="#FF9000" d="M27 9h10v1l-10 3z"/><path fill="#F0CC65" d="m5 49 3 1-1 4H5v-2l-3-1z"/><path fill="#F2CD67" d="m5 32 3 1-1 4-5-1v-2h3z"/><path fill="#BE8A24" d="M74 16h2c1.625 2.5 1.625 2.5 3 5l-3 1-3-2z"/><path fill="#FFD80D" d="m21 11 5 2-5 4a88 88 0 0 1-1-5z"/><path fill="#ECD155" d="m65 7 2 1v6l-3 1z"/><path fill="#FFDA06" d="m36 3-3 1c-1.667 1.5-1.667 1.5-3 3l-2-4c3.053-.981 4.947-.981 8 0"/></svg>