<svg xmlns="http://www.w3.org/2000/svg" width="86" height="86"><path fill="#FFBE00" d="M67.582 8.152C77.16 15.472 83.077 25.058 85 37c1.05 11.46-1.725 22.4-8 32h-2l-.762 1.809c-1.401 2.48-2.747 3.602-5.05 5.254l-2.02 1.472c-9.41 6.358-20.513 9.02-31.777 6.996C28.27 82.841 22.256 79.74 16 76v-2l-1.781-.73C8.02 69.723 4.759 62.123 2.563 55.625-.692 43.592.64 32.611 6.284 21.461 12.334 11.655 20.924 5.399 31.688 1.75c12.535-2.728 25.161-.542 35.894 6.402M22 16l-2.562 1.75c-6.255 5.773-9.9 13.743-10.723 22.172C8.385 51.238 11.402 58.655 19 67c6.534 6.502 13.91 9.316 23 10 10.924-.38 19.358-3.834 26.875-11.812C73.417 59.585 76.385 53.23 77 46l.313-3.625c-.253-10.194-4.585-17.843-11.575-25.02C52.898 6.31 35.47 5.897 22 16"/><path fill="#FFDF59" d="M70 10c1.928 1.915 3.414 3.78 5 6-3.22 1.38-5.273 2.149-8.75 1.438-3.728-1.65-7.36-3.443-10.98-5.317-6.993-3.454-15.84-3.18-23.208-.871-8.973 3.51-15.897 9.96-19.976 18.71-3.21 8.31-3.357 17.509-.219 25.872 1.793 3.432 4.18 6.304 6.707 9.223C20 67 20 67 20 70h-4l-3 1v-3H9C2.735 61.806.896 51.553.563 43.125.909 31.513 5.07 21.16 13.105 12.813 29.171-2.23 52.283-3.288 70 10"/><path fill="#FFD24A" d="M26 28h40v24h-6v6H20V34h6zm2 3v3h32v16h4V31zm-6 5v19h5l-2-4h-2c.087-1.605.196-3.21.313-4.812l.175-2.708C24.097 40.53 24.6 39.78 27 38c2.82-.432 2.82-.432 6.2-.512l3.661-.107 3.827-.069 3.86-.103Q49.275 37.085 54 37v3h3a485 485 0 0 1-.375 5.438c-.07 1.009-.14 2.018-.21 3.058-.138.826-.274 1.653-.415 2.504l-2 1v3h4V36zm7 3-1 3-3 1c-.437 4.234-.437 4.234 1.438 7.875C30.25 52.549 33.896 52.237 38 52l-1.562-2.187C34.786 46.58 34.936 45.383 36 42c3.375-.625 3.375-.625 7-1l2 2c-.462 6.462-.462 6.462-3 9h10v-2l3-1c.297-3.271.402-5.33-1.312-8.187-4.34-2.927-8.84-2.231-13.938-2.063l-3.125.055Q32.812 38.876 29 39m9 4-1 5 5 1 2-4-2-2z"/><path fill="#F1CC57" d="M14.563 13.938 17 14l-.5 2.813c-.577 3.143-.577 3.143-.5 6.187a87 87 0 0 1-2.437 4.938c-4.272 8.067-5.048 16.871-2.5 25.75 1.664 4.434 4.434 7.811 7.511 11.367C20 67 20 67 20 70h-4l-3 1v-3H9C2.735 61.806.896 51.553.563 43.125c.227-7.625 3.888-28.94 14-29.187"/><path fill="#B99628" d="m66 16 5 2 1-2h4c6.68 7.528 9.648 18.421 9.285 28.332C84.312 53.436 82.022 61.319 77 69l-3-1-1-3-3-1a178 178 0 0 1 3.563-8.437c3.719-9.218 3.025-17.445-.208-26.641C71.328 24.55 68.462 21.306 65 18z"/><path fill="#F3D858" d="M69 64c2.813.188 2.813.188 5 1v3l2 1c-4.871 6.41-10.512 11.64-18.54 13.629-3.625.466-5.953.54-9.46-.629 2.53-5.24 4.469-7.437 9.813-9.875 5.045-2.377 5.045-2.377 9.124-6.062z"/><path fill="#FFC721" d="M26 28h40v24h-6v-2h4V31H28v3h19v2H23v-2h3z"/><path fill="#FFBA03" d="m40 3 1 5 3 1-2.309.262C31.225 10.686 24.341 14.789 16 21c-1.245-2.49-.777-3.41 0-6l-3-2C21.362 5.16 28.556 1.283 40 3"/><path fill="#FFCE32" d="M43 40c1.875 1.063 1.875 1.063 3 3-.444 6.444-.444 6.444-2 8l6 1a88 88 0 0 1 1 5c-1 1-1 1-3.041 1.114l-2.65-.016-2.862-.01-3.01-.026-3.021-.013Q32.708 58.03 29 58v-6l7-1-1.062-1.687C33.756 46.398 33.99 44.95 35 42c3.233-2.155 4.252-2.469 8-2m-5 3-1 5 5 1 2-4-2-2z"/><path fill="#FDD766" d="M47 34h13v24H50v-6h2v-2l2-1c.374-4.145.374-4.145-1.25-7.812-1.916-1.3-3.48-1.797-5.75-2.188v-2h7v3h3v11l-3 1v3h4V36H47z"/><path fill="#FBD777" d="M10 54a505 505 0 0 1 4 5l1.602 2.008 1.648 2.117 1.578 2.008C20 67 20 67 20 70h-4l-3 1v-3H9c-4-5.111-4-5.111-4-8l2-1a90 90 0 0 0 2-4z"/><path fill="#FFC827" d="m46.25 75.938 2.703.027L51 76c-1 3-1 3-3 6l5 1v1c-7.844 1.349-13.05.998-20-3 4.203-4.653 7.118-5.143 13.25-5.062"/><path fill="#C0981E" d="M76 36c3.756.751 5.832 1.24 9 3 .218 6.002-.494 11.192-2 17h-2l-1-3 2-3v-2l-6 2z"/><path fill="#FFC63D" d="M36 1c2.041-.055 4.083-.093 6.125-.125l3.445-.07c3.488.198 6.185.943 9.43 2.195v3l-4-1 1 4c-2.633 1.316-3.802.748-6.625.063l-2.477-.59L41 8V6l-2-1 1-2h-4z"/><path fill="#FFB32B" d="m12 67 2 2 2 1 1-2c2.938.813 2.938.813 6 2l1 3 1.563 1.563L27 76v2a764 764 0 0 1-4.375-.437l-2.46-.247C18 77 18 77 16 76v-2l-1.875-.812C12 72 12 72 10 69h2z"/><path fill="#C8A937" d="m66 16 5 2 1-2h4l4 7-3 1-2 2c-2.797-.176-3.795-.778-5.703-2.848l-1.547-2.215-1.578-2.222L65 17z"/><path fill="#F8DA65" d="m11 24 3 1a428 428 0 0 1-1.812 4.313l-1.02 2.425C9.998 34.003 9.011 35.441 7 37c-2.687-.312-2.687-.312-5-1l1-7c1.977-.73 3.98-1.394 6-2l2 1-1-3z"/><path fill="#EDC95C" d="M47 34h13v24h-2V36H47z"/><path fill="#EBC144" d="M65 7c4.179 2.564 7.125 5.02 10 9-3.58 1.534-5.458 2.123-9.312 1.25C63 16 63 16 62 14h2z"/><path fill="#C6A235" d="M60 28h6v24h-6v-2h4V31h-4z"/><path fill="#FFDF46" d="m55 74 .813 1.938C56.887 78.33 56.887 78.33 60 79c2.167-.875 2.167-.875 4-2l1 2c-4.368 3.24-8.667 3.96-14 4l-3-1a56.5 56.5 0 0 1 4-7z"/><path fill="#FFD920" d="m16 10 1 2h2v-2c2.915 1.074 4.778 1.778 7 4l-9 7-2-2c.375-2.125.375-2.125 1-4l-3-2z"/><path fill="#FFC21D" d="M33 3h7l1 5 3 1q-3.187.079-6.375.125l-3.586.07C31 9 31 9 29 7l3-1z"/><path fill="#D9BC42" d="M69 64q2.514.428 5 1v3l2 1a858 858 0 0 1-2.937 3.5l-1.653 1.969L70 76h-1c-.125-5.75-.125-5.75 1-8l-4 1c1.875-3.875 1.875-3.875 3-5"/><path fill="#FFC310" d="M29 52h9l2 6H29z"/><path fill="#FBD76B" d="M20 34h3l-1 21h2v3h-4z"/><path fill="#FFD34F" d="M43 28h17v3H42z"/><path fill="#FFCD36" d="M46.563 51.938 50 52a88 88 0 0 1 1 5c-1 1-1 1-3.066 1.098l-2.496-.035-2.504-.028L41 58c1.074-5.984 1.074-5.984 5.563-6.062"/><path fill="#FFC828" d="M27 37c2.063-.34 2.063-.34 4.57-.293l2.715.03 2.84.075 2.863.042q3.507.053 7.012.146v2l-3.832.113q-2.49.099-4.98.2l-2.526.068-2.432.107-2.237.08C28.528 40.102 27.599 41.1 26 43l-1-3z"/><path fill="#FFD93C" d="m11 56 1.625 2.063C15.351 61.433 18.165 64.72 21 68l-1 2h-4l-3 1 1-9h-3z"/><path fill="#FACF4C" d="M9 49c1.25 1.563 1.25 1.563 2 4-1.068 2.57-2.465 4.653-4 7H4l-2-8h3v2c2.51-1.255 2.871-2.5 4-5"/><path fill="#BE8A27" d="M82 48c.625 1.875.625 1.875 1 4l-2 2v2l2 1-3 1v-2l-5-1c.25-2.375.25-2.375 1-5 2.151-1.457 3.403-2 6-2"/><path fill="#FFD83F" d="M14.625 13.875 17 14l-.5 2.813c-.577 3.143-.577 3.143-.5 6.187l-6-1 1-3-1-3c2-2 2-2 4.625-2.125"/><path fill="#FFC517" d="M29 28h14l-1 3H29z"/><path fill="#FFC315" d="m38 40 3 1v2l-3 1v4l2 1v2l-5-1c-.75-2.75-.75-2.75-1-6 1.938-2.375 1.938-2.375 4-4"/><path fill="#FFC104" d="M33.047 74.957c1.997.266 3.978.648 5.953 1.043-1.324 2.647-2.204 3.044-5 4-3.75-.375-3.75-.375-7-1 1.764-2.426 2.924-3.977 6.047-4.043"/><path fill="#FED672" d="m65 7-1 7c-4.875-1.75-4.875-1.75-6-4l1-3c2.49-1.245 3.41-.777 6 0"/><path fill="#FFDD62" d="M10 62h4c.688 1.813.688 1.813 1 4-1.437 1.75-1.437 1.75-3 3l-4-2c.875-3.875.875-3.875 2-5"/><path fill="#D0AD20" d="M83 39h2c.218 6.002-.494 11.192-2 17h-2l-1-3 2-3c.458-2.739.458-2.739.625-5.687l.227-3.012z"/><path fill="#FFC81A" d="M21 69c2.275 2.167 4.236 4.396 6 7v2l-9-1 1-2h3z"/><path fill="#FFE62D" d="M36 1c2.041-.055 4.083-.093 6.125-.125l3.445-.07c3.488.198 6.185.943 9.43 2.195v3c-2.937-.375-2.937-.375-6-1l-1-2c-2.816-.469-2.816-.469-6.062-.625l-3.348-.227L36 2z"/><path fill="#FDD96E" d="M64 71c2 2 2 2 2.125 4.625L66 78h-7v-4h3v-2z"/><path fill="#FFCC5E" d="m61 72-1 5 3 1c-3 2-3 2-5.187 1.625L56 79c-.187-2.375-.187-2.375 0-5 3-2 3-2 5-2"/><path fill="#FFC54B" d="M53 76a85 85 0 0 1 2 7l-7-1c1.37-3.161 1.99-3.993 5-6"/><path fill="#FFCD38" d="M26 28h3v8h-6v-2h3z"/><path fill="#EBB241" d="M71 68h2l1 4-5 4c-.125-2.875-.125-2.875 0-6z"/><path fill="#FF9B00" d="M30 80c2.846.66 5.523 1.517 8.25 2.563l2.14.816L42 84c-3.272 1.073-5.43.893-8.75.063l-2.422-.59L29 83z"/><path fill="#F6D84D" d="m11 24 3 1-4 9H9v-6h2l-1-3z"/><path fill="#FFD24C" d="M46 52h4l1 5-4 1z"/><path fill="#FFBB27" d="m17 14 4 1v3c-2.5 1.688-2.5 1.688-5 3l-1-2c.938-2.625.938-2.625 2-5"/><path fill="#FFB926" d="M39 82c6.055-.195 6.055-.195 8 0l2 2c-3.312.688-3.312.688-7 1-1.937-1.437-1.937-1.437-3-3"/><path fill="#F2CE64" d="M54 28c3.125-.187 3.125-.187 6 0v3h-8z"/><path fill="#FFC771" d="M6 39h3v9l-2-1c-.594-2.649-.742-5.292-1-8"/><path fill="#FF9000" d="M27 9h10v1l-10 3z"/><path fill="#F0CC65" d="m5 49 3 1-1 4H5v-2l-3-1z"/><path fill="#F2CD67" d="m5 32 3 1-1 4-5-1v-2h3z"/><path fill="#BE8A24" d="M74 16h2c1.625 2.5 1.625 2.5 3 5l-3 1-3-2z"/><path fill="#FFD80D" d="m21 11 5 2-5 4a88 88 0 0 1-1-5z"/><path fill="#FFC922" d="m38 52 4 1-1 5-3-2z"/><path fill="#ECD155" d="m65 7 2 1v6l-3 1z"/><path fill="#FFDA06" d="m36 3-3 1c-1.667 1.5-1.667 1.5-3 3l-2-4c3.053-.981 4.947-.981 8 0"/><path fill="#FFD356" d="M48 44h3v4h-3z"/><path fill="#FFBD14" d="M30 44h2v4h-3z"/></svg>